<svg width="230" height="230" viewBox="0 0 230 230" fill="none" xmlns="http://www.w3.org/2000/svg">
<path d="M230 34.9967V195.004C230 197.127 228.277 198.85 226.154 198.85H3.84633C1.72315 198.85 0 197.127 0 195.004V34.9967C0 32.8735 1.72315 31.1504 3.84633 31.1504H226.154C228.277 31.1504 230 32.8735 230 34.9967ZM222.307 191.158V62.9518H7.69265V191.158H222.307ZM222.307 55.2592V38.843H7.69265V55.2592H222.307Z" fill="black"/>
<path d="M222.308 38.8428V55.2589H7.69287V38.8428H222.308ZM50.2896 47.0534C50.2896 46.038 49.8794 45.0482 49.1665 44.3302C48.4485 43.6173 47.4587 43.2071 46.4433 43.2071C45.433 43.2071 44.4432 43.6173 43.7252 44.3302C43.0073 45.0482 42.597 46.038 42.597 47.0534C42.597 48.0637 43.0073 49.0535 43.7252 49.7715C44.4432 50.4895 45.433 50.8997 46.4433 50.8997C47.4587 50.8997 48.4485 50.4895 49.1665 49.7715C49.8794 49.0535 50.2896 48.0637 50.2896 47.0534ZM37.1403 47.0534C37.1403 46.038 36.7301 45.0482 36.0172 44.3302C35.2992 43.6173 34.3094 43.2071 33.294 43.2071C32.2837 43.2071 31.2939 43.6173 30.5759 44.3302C29.858 45.0482 29.4477 46.0431 29.4477 47.0534C29.4477 48.0637 29.858 49.0535 30.5759 49.7715C31.2939 50.4895 32.2837 50.8997 33.294 50.8997C34.3094 50.8997 35.2992 50.4895 36.0172 49.7715C36.7301 49.0535 37.1403 48.0637 37.1403 47.0534ZM23.991 47.0534C23.991 46.038 23.5808 45.0482 22.8679 44.3302C22.1499 43.6173 21.1601 43.2071 20.1498 43.2071C19.1344 43.2071 18.1446 43.6173 17.4266 44.3302C16.7138 45.0482 16.2984 46.038 16.2984 47.0534C16.2984 48.0637 16.7138 49.0535 17.4266 49.7715C18.1446 50.4895 19.1344 50.8997 20.1498 50.8997C21.1601 50.8997 22.1499 50.4895 22.8679 49.7715C23.5808 49.0535 23.991 48.0637 23.991 47.0534Z" fill="#3DD0F2"/>
<path d="M145.309 119.549V172.48C145.309 174.603 143.586 176.326 141.463 176.326H88.5324C86.4092 176.326 84.686 174.603 84.686 172.48V119.549C84.686 117.426 86.4092 115.703 88.5324 115.703H128.95V95.3637C128.95 87.671 122.693 81.4143 115 81.4143C107.308 81.4143 101.051 87.671 101.051 95.3637V105.262C101.051 107.385 99.3277 109.108 97.2045 109.108C95.0762 109.108 93.3582 107.385 93.3582 105.262V95.3637C93.3582 83.4298 103.066 73.7217 115 73.7217C126.934 73.7217 136.642 83.4298 136.642 95.3637V115.703H141.463C143.586 115.703 145.309 117.426 145.309 119.549ZM137.617 168.634V123.396H92.3787V168.634H137.617Z" fill="black"/>
<path d="M137.616 123.396H92.3784V168.633H137.616V123.396Z" fill="#B987D4"/>
<path d="M49.1662 44.3302C49.8791 45.0481 50.2893 46.0379 50.2893 47.0534C50.2893 48.0637 49.8791 49.0535 49.1662 49.7714C48.4482 50.4894 47.4584 50.8997 46.443 50.8997C45.4327 50.8997 44.4429 50.4894 43.7249 49.7714C43.007 49.0535 42.5967 48.0637 42.5967 47.0534C42.5967 46.0379 43.007 45.0481 43.7249 44.3302C44.4429 43.6173 45.4327 43.207 46.443 43.207C47.4584 43.207 48.4482 43.6173 49.1662 44.3302Z" fill="black"/>
<path d="M36.0168 44.3302C36.7296 45.0481 37.1399 46.0379 37.1399 47.0534C37.1399 48.0637 36.7296 49.0535 36.0168 49.7714C35.2988 50.4894 34.309 50.8997 33.2936 50.8997C32.2833 50.8997 31.2935 50.4894 30.5755 49.7714C29.8575 49.0535 29.4473 48.0637 29.4473 47.0534C29.4473 46.0431 29.8575 45.0481 30.5755 44.3302C31.2935 43.6173 32.2833 43.207 33.2936 43.207C34.309 43.207 35.2988 43.6173 36.0168 44.3302Z" fill="black"/>
<path d="M22.8679 44.3302C23.5807 45.0481 23.991 46.0379 23.991 47.0534C23.991 48.0637 23.5807 49.0535 22.8679 49.7714C22.1499 50.4894 21.1601 50.8997 20.1498 50.8997C19.1344 50.8997 18.1446 50.4894 17.4266 49.7714C16.7137 49.0535 16.2983 48.0637 16.2983 47.0534C16.2983 46.0379 16.7137 45.0481 17.4266 44.3302C18.1446 43.6173 19.1344 43.207 20.1498 43.207C21.1601 43.207 22.1499 43.6173 22.8679 44.3302Z" fill="black"/>
</svg>
