<svg width="230" height="230" viewBox="0 0 230 230" fill="none" xmlns="http://www.w3.org/2000/svg">
<path d="M230 76.2241V196.27C230 198.469 228.215 200.254 226.016 200.254H59.2263C57.0219 200.254 55.2425 198.469 55.2425 196.27V157.76H3.98383C1.78476 157.76 0 155.975 0 153.776V33.7299C0 31.5309 1.78476 29.7461 3.98383 29.7461H170.774C172.973 29.7461 174.758 31.5309 174.758 33.7299V72.2403H226.016C228.215 72.2403 230 74.0251 230 76.2241ZM222.032 192.286V103.739H119.313V192.286H222.032ZM222.032 95.7715V80.208H63.2102V95.7715H222.032ZM166.79 72.2403V61.2449H7.96767V149.792H55.2425V76.2241C55.2425 74.0251 57.0219 72.2403 59.2263 72.2403H166.79ZM166.79 53.2773V37.7138H7.96767V53.2773H166.79ZM111.345 192.286V103.739H63.2102V192.286H111.345Z" fill="black"/>
<path d="M222.032 80.208V95.7715H63.21V80.208H222.032ZM95.1709 87.9898C95.1709 86.938 94.746 85.9129 94.0023 85.1692C93.2587 84.4309 92.2335 84.0059 91.1871 84.0059C90.1354 84.0059 89.1102 84.4309 88.3665 85.1692C87.6282 85.9129 87.2033 86.9433 87.2033 87.9898C87.2033 89.0362 87.6282 90.0667 88.3665 90.805C89.1102 91.5487 90.1354 91.9736 91.1871 91.9736C92.2335 91.9736 93.2587 91.5487 94.0023 90.805C94.746 90.0667 95.1709 89.0362 95.1709 87.9898ZM85.3016 87.9898C85.3016 86.9433 84.8767 85.9129 84.1384 85.1692C83.3947 84.4309 82.3695 84.0059 81.3178 84.0059C80.2714 84.0059 79.2462 84.4309 78.5026 85.1692C77.7642 85.9129 77.3393 86.9433 77.3393 87.9898C77.3393 89.0362 77.7642 90.0667 78.5026 90.805C79.2462 91.5487 80.2714 91.9736 81.3178 91.9736C82.3695 91.9736 83.3947 91.5487 84.1384 90.805C84.8767 90.0667 85.3016 89.0362 85.3016 87.9898ZM75.4377 87.9898C75.4377 86.938 75.0127 85.9129 74.2744 85.1745C73.5307 84.4309 72.5056 84.0059 71.4538 84.0059C70.4074 84.0059 69.3769 84.4309 68.6386 85.1745C67.8949 85.9129 67.47 86.938 67.47 87.9898C67.47 89.0362 67.8949 90.0667 68.6386 90.805C69.3822 91.5487 70.4074 91.9736 71.4538 91.9736C72.5056 91.9736 73.5307 91.5487 74.2744 90.805C75.0127 90.0667 75.4377 89.0362 75.4377 87.9898Z" fill="#3DD0F2"/>
<path d="M189.63 111.924C191.829 111.924 193.614 113.703 193.614 115.908C193.614 118.107 191.829 119.892 189.63 119.892H129.772C127.573 119.892 125.788 118.107 125.788 115.908C125.788 113.703 127.573 111.924 129.772 111.924H189.63Z" fill="black"/>
<path d="M189.63 126.266C191.829 126.266 193.614 128.045 193.614 130.249C193.614 132.449 191.829 134.233 189.63 134.233H129.772C127.573 134.233 125.788 132.449 125.788 130.249C125.788 128.045 127.573 126.266 129.772 126.266H189.63Z" fill="black"/>
<path d="M189.63 140.607C191.829 140.607 193.614 142.387 193.614 144.591C193.614 146.79 191.829 148.575 189.63 148.575H129.772C127.573 148.575 125.788 146.79 125.788 144.591C125.788 142.387 127.573 140.607 129.772 140.607H189.63Z" fill="black"/>
<path d="M166.79 37.7139V53.2774H7.96777V37.7139H166.79ZM39.9287 45.4956C39.9287 44.4492 39.5038 43.4187 38.7602 42.6804C38.0218 41.9367 36.9913 41.5118 35.9449 41.5118C34.8932 41.5118 33.868 41.9367 33.1244 42.6804C32.386 43.4187 31.9611 44.4439 31.9611 45.4956C31.9611 46.542 32.386 47.5725 33.1244 48.3109C33.868 49.0545 34.8932 49.4795 35.9449 49.4795C36.9913 49.4795 38.0165 49.0545 38.7602 48.3109C39.5038 47.5672 39.9287 46.542 39.9287 45.4956ZM30.0595 45.4956C30.0595 44.4439 29.6345 43.4187 28.8962 42.6804C28.1525 41.9367 27.1274 41.5118 26.0756 41.5118C25.0292 41.5118 24.004 41.9367 23.2604 42.6804C22.522 43.4187 22.0971 44.4439 22.0971 45.4956C22.0971 46.542 22.522 47.5725 23.2604 48.3109C24.004 49.0545 25.0292 49.4795 26.0756 49.4795C27.1274 49.4795 28.1525 49.0545 28.8962 48.3109C29.6345 47.5725 30.0595 46.542 30.0595 45.4956ZM20.1955 45.4956C20.1955 44.4492 19.7705 43.4187 19.0322 42.6804C18.2886 41.9367 17.2634 41.5118 16.2117 41.5118C15.1652 41.5118 14.1401 41.9367 13.3964 42.6804C12.6528 43.4187 12.2278 44.4439 12.2278 45.4956C12.2278 46.542 12.6528 47.5725 13.3964 48.3109C14.1401 49.0545 15.1652 49.4795 16.2117 49.4795C17.2634 49.4795 18.2886 49.0545 19.0322 48.3109C19.7705 47.5672 20.1955 46.542 20.1955 45.4956Z" fill="#B987D4"/>
<path d="M100.026 111.924C102.225 111.924 104.01 113.703 104.01 115.908C104.01 118.107 102.225 119.892 100.026 119.892H74.5297C72.3307 119.892 70.5459 118.107 70.5459 115.908C70.5459 113.703 72.3307 111.924 74.5297 111.924H100.026Z" fill="black"/>
<path d="M100.026 126.266C102.225 126.266 104.01 128.045 104.01 130.249C104.01 132.449 102.225 134.233 100.026 134.233H74.5297C72.3307 134.233 70.5459 132.449 70.5459 130.249C70.5459 128.045 72.3307 126.266 74.5297 126.266H100.026Z" fill="black"/>
<path d="M100.026 140.607C102.225 140.607 104.01 142.387 104.01 144.591C104.01 146.79 102.225 148.575 100.026 148.575H74.5297C72.3307 148.575 70.5459 146.79 70.5459 144.591C70.5459 142.387 72.3307 140.607 74.5297 140.607H100.026Z" fill="black"/>
<path d="M94.0027 85.1691C94.7463 85.9128 95.1713 86.938 95.1713 87.9897C95.1713 89.0361 94.7463 90.0666 94.0027 90.8049C93.259 91.5486 92.2339 91.9735 91.1874 91.9735C90.1357 91.9735 89.1105 91.5486 88.3669 90.8049C87.6286 90.0666 87.2036 89.0361 87.2036 87.9897C87.2036 86.9433 87.6286 85.9128 88.3669 85.1691C89.1105 84.4308 90.1357 84.0059 91.1874 84.0059C92.2339 84.0059 93.259 84.4308 94.0027 85.1691Z" fill="black"/>
<path d="M84.1384 85.1691C84.8768 85.9128 85.3017 86.9433 85.3017 87.9897C85.3017 89.0361 84.8768 90.0666 84.1384 90.8049C83.3948 91.5486 82.3696 91.9735 81.3179 91.9735C80.2714 91.9735 79.2463 91.5486 78.5026 90.8049C77.7643 90.0666 77.3394 89.0361 77.3394 87.9897C77.3394 86.9433 77.7643 85.9128 78.5026 85.1691C79.2463 84.4308 80.2714 84.0059 81.3179 84.0059C82.3696 84.0059 83.3948 84.4308 84.1384 85.1691Z" fill="black"/>
<path d="M74.2746 85.1745C75.0129 85.9128 75.4379 86.938 75.4379 87.9897C75.4379 89.0361 75.0129 90.0666 74.2746 90.8049C73.531 91.5486 72.5058 91.9735 71.4541 91.9735C70.4076 91.9735 69.3825 91.5486 68.6388 90.8049C67.8952 90.0666 67.4702 89.0361 67.4702 87.9897C67.4702 86.938 67.8952 85.9128 68.6388 85.1745C69.3771 84.4308 70.4076 84.0059 71.4541 84.0059C72.5058 84.0059 73.531 84.4308 74.2746 85.1745Z" fill="black"/>
<path d="M44.7836 69.4297C46.9827 69.4297 48.7674 71.2091 48.7674 73.4135C48.7674 75.6126 46.9827 77.3974 44.7836 77.3974H19.2871C17.088 77.3974 15.3032 75.6126 15.3032 73.4135C15.3032 71.2091 17.088 69.4297 19.2871 69.4297H44.7836Z" fill="black"/>
<path d="M44.7836 83.7715C46.9827 83.7715 48.7674 85.5509 48.7674 87.7553C48.7674 89.9544 46.9827 91.7392 44.7836 91.7392H19.2871C17.088 91.7392 15.3032 89.9544 15.3032 87.7553C15.3032 85.5509 17.088 83.7715 19.2871 83.7715H44.7836Z" fill="black"/>
<path d="M44.7836 98.1133C46.9827 98.1133 48.7674 99.8927 48.7674 102.097C48.7674 104.296 46.9827 106.081 44.7836 106.081H19.2871C17.088 106.081 15.3032 104.296 15.3032 102.097C15.3032 99.8927 17.088 98.1133 19.2871 98.1133H44.7836Z" fill="black"/>
<path d="M38.76 42.6803C39.5037 43.4186 39.9286 44.4491 39.9286 45.4956C39.9286 46.542 39.5037 47.5671 38.76 48.3108C38.0164 49.0544 36.9912 49.4794 35.9448 49.4794C34.893 49.4794 33.8679 49.0544 33.1242 48.3108C32.3859 47.5725 31.9609 46.542 31.9609 45.4956C31.9609 44.4438 32.3859 43.4186 33.1242 42.6803C33.8679 41.9367 34.893 41.5117 35.9448 41.5117C36.9912 41.5117 38.0217 41.9367 38.76 42.6803Z" fill="black"/>
<path d="M28.8963 42.6803C29.6346 43.4186 30.0595 44.4438 30.0595 45.4956C30.0595 46.542 29.6346 47.5725 28.8963 48.3108C28.1526 49.0544 27.1274 49.4794 26.0757 49.4794C25.0293 49.4794 24.0041 49.0544 23.2604 48.3108C22.5221 47.5725 22.0972 46.542 22.0972 45.4956C22.0972 44.4438 22.5221 43.4186 23.2604 42.6803C24.0041 41.9367 25.0293 41.5117 26.0757 41.5117C27.1274 41.5117 28.1526 41.9367 28.8963 42.6803Z" fill="black"/>
<path d="M19.0319 42.6803C19.7703 43.4186 20.1952 44.4491 20.1952 45.4956C20.1952 46.542 19.7703 47.5671 19.0319 48.3108C18.2883 49.0544 17.2631 49.4794 16.2114 49.4794C15.165 49.4794 14.1398 49.0544 13.3961 48.3108C12.6525 47.5725 12.2275 46.542 12.2275 45.4956C12.2275 44.4438 12.6525 43.4186 13.3961 42.6803C14.1398 41.9367 15.165 41.5117 16.2114 41.5117C17.2631 41.5117 18.2883 41.9367 19.0319 42.6803Z" fill="black"/>
</svg>
