<svg width="230" height="230" viewBox="0 0 230 230" fill="none" xmlns="http://www.w3.org/2000/svg">
<g clip-path="url(#clip0)">
<path d="M227.285 19.1975V64.7707C227.285 75.3605 218.672 83.9732 208.083 83.9732H196.621L196.464 94.7405C196.443 96.0281 195.774 97.2194 194.684 97.9037C194.071 98.2941 193.366 98.4867 192.662 98.4867C192.119 98.4867 191.572 98.3701 191.06 98.1369L160.522 83.9732H144.209C133.624 83.9732 125.012 75.3605 125.012 64.7707V19.1975C125.012 8.61277 133.624 0 144.209 0H208.083C218.672 0 227.285 8.61277 227.285 19.1975ZM219.681 64.7707V19.1975C219.681 12.8051 214.48 7.60398 208.083 7.60398H144.209C137.817 7.60398 132.616 12.8051 132.616 19.1975V64.7707C132.616 71.1682 137.817 76.3693 144.209 76.3693H161.364C161.911 76.3693 162.459 76.4909 162.961 76.7191L188.946 88.7739L189.073 80.1155C189.103 78.0371 190.796 76.3693 192.875 76.3693H208.083C214.48 76.3693 219.681 71.1682 219.681 64.7707Z" fill="black"/>
<path d="M192.647 33.0114C192.647 38.765 189.722 44.0118 184.825 47.0432C184.779 47.0737 184.723 47.1091 184.662 47.1396C181.286 49.076 179.269 52.6195 179.395 56.4063C179.466 58.505 177.819 60.264 175.72 60.3299C175.68 60.335 175.634 60.335 175.593 60.335C173.55 60.335 171.862 58.7128 171.796 56.6547C171.578 50.0595 175.046 43.8952 180.85 40.5647C183.476 38.9222 185.043 36.1037 185.043 33.0114C185.043 28.1043 181.053 24.1147 176.146 24.1147C171.244 24.1147 167.254 28.1043 167.254 33.0114C167.254 35.1101 165.551 36.8134 163.452 36.8134C161.349 36.8134 159.65 35.1101 159.65 33.0114C159.65 23.9119 167.052 16.5107 176.146 16.5107C185.245 16.5107 192.647 23.9119 192.647 33.0114Z" fill="black"/>
<path d="M182.675 116.539V194.226C182.675 204.816 174.062 213.429 163.473 213.429H67.997L33.0238 229.645C32.5169 229.884 31.9694 230 31.427 230C30.555 230 29.6933 229.701 28.9988 229.123C27.8683 228.186 27.3817 226.68 27.7416 225.26L30.7528 213.429H21.9119C11.3271 213.429 2.71436 204.816 2.71436 194.226V116.539C2.71436 105.954 11.3271 97.3413 21.9119 97.3413H163.473C174.062 97.3413 182.675 105.954 182.675 116.539ZM175.071 194.226V116.539C175.071 110.146 169.87 104.945 163.473 104.945H21.9119C15.5195 104.945 10.3183 110.146 10.3183 116.539V194.226C10.3183 200.624 15.5195 205.825 21.9119 205.825H35.6446C36.8157 205.825 37.9258 206.367 38.6457 207.29C39.3655 208.217 39.6139 209.424 39.325 210.565L37.0843 219.38L65.5587 206.174C66.0605 205.946 66.603 205.825 67.1555 205.825H163.473C169.87 205.825 175.071 200.624 175.071 194.226Z" fill="black"/>
<path d="M178.3 65.2371C179.01 65.9468 179.416 66.9252 179.416 67.9289C179.416 68.9276 179.01 69.906 178.3 70.6157C177.596 71.3254 176.612 71.7309 175.614 71.7309C174.615 71.7309 173.631 71.3254 172.922 70.6157C172.217 69.906 171.812 68.9276 171.812 67.9289C171.812 66.9252 172.217 65.9468 172.922 65.2371C173.631 64.5325 174.61 64.127 175.614 64.127C176.612 64.127 177.596 64.5325 178.3 65.2371Z" fill="black"/>
<path d="M175.071 116.539V194.226C175.071 200.624 169.87 205.825 163.473 205.825H67.1555C66.603 205.825 66.0606 205.946 65.5587 206.174L37.0844 219.38L39.325 210.565C39.6139 209.424 39.3655 208.217 38.6457 207.29C37.9259 206.367 36.8157 205.825 35.6447 205.825H21.9119C15.5195 205.825 10.3184 200.624 10.3184 194.226V116.539C10.3184 110.146 15.5195 104.945 21.9119 104.945H163.473C169.87 104.945 175.071 110.146 175.071 116.539ZM157.835 123.448C157.835 121.35 156.132 119.646 154.034 119.646H31.356C29.2523 119.646 27.554 121.35 27.554 123.448C27.554 125.547 29.2523 127.25 31.356 127.25H154.034C156.132 127.25 157.835 125.547 157.835 123.448ZM157.835 144.4C157.835 142.301 156.132 140.598 154.034 140.598H31.356C29.2523 140.598 27.554 142.301 27.554 144.4C27.554 146.499 29.2523 148.202 31.356 148.202H154.034C156.132 148.202 157.835 146.499 157.835 144.4ZM157.835 165.351C157.835 163.253 156.132 161.549 154.034 161.549H31.356C29.2523 161.549 27.554 163.253 27.554 165.351C27.554 167.455 29.2523 169.153 31.356 169.153H154.034C156.132 169.153 157.835 167.455 157.835 165.351ZM157.835 186.308C157.835 184.209 156.132 182.506 154.034 182.506H31.356C29.2523 182.506 27.554 184.209 27.554 186.308C27.554 188.407 29.2523 190.11 31.356 190.11H154.034C156.132 190.11 157.835 188.407 157.835 186.308Z" fill="#3DD0F2"/>
<path d="M154.034 119.646C156.132 119.646 157.836 121.35 157.836 123.448C157.836 125.547 156.132 127.25 154.034 127.25H31.3562C29.2524 127.25 27.5542 125.547 27.5542 123.448C27.5542 121.35 29.2524 119.646 31.3562 119.646H154.034Z" fill="black"/>
<path d="M154.034 140.598C156.132 140.598 157.836 142.301 157.836 144.4C157.836 146.498 156.132 148.202 154.034 148.202H31.3562C29.2524 148.202 27.5542 146.498 27.5542 144.4C27.5542 142.301 29.2524 140.598 31.3562 140.598H154.034Z" fill="black"/>
<path d="M154.034 161.549C156.132 161.549 157.836 163.253 157.836 165.351C157.836 167.455 156.132 169.153 154.034 169.153H31.3562C29.2524 169.153 27.5542 167.455 27.5542 165.351C27.5542 163.253 29.2524 161.549 31.3562 161.549H154.034Z" fill="black"/>
<path d="M154.034 182.506C156.132 182.506 157.836 184.209 157.836 186.308C157.836 188.407 156.132 190.11 154.034 190.11H31.3562C29.2524 190.11 27.5542 188.407 27.5542 186.308C27.5542 184.209 29.2524 182.506 31.3562 182.506H154.034Z" fill="black"/>
</g>
<defs>
<clipPath id="clip0">
<rect width="230" height="230" fill="white"/>
</clipPath>
</defs>
</svg>
