<svg width="230" height="230" viewBox="0 0 230 230" fill="none" xmlns="http://www.w3.org/2000/svg">
<path d="M205.355 125.53C220.238 135.871 230 153.09 230 172.546C230 204.095 204.335 229.76 172.785 229.76C153.472 229.76 136.363 220.14 125.996 205.442C118.75 207.026 111.298 207.831 103.793 207.831C46.5631 207.831 0 161.268 0 104.038C0 46.8024 46.5631 0.239258 103.793 0.239258C161.024 0.239258 207.587 46.8024 207.587 104.038C207.587 111.284 206.834 118.499 205.355 125.53ZM222.106 172.546C222.106 145.349 199.982 123.22 172.785 123.22C145.589 123.22 123.465 145.349 123.465 172.546C123.465 199.743 145.589 221.867 172.785 221.867C199.982 221.867 222.106 199.743 222.106 172.546ZM198.146 121.268C199.172 115.605 199.693 109.832 199.693 104.038C199.693 51.1545 156.672 8.13309 103.793 8.13309C50.9152 8.13309 7.89383 51.1545 7.89383 104.038C7.89383 156.916 50.9152 199.937 103.793 199.937C109.824 199.937 115.824 199.369 121.686 198.264C120.691 196.296 119.807 194.27 119.039 192.18C114.029 193.044 108.914 193.486 103.793 193.486C54.4727 193.486 14.3457 153.359 14.3457 104.038C14.3457 54.712 54.4727 14.585 103.793 14.585C153.114 14.585 193.241 54.712 193.241 104.038C193.241 108.943 192.836 113.847 192.041 118.668C194.136 119.415 196.172 120.283 198.146 121.268ZM184.4 116.515C185.026 112.395 185.347 108.216 185.347 104.038C185.347 59.0641 148.762 22.4788 103.793 22.4788C58.8249 22.4788 22.2396 59.0641 22.2396 104.038C22.2396 149.006 58.8249 185.592 103.793 185.592C108.172 185.592 112.545 185.239 116.839 184.55C116.008 180.677 115.571 176.661 115.571 172.546C115.571 140.997 141.236 115.326 172.785 115.326C176.764 115.326 180.648 115.737 184.4 116.515Z" fill="black"/>
<path d="M172.786 123.22C199.982 123.22 222.106 145.349 222.106 172.546C222.106 199.743 199.982 221.866 172.786 221.866C145.589 221.866 123.465 199.743 123.465 172.546C123.465 145.349 145.589 123.22 172.786 123.22ZM215.991 172.546C215.991 148.722 196.609 129.34 172.786 129.34C148.962 129.34 129.58 148.722 129.58 172.546C129.58 196.369 148.962 215.751 172.786 215.751C196.609 215.751 215.991 196.369 215.991 172.546Z" fill="#B987D4"/>
<path d="M172.785 129.34C196.609 129.34 215.991 148.722 215.991 172.546C215.991 196.37 196.609 215.752 172.785 215.752C148.962 215.752 129.58 196.37 129.58 172.546C129.58 148.722 148.962 129.34 172.785 129.34ZM208.097 172.546C208.097 153.074 192.257 137.234 172.785 137.234C153.314 137.234 137.473 153.074 137.473 172.546C137.473 192.017 153.314 207.858 172.785 207.858C192.257 207.858 208.097 192.017 208.097 172.546Z" fill="black"/>
<path d="M199.693 104.038C199.693 109.832 199.172 115.605 198.146 121.268C196.172 120.284 194.136 119.415 192.041 118.668C192.836 113.848 193.241 108.943 193.241 104.038C193.241 54.7122 153.114 14.5852 103.794 14.5852C54.4729 14.5852 14.3459 54.7122 14.3459 104.038C14.3459 153.359 54.4729 193.486 103.794 193.486C108.914 193.486 114.029 193.044 119.039 192.181C119.808 194.27 120.692 196.296 121.686 198.264C115.824 199.369 109.824 199.938 103.794 199.938C50.9154 199.938 7.89404 156.916 7.89404 104.038C7.89404 51.1547 50.9154 8.1333 103.794 8.1333C156.672 8.1333 199.693 51.1547 199.693 104.038Z" fill="#3DD0F2"/>
<path d="M187.462 161.816C187.462 163.994 185.694 165.762 183.516 165.762C181.332 165.762 179.569 163.994 179.569 161.816C179.569 159.547 178.448 157.542 176.732 156.311V169.141C182.91 170.872 187.462 176.551 187.462 183.276C187.462 190.002 182.91 195.68 176.732 197.406V198.974C176.732 201.153 174.964 202.921 172.785 202.921C170.606 202.921 168.838 201.153 168.838 198.974V197.406C162.655 195.68 158.108 190.002 158.108 183.276C158.108 181.092 159.876 179.329 162.055 179.329C164.234 179.329 166.002 181.092 166.002 183.276C166.002 185.539 167.123 187.549 168.838 188.781V175.951C162.655 174.219 158.108 168.541 158.108 161.816C158.108 155.09 162.655 149.412 168.838 147.68V146.117C168.838 143.933 170.606 142.17 172.785 142.17C174.964 142.17 176.732 143.933 176.732 146.117V147.68C182.91 149.412 187.462 155.09 187.462 161.816ZM179.569 183.276C179.569 181.008 178.448 179.003 176.732 177.772V188.781C178.448 187.544 179.569 185.539 179.569 183.276ZM168.838 167.32V156.311C167.123 157.542 166.002 159.547 166.002 161.816C166.002 164.084 167.123 166.089 168.838 167.32Z" fill="black"/>
<path d="M174.075 100.085C176.253 100.085 178.022 101.854 178.022 104.032C178.022 106.216 176.253 107.979 174.075 107.979H162.965C160.787 107.979 159.019 106.216 159.019 104.032C159.019 101.854 160.787 100.085 162.965 100.085H174.075Z" fill="black"/>
<path d="M168.075 66.9209C169.165 68.8101 168.517 71.2256 166.628 72.315L162.981 74.42C162.36 74.7779 161.681 74.9515 161.008 74.9515C159.645 74.9515 158.318 74.2411 157.587 72.9781C156.498 71.0888 157.145 68.6733 159.034 67.584L162.681 65.4789C164.57 64.3896 166.986 65.0316 168.075 66.9209Z" fill="black"/>
<path d="M140.905 39.7506C142.794 40.8452 143.442 43.2554 142.352 45.1447L140.242 48.7969C139.51 50.0599 138.184 50.7703 136.821 50.7703C136.153 50.7703 135.474 50.5967 134.853 50.2388C132.964 49.1495 132.316 46.734 133.406 44.85L135.516 41.1978C136.605 39.3085 139.016 38.6612 140.905 39.7506Z" fill="black"/>
<path d="M107.74 163.211V174.315C107.74 176.493 105.972 178.261 103.793 178.261C101.614 178.261 99.8462 176.493 99.8462 174.315V163.211C99.8462 161.032 101.614 159.264 103.793 159.264C105.972 159.264 107.74 161.032 107.74 163.211Z" fill="black"/>
<path d="M107.74 65.2316V104.032C107.74 106.216 105.972 107.979 103.793 107.979H86.9528C84.7741 107.979 83.0059 106.216 83.0059 104.032C83.0059 101.854 84.7741 100.085 86.9528 100.085H99.846V65.2316C99.846 63.0529 101.614 61.2847 103.793 61.2847C105.972 61.2847 107.74 63.0529 107.74 65.2316Z" fill="black"/>
<path d="M107.74 33.756V44.86C107.74 47.0387 105.972 48.8069 103.793 48.8069C101.614 48.8069 99.8462 47.0387 99.8462 44.86V33.756C99.8462 31.5773 101.614 29.8091 103.793 29.8091C105.972 29.8091 107.74 31.5773 107.74 33.756Z" fill="black"/>
<path d="M74.1808 44.85C75.2701 46.734 74.6228 49.1495 72.7336 50.2388C72.1126 50.5967 71.4337 50.7703 70.7654 50.7703C69.4024 50.7703 68.0762 50.0599 67.3447 48.7969L65.2344 45.1447C64.1451 43.2554 64.7924 40.8452 66.6816 39.7506C68.5656 38.6612 70.9811 39.3085 72.0705 41.1978L74.1808 44.85Z" fill="black"/>
<path d="M72.7336 157.832C74.6228 158.921 75.2701 161.331 74.1808 163.221L72.0705 166.873C71.339 168.141 70.0128 168.846 68.6498 168.846C67.9815 168.846 67.3026 168.678 66.6816 168.32C64.7924 167.226 64.1451 164.815 65.2344 162.926L67.3447 159.274C68.4341 157.385 70.8443 156.737 72.7336 157.832Z" fill="black"/>
<path d="M48.5526 67.5844C50.4418 68.6737 51.0891 71.0892 49.9998 72.9785C49.2683 74.2415 47.9421 74.9519 46.5791 74.9519C45.9055 74.9519 45.2266 74.7783 44.6056 74.4204L40.9534 72.3154C39.0694 71.226 38.4221 68.8105 39.5115 66.9213C40.6008 65.032 43.0163 64.3847 44.9003 65.4793L48.5526 67.5844Z" fill="black"/>
<path d="M49.9998 135.092C51.0891 136.981 50.4418 139.397 48.5526 140.486L44.9003 142.591C44.2794 142.954 43.6005 143.123 42.9321 143.123C41.5691 143.123 40.243 142.412 39.5115 141.149C38.4221 139.26 39.0694 136.845 40.9534 135.755L44.6056 133.65C46.4949 132.561 48.9104 133.208 49.9998 135.092Z" fill="black"/>
<path d="M44.6163 100.085C46.8003 100.085 48.5633 101.854 48.5633 104.032C48.5633 106.216 46.8003 107.979 44.6163 107.979H33.5123C31.3336 107.979 29.5654 106.216 29.5654 104.032C29.5654 101.854 31.3336 100.085 33.5123 100.085H44.6163Z" fill="black"/>
</svg>
