<svg width="230" height="230" viewBox="0 0 230 230" fill="none" xmlns="http://www.w3.org/2000/svg">
<path d="M199.909 141.282C217.328 146.75 230 163.048 230 182.251C230 205.919 210.739 225.181 187.07 225.181H53.7811C24.1266 225.181 0 201.054 0 171.399C0 150.204 12.3327 131.831 30.1933 123.076V8.86019C30.1933 6.62964 32.0036 4.81934 34.2341 4.81934L170.007 4.83011C171.057 4.83011 172.092 5.22881 172.862 6.00465L198.724 31.8661C199.5 32.6366 199.909 34.7217 199.909 34.7217V141.282ZM221.918 182.251C221.918 163.032 206.283 147.397 187.07 147.397C185.836 147.397 184.559 147.467 183.272 147.607C182.065 147.736 180.863 147.316 180.001 146.465C179.134 145.613 178.703 144.412 178.816 143.205C178.967 141.653 179.042 140.118 179.042 138.636C179.042 112.543 157.809 91.3152 131.716 91.3152C108.624 91.3152 89.0173 107.807 85.095 130.533C84.8633 131.88 83.9689 133.017 82.719 133.556C81.469 134.1 80.0304 133.97 78.8882 133.221C71.4261 128.302 62.741 125.7 53.7811 125.7C28.5823 125.7 8.08171 146.201 8.08171 171.399C8.08171 196.598 28.5823 217.099 53.7811 217.099H187.07C206.283 217.099 221.918 201.463 221.918 182.251ZM191.827 139.584V38.7625H170.007C167.776 38.7625 165.966 36.9522 165.966 34.7217V12.901H38.275V119.903C43.1886 118.421 48.3933 117.618 53.7811 117.618C62.4069 117.618 70.8065 119.666 78.3926 123.577C80.6608 115.469 84.6801 108.19 89.9979 102.112H59.018C56.7875 102.112 54.9772 100.302 54.9772 98.0714C54.9772 95.8409 56.7875 94.0306 59.018 94.0306H98.7962C108.042 87.2096 119.458 83.2334 131.716 83.2334C143.994 83.2334 155.347 87.2474 164.544 94.0306H171.084C173.315 94.0306 175.125 95.8409 175.125 98.0714C175.125 99.6339 174.236 100.986 172.938 101.66C181.752 111.476 187.124 124.439 187.124 138.636C187.124 138.863 187.118 139.089 187.118 139.315C188.708 139.32 190.281 139.412 191.827 139.584ZM174.048 30.6808H186.111L174.048 18.6175V30.6808Z" fill="black"/>
<path d="M187.07 147.397C206.283 147.397 221.918 163.032 221.918 182.25C221.918 201.463 206.283 217.099 187.07 217.099H53.7809C28.5821 217.099 8.08154 196.598 8.08154 171.399C8.08154 146.201 28.5821 125.7 53.7809 125.7C62.7408 125.7 71.426 128.302 78.8881 133.221C80.0303 133.97 81.4688 134.099 82.7188 133.555C83.9688 133.017 84.8631 131.88 85.0948 130.533C89.0171 107.807 108.623 91.3149 131.715 91.3149C157.809 91.3149 179.042 112.543 179.042 138.636C179.042 140.118 178.967 141.653 178.816 143.205C178.703 144.412 179.134 145.613 180.001 146.465C180.863 147.316 182.065 147.736 183.271 147.607C184.559 147.467 185.836 147.397 187.07 147.397Z" fill="#3DD0F2"/>
<path d="M171.084 43.6118C173.315 43.6118 175.125 45.4221 175.125 47.6527C175.125 49.8832 173.315 51.6935 171.084 51.6935H59.0179C56.7874 51.6935 54.9771 49.8832 54.9771 47.6527C54.9771 45.4221 56.7874 43.6118 59.0179 43.6118H171.084Z" fill="black"/>
<path d="M171.084 68.8208C173.315 68.8208 175.125 70.6311 175.125 72.8617C175.125 75.0922 173.315 76.9025 171.084 76.9025H59.0179C56.7874 76.9025 54.9771 75.0922 54.9771 72.8617C54.9771 70.6311 56.7874 68.8208 59.0179 68.8208H171.084Z" fill="black"/>
</svg>
