<svg width="230" height="230" viewBox="0 0 230 230" fill="none" xmlns="http://www.w3.org/2000/svg">
<path d="M230 153.838V216.791C230 223.239 224.751 228.488 218.298 228.488H182.559C176.111 228.488 170.862 223.239 170.862 216.791V153.838C170.862 147.385 176.111 142.136 182.559 142.136H218.298C224.751 142.136 230 147.385 230 153.838ZM222.15 216.791V215.927H178.712V216.791C178.712 218.911 180.439 220.638 182.559 220.638H218.298C220.423 220.638 222.15 218.911 222.15 216.791ZM222.15 208.077V153.838C222.15 151.713 220.423 149.986 218.298 149.986H182.559C180.439 149.986 178.712 151.713 178.712 153.838V208.077H222.15Z" fill="black"/>
<path d="M222.15 215.928V216.791C222.15 218.911 220.423 220.638 218.298 220.638H182.558C180.439 220.638 178.712 218.911 178.712 216.791V215.928H222.15Z" fill="#B987D4"/>
<path d="M204.356 116.853V131.088C204.356 133.254 202.598 135.013 200.431 135.013C198.259 135.013 196.506 133.254 196.506 131.088V120.778H118.925V131.088C118.925 133.254 117.167 135.013 115 135.013C112.828 135.013 111.075 133.254 111.075 131.088V120.778H33.4942V131.088C33.4942 133.254 31.7358 135.013 29.5691 135.013C27.3973 135.013 25.644 133.254 25.644 131.088V116.853C25.644 114.686 27.3973 112.927 29.5691 112.927H111.075V94.8772C111.075 92.7054 112.828 90.9521 115 90.9521C117.167 90.9521 118.925 92.7054 118.925 94.8772V112.927H200.431C202.598 112.927 204.356 114.686 204.356 116.853Z" fill="black"/>
<path d="M164.98 13.1938V62.5714C164.98 69.0138 159.736 74.2578 153.293 74.2578H118.925V78.9679H143.784C145.951 78.9679 147.709 80.7263 147.709 82.893C147.709 85.0596 145.951 86.8181 143.784 86.8181H86.216C84.0441 86.8181 82.2909 85.0596 82.2909 82.893C82.2909 80.7263 84.0441 78.9679 86.216 78.9679H111.075V74.2578H76.7016C70.2592 74.2578 65.0205 69.0138 65.0205 62.5714V13.1938C65.0205 6.75139 70.2592 1.5127 76.7016 1.5127H153.293C159.736 1.5127 164.98 6.75139 164.98 13.1938ZM157.129 62.5714V59.85H72.8707V62.5714C72.8707 64.6858 74.5873 66.4076 76.7016 66.4076H153.293C155.408 66.4076 157.129 64.6858 157.129 62.5714ZM157.129 51.9999V13.1938C157.129 11.0795 155.408 9.36288 153.293 9.36288H76.7016C74.5873 9.36288 72.8707 11.0795 72.8707 13.1938V51.9999H157.129Z" fill="black"/>
<path d="M157.129 59.8506V62.572C157.129 64.6863 155.407 66.4081 153.293 66.4081H76.7015C74.5872 66.4081 72.8706 64.6863 72.8706 62.572V59.8506H157.129Z" fill="#3DD0F2"/>
<path d="M144.569 153.838V216.791C144.569 223.239 139.32 228.488 132.867 228.488H97.1279C90.6803 228.488 85.4312 223.239 85.4312 216.791V153.838C85.4312 147.385 90.6803 142.136 97.1279 142.136H132.867C139.32 142.136 144.569 147.385 144.569 153.838ZM136.719 216.791V215.927H93.2813V216.791C93.2813 218.911 95.0084 220.638 97.1279 220.638H132.867C134.992 220.638 136.719 218.911 136.719 216.791ZM136.719 208.077V153.838C136.719 151.713 134.992 149.986 132.867 149.986H97.1279C95.0084 149.986 93.2813 151.713 93.2813 153.838V208.077H136.719Z" fill="black"/>
<path d="M136.719 215.928V216.791C136.719 218.911 134.992 220.638 132.867 220.638H97.1278C95.0083 220.638 93.2812 218.911 93.2812 216.791V215.928H136.719Z" fill="#B987D4"/>
<path d="M59.1381 153.838V216.791C59.1381 223.239 53.8889 228.488 47.4361 228.488H11.6968C5.24916 228.488 0 223.239 0 216.791V153.838C0 147.385 5.24916 142.136 11.6968 142.136H47.4361C53.8889 142.136 59.1381 147.385 59.1381 153.838ZM51.2879 216.791V215.927H7.85019V216.791C7.85019 218.911 9.57723 220.638 11.6968 220.638H47.4361C49.5608 220.638 51.2879 218.911 51.2879 216.791ZM51.2879 208.077V153.838C51.2879 151.713 49.5608 149.986 47.4361 149.986H11.6968C9.57723 149.986 7.85019 151.713 7.85019 153.838V208.077H51.2879Z" fill="black"/>
<path d="M51.2878 215.928V216.791C51.2878 218.911 49.5608 220.638 47.436 220.638H11.6967C9.57714 220.638 7.8501 218.911 7.8501 216.791V215.928H51.2878Z" fill="#B987D4"/>
</svg>
