<svg width="230" height="230" viewBox="0 0 230 230" fill="none" xmlns="http://www.w3.org/2000/svg">
<path d="M196.772 135.246C215.147 135.548 230 150.586 230 169.029C230 187.662 214.84 202.817 196.207 202.817H149.28C147.259 202.817 145.627 201.185 145.627 199.164V155.204C145.627 153.187 147.259 151.55 149.28 151.55H153.411L140.366 128.957L127.32 151.55H131.456C133.472 151.55 135.109 153.187 135.109 155.204V199.164C135.109 201.185 133.472 202.817 131.456 202.817H92.9324C69.6615 202.817 50.736 183.892 50.736 160.626C50.736 152.398 53.1035 144.716 57.1907 138.217H33.7883C15.1599 138.217 0 123.062 0 104.429C0 85.9857 14.853 70.9476 33.2232 70.6456C33.2232 70.6407 33.2232 70.6407 33.2232 70.6358C33.2232 46.6732 52.7187 27.1826 76.6813 27.1826C78.1086 27.1826 79.5506 27.2557 81.0802 27.4067C82.9508 27.5918 84.3733 29.1653 84.3733 31.0457V79.3752C84.3733 81.392 82.7365 83.0288 80.7197 83.0288H76.5887L89.6296 105.618L102.675 83.0288H98.5443C96.5275 83.0288 94.8907 81.392 94.8907 79.3752V37.3834C94.8907 36.0389 95.6312 34.8015 96.8149 34.1634C97.9987 33.5252 99.4358 33.5934 100.556 34.329C109.12 39.9799 115.414 48.5098 118.317 58.2185C124.114 55.3347 130.511 53.8294 137.068 53.8294C160.334 53.8294 179.264 72.7549 179.264 96.0209C179.264 97.4336 179.186 98.8463 179.05 100.24C189.791 108.161 196.772 120.899 196.772 135.236C196.772 135.241 196.772 135.241 196.772 135.246ZM222.693 169.029C222.693 154.429 210.811 142.548 196.207 142.548C195.272 142.548 194.302 142.602 193.323 142.709C192.237 142.826 191.145 142.446 190.366 141.676C189.582 140.901 189.192 139.82 189.294 138.729C189.411 137.54 189.465 136.366 189.465 135.236C189.465 115.307 173.253 99.0899 153.319 99.0899C135.679 99.0899 120.704 111.687 117.709 129.049C117.499 130.262 116.69 131.29 115.56 131.782C114.43 132.269 113.129 132.157 112.097 131.475C106.397 127.719 99.7719 125.737 92.9324 125.737C73.6951 125.737 58.0432 141.389 58.0432 160.626C58.0432 179.863 73.6951 195.51 92.9324 195.51H127.802V158.858H120.992C119.686 158.858 118.483 158.161 117.83 157.031C117.178 155.901 117.178 154.507 117.83 153.377L137.204 119.823C137.857 118.693 139.06 117.996 140.366 117.996C141.671 117.996 142.879 118.693 143.532 119.823L162.901 153.377C163.554 154.507 163.554 155.901 162.901 157.031C162.248 158.161 161.045 158.858 159.739 158.858H152.934V195.51H196.207C210.811 195.51 222.693 183.634 222.693 169.029ZM153.319 91.7827C159.983 91.7827 166.306 93.2929 171.957 95.9868C171.937 76.769 156.295 61.1365 137.068 61.1365C130.218 61.1365 123.593 63.1192 117.903 66.8751C116.876 67.5522 115.57 67.6691 114.44 67.1771C113.31 66.69 112.501 65.6621 112.291 64.4491C111.02 57.0835 107.444 50.3025 102.198 45.051V75.7216H109.003C110.309 75.7216 111.517 76.4182 112.165 77.5484C112.818 78.6786 112.818 80.0718 112.165 81.202L92.7911 114.752C92.4647 115.317 92.002 115.775 91.4564 116.086C90.9108 116.403 90.2823 116.578 89.6296 116.578C88.324 116.578 87.1159 115.882 86.4631 114.752L67.0943 81.202C66.4415 80.0718 66.4415 78.6786 67.0943 77.5484C67.7471 76.4182 68.9552 75.7216 70.2607 75.7216H77.0661V34.4898C76.9346 34.4898 76.8079 34.4898 76.6813 34.4898C56.7474 34.4898 40.5303 50.7068 40.5303 70.6358C40.5303 71.7757 40.5888 72.9449 40.7009 74.1189C40.808 75.215 40.4183 76.2964 39.634 77.071C38.8546 77.8456 37.7634 78.2255 36.6722 78.1037C35.7125 78.0014 34.7431 77.9479 33.7883 77.9479C19.1886 77.9479 7.30715 89.8244 7.30715 104.429C7.30715 119.029 19.1886 130.91 33.7883 130.91H63.0023C70.6504 123.208 81.2409 118.429 92.9324 118.429C99.4796 118.429 105.871 119.935 111.673 122.819C117.065 104.561 133.843 91.7827 153.319 91.7827Z" fill="black"/>
<path d="M196.207 142.548C210.811 142.548 222.693 154.429 222.693 169.029C222.693 183.634 210.811 195.51 196.207 195.51H152.934V158.858H159.739C161.045 158.858 162.248 158.161 162.901 157.031C163.553 155.901 163.553 154.507 162.901 153.377L143.532 119.823C142.879 118.693 141.671 117.996 140.365 117.996C139.06 117.996 137.857 118.693 137.204 119.823L117.83 153.377C117.177 154.507 117.177 155.901 117.83 157.031C118.483 158.161 119.686 158.858 120.992 158.858H127.802V195.51H92.9322C73.6949 195.51 58.043 179.863 58.043 160.626C58.043 141.389 73.6949 125.737 92.9322 125.737C99.7717 125.737 106.397 127.719 112.096 131.475C113.129 132.157 114.43 132.269 115.56 131.782C116.69 131.29 117.499 130.262 117.708 129.049C120.704 111.687 135.679 99.0898 153.319 99.0898C173.252 99.0898 189.465 115.307 189.465 135.236C189.465 136.366 189.411 137.54 189.294 138.729C189.192 139.82 189.581 140.901 190.366 141.676C191.145 142.446 192.236 142.826 193.323 142.709C194.302 142.602 195.271 142.548 196.207 142.548Z" fill="#3DD0F2"/>
<path d="M171.957 95.9872C166.306 93.2933 159.983 91.7832 153.319 91.7832C133.843 91.7832 117.065 104.561 111.673 122.819C105.871 119.935 99.4796 118.43 92.9324 118.43C81.2409 118.43 70.6504 123.209 63.0023 130.911H33.7883C19.1886 130.911 7.30713 119.029 7.30713 104.429C7.30713 89.8249 19.1886 77.9483 33.7883 77.9483C34.7431 77.9483 35.7125 78.0019 36.6721 78.1042C37.7633 78.226 38.8545 77.846 39.634 77.0715C40.4183 76.2969 40.808 75.2154 40.7008 74.1194C40.5888 72.9453 40.5303 71.7762 40.5303 70.6363C40.5303 50.7072 56.7473 34.4902 76.6813 34.4902C76.8079 34.4902 76.9346 34.4902 77.0661 34.4902V75.7221H70.2607C68.9552 75.7221 67.747 76.4187 67.0943 77.5489C66.4415 78.679 66.4415 80.0723 67.0943 81.2024L86.4631 114.752C87.1159 115.882 88.324 116.579 89.6295 116.579C90.2823 116.579 90.9107 116.403 91.4563 116.087C92.0019 115.775 92.4647 115.317 92.7911 114.752L112.165 81.2024C112.818 80.0723 112.818 78.679 112.165 77.5489C111.517 76.4187 110.309 75.7221 109.003 75.7221H102.198V45.0515C107.444 50.3029 111.02 57.084 112.291 64.4496C112.501 65.6626 113.31 66.6904 114.44 67.1776C115.57 67.6696 116.875 67.5527 117.903 66.8755C123.593 63.1197 130.218 61.137 137.068 61.137C156.295 61.137 171.937 76.7694 171.957 95.9872Z" fill="#B987D4"/>
</svg>
