<svg width="230" height="230" viewBox="0 0 230 230" fill="none" xmlns="http://www.w3.org/2000/svg">
<path d="M230 96.3212V188.079C230 195.2 224.206 200.994 217.09 200.994H166.364V208.648C166.364 213.899 162.093 218.171 156.841 218.171H116.322C111.07 218.171 106.799 213.899 106.799 208.648V172.299H54.3541C52.2686 172.299 50.5851 170.611 50.5851 168.53C50.5851 166.45 52.2686 164.761 54.3541 164.761H63.5103L69.6211 158.183H16.2319C7.28172 158.183 0 150.901 0 141.951V28.0619C0 19.1118 7.28172 11.8301 16.2319 11.8301H204.622C213.572 11.8301 220.854 19.1118 220.854 28.0619V83.9689C226.141 85.582 230 90.5119 230 96.3212ZM222.462 188.079V187.049H166.364V193.456H217.09C220.05 193.456 222.462 191.044 222.462 188.079ZM222.462 179.511V104.889H135.78V128.162H156.841C162.093 128.162 166.364 132.433 166.364 137.685V179.511H222.462ZM222.462 97.3514V96.3212C222.462 93.3563 220.05 90.9441 217.09 90.9441H141.157C138.192 90.9441 135.78 93.3563 135.78 96.3212V97.3514H222.462ZM213.316 83.4061V31.831H7.53802V137.675H106.799C106.804 132.428 111.075 128.162 116.322 128.162H128.242V96.3212C128.242 89.2003 134.036 83.4061 141.157 83.4061H213.316ZM8.4074 24.2929H212.441C211.034 21.3833 208.064 19.3681 204.622 19.3681H16.2319C12.7895 19.3681 9.8145 21.3833 8.4074 24.2929ZM158.826 208.648V203.698H114.337V208.648C114.337 209.743 115.226 210.633 116.322 210.633H156.841C157.932 210.633 158.826 209.743 158.826 208.648ZM158.826 196.16V150.178H114.337V196.16H158.826ZM158.826 142.64V137.685C158.826 136.589 157.932 135.7 156.841 135.7H116.322C115.226 135.7 114.337 136.589 114.337 137.685V142.64H158.826ZM106.799 164.761V158.183H79.913L73.7972 164.761H106.799ZM106.799 150.645V145.213H8.17624C9.46775 148.394 12.5885 150.645 16.2319 150.645H106.799Z" fill="black"/>
<path d="M222.462 187.049V188.079C222.462 191.044 220.05 193.456 217.09 193.456H166.364V187.049H222.462Z" fill="#B987D4"/>
<path d="M222.461 104.89V179.511H166.364V137.685C166.364 132.434 162.092 128.162 156.841 128.162H135.779V104.89H222.461Z" fill="white"/>
<path d="M222.461 96.3215V97.3517H135.779V96.3215C135.779 93.3565 138.191 90.9443 141.156 90.9443H217.089C220.049 90.9443 222.461 93.3565 222.461 96.3215Z" fill="#B987D4"/>
<path d="M213.316 31.8311V83.4062H141.157C134.036 83.4062 128.242 89.2004 128.242 96.3213V128.162H116.322C111.075 128.162 106.804 132.428 106.799 137.675H7.53809V31.8311H213.316Z" fill="white"/>
<path d="M212.441 24.293H8.40723C9.81432 21.3833 12.7893 19.3682 16.2317 19.3682H204.622C208.064 19.3682 211.034 21.3833 212.441 24.293Z" fill="#3DD0F2"/>
<path d="M158.826 203.698V208.648C158.826 209.744 157.932 210.633 156.841 210.633H116.322C115.226 210.633 114.337 209.744 114.337 208.648V203.698H158.826Z" fill="#B987D4"/>
<path d="M158.826 150.178H114.337V196.16H158.826V150.178Z" fill="white"/>
<path d="M158.826 137.685V142.64H114.337V137.685C114.337 136.59 115.226 135.7 116.322 135.7H156.841C157.932 135.7 158.826 136.59 158.826 137.685Z" fill="#B987D4"/>
<path d="M106.799 158.184V164.762H73.7974L79.9132 158.184H106.799Z" fill="#3DD0F2"/>
<path d="M106.799 145.213V150.645H16.2324C12.589 150.645 9.46827 148.394 8.17676 145.213H106.799Z" fill="#3DD0F2"/>
</svg>
