<svg width="230" height="230" viewBox="0 0 230 230" fill="none" xmlns="http://www.w3.org/2000/svg">
<path d="M230 99.88V217.846C230 219.949 228.293 221.655 226.191 221.655H3.80929C1.70656 221.655 0 219.949 0 217.846V99.88C0 98.5543 0.675515 97.3861 1.70656 96.7056L31.0686 77.2375V12.1545C31.0686 10.0518 32.7752 8.34521 34.8779 8.34521H195.117C197.22 8.34521 198.926 10.0518 198.926 12.1545V77.2325L228.293 96.7056C229.319 97.3861 230 98.5543 230 99.88ZM222.381 210.751V106.214L134.778 152.682L222.381 210.751ZM198.926 96.0707H213.549L198.926 86.3748V96.0707ZM16.446 214.037H213.549L115 148.71L16.446 214.037ZM198.926 110.033L210.877 103.689H198.926V110.033ZM191.308 114.071V15.9638H38.6872V114.071L102.445 147.892L112.892 140.964C114.167 140.121 115.828 140.121 117.103 140.964L127.55 147.892L191.308 114.071ZM7.61859 210.751L95.2171 152.682L7.61859 106.214V210.751ZM31.0686 110.028V103.689H19.1176L31.0686 110.028ZM31.0686 96.0707V86.3798L16.4511 96.0707H31.0686Z" fill="black"/>
<path d="M222.381 106.213V210.751L134.778 152.682L222.381 106.213Z" fill="#3DD0F2"/>
<path d="M213.549 96.0709H198.926V86.375L213.549 96.0709Z" fill="#3DD0F2"/>
<path d="M213.549 214.037H16.4458L115 148.71L213.549 214.037Z" fill="#3DD0F2"/>
<path d="M210.877 103.689L198.926 110.033V103.689H210.877Z" fill="#3DD0F2"/>
<path d="M191.308 15.9639V114.071L127.55 147.892L117.103 140.965C115.828 140.121 114.167 140.121 112.892 140.965L102.444 147.892L38.687 114.071V15.9639H191.308ZM149.157 76.0542V73.2404C149.157 54.4072 133.833 39.0837 114.995 39.0837C96.1616 39.0837 80.8381 54.4072 80.8381 73.2404V74.3679C80.8381 93.2011 96.1616 108.525 114.995 108.525H145.347C147.45 108.525 149.157 106.818 149.157 104.715C149.157 102.613 147.45 100.906 145.347 100.906H114.995C100.362 100.906 88.4567 89.0007 88.4567 74.3679V73.2404C88.4567 58.6076 100.362 46.7023 114.995 46.7023C129.633 46.7023 141.538 58.6076 141.538 73.2404V76.0542C141.538 79.2184 138.958 81.7986 135.793 81.7986C132.624 81.7986 130.044 79.2184 130.044 76.0542V70.7161C130.044 61.6398 122.664 54.26 113.593 54.26C104.517 54.26 97.1368 61.6398 97.1368 70.7161C97.1368 79.7873 104.517 87.1672 113.593 87.1672C117.743 87.1672 121.532 85.6231 124.432 83.0785C126.788 86.8777 130.999 89.4172 135.793 89.4172C143.158 89.4172 149.157 83.4239 149.157 76.0542Z" fill="white"/>
<path d="M149.157 73.2406V76.0544C149.157 83.4242 143.158 89.4174 135.794 89.4174C130.999 89.4174 126.789 86.8779 124.432 83.0788C121.532 85.6234 117.743 87.1674 113.593 87.1674C104.517 87.1674 97.1371 79.7875 97.1371 70.7163C97.1371 61.6401 104.517 54.2602 113.593 54.2602C122.664 54.2602 130.044 61.6401 130.044 70.7163V76.0544C130.044 79.2187 132.624 81.7989 135.794 81.7989C138.958 81.7989 141.538 79.2187 141.538 76.0544V73.2406C141.538 58.6079 129.633 46.7026 114.995 46.7026C100.362 46.7026 88.457 58.6079 88.457 73.2406V74.3682C88.457 89.001 100.362 100.906 114.995 100.906H145.347C147.45 100.906 149.157 102.613 149.157 104.716C149.157 106.818 147.45 108.525 145.347 108.525H114.995C96.1619 108.525 80.8384 93.2013 80.8384 74.3682V73.2406C80.8384 54.4075 96.1619 39.084 114.995 39.084C133.833 39.084 149.157 54.4075 149.157 73.2406ZM122.426 70.7163C122.426 65.8405 118.464 61.8788 113.593 61.8788C108.717 61.8788 104.756 65.8405 104.756 70.7163C104.756 75.5872 108.717 79.5488 113.593 79.5488C118.464 79.5488 122.426 75.5872 122.426 70.7163Z" fill="#B987D4"/>
<path d="M113.593 61.8784C118.464 61.8784 122.425 65.8401 122.425 70.716C122.425 75.5868 118.464 79.5484 113.593 79.5484C108.717 79.5484 104.755 75.5868 104.755 70.716C104.755 65.8401 108.717 61.8784 113.593 61.8784Z" fill="white"/>
<path d="M95.2171 152.682L7.61865 210.751V106.213L95.2171 152.682Z" fill="#3DD0F2"/>
<path d="M31.0687 103.689V110.028L19.1177 103.689H31.0687Z" fill="#3DD0F2"/>
<path d="M31.0687 86.3799V96.0707H16.4512L31.0687 86.3799Z" fill="#3DD0F2"/>
</svg>
