<svg width="35" height="35" viewBox="0 0 35 35" fill="none" xmlns="http://www.w3.org/2000/svg">
<path d="M34.8539 14.6093C34.8223 14.4621 34.7431 14.3319 34.6309 14.2423L31.8238 11.8822V6.77822C31.8238 5.9676 31.2178 5.31043 30.4702 5.31043H24.0101L17.8577 0.13143C17.6495 -0.0438098 17.3583 -0.0438098 17.1501 0.13143L10.9977 5.31043H4.53757C3.79005 5.31043 3.18403 5.9676 3.18403 6.77822V11.8738L0.33851 14.2423C0.226996 14.3348 0.150475 14.4682 0.123173 14.6176C0.0386728 15.107 -0.002568 15.6041 0.000123708 16.1021V29.1622C0.000123708 33.4655 2.77643 35 5.38354 35H29.6166C33.5849 35 35 31.9893 35 29.1622V16.1021C34.9998 15.6003 34.9509 15.1 34.8539 14.6093ZM31.8238 13.4751L33.7464 15.0763C33.7761 15.2974 33.7941 15.5202 33.8003 15.7435L31.8238 16.9861V13.4751ZM17.4962 1.42409L22.1106 5.31043H12.8819L17.4962 1.42409ZM4.32224 6.77822C4.32224 6.66303 4.40827 6.56973 4.5145 6.56973H30.4779C30.5842 6.56973 30.6702 6.66303 30.6702 6.77822V17.7117L22.1106 23.0241L17.8346 19.5631L17.7346 19.5131H17.627H17.4116H17.3116L17.204 19.5631L12.8819 23.0491L4.32224 17.72V6.77822ZM1.22293 15.0846L3.16096 13.4584V16.9944L1.17678 15.7518C1.17678 15.5266 1.17678 15.2931 1.22293 15.0846ZM1.15371 29.1622V17.1863L11.8359 23.8581L1.83817 31.9393C1.35578 31.1102 1.11709 30.1417 1.15371 29.1622ZM29.6089 33.6656L5.37585 33.7073C4.41712 33.7275 3.47454 33.437 2.66876 32.8734L17.4962 20.8224L32.3314 32.8317C31.5339 33.4283 30.5765 33.7216 29.6089 33.6656ZM33.831 29.1622C33.8342 30.138 33.5894 31.0961 33.1235 31.931L23.1257 23.8414L33.831 17.1696V29.1622Z" fill="#00A2CE"/>
</svg>
