<svg width="230" height="230" viewBox="0 0 230 230" fill="none" xmlns="http://www.w3.org/2000/svg">
<path d="M230 91.839V175.824C230 196.444 213.227 213.218 192.606 213.218H141.413C139.56 219.875 133.449 224.775 126.211 224.775H110.801C102.105 224.775 95.0246 217.696 95.0246 208.993C95.0246 200.291 102.105 193.211 110.801 193.211H126.211C133.449 193.211 139.56 198.112 141.413 204.769H192.606C208.569 204.769 221.551 191.786 221.551 175.824V172.749C217.338 176.359 211.869 178.55 205.893 178.55H187.126C181.539 178.55 176.999 174.005 176.999 168.417V101.899C176.999 96.3168 181.539 91.7714 187.126 91.7714H205.893C211.864 91.7714 217.333 93.9568 221.551 97.5672V91.839C221.551 55.7521 194.189 25.7932 158.665 22.2448C156.75 26.2776 152.65 29.0826 147.896 29.0826H82.1095C77.3557 29.0826 73.2553 26.2776 71.3346 22.2448C35.8166 25.7989 8.44864 55.7521 8.44864 91.839V97.5728C12.6673 93.9625 18.1364 91.7714 24.1068 91.7714H42.874C48.4614 91.7714 53.0067 96.3168 53.0067 101.899V168.417C53.0067 174.005 48.4614 178.55 42.874 178.55H24.1068C10.8143 178.55 0 167.736 0 154.443V91.839C0 51.3363 30.7587 17.7276 70.6587 13.8243C72.1063 8.86218 76.6854 5.22363 82.1095 5.22363H147.896C153.315 5.22363 157.899 8.86218 159.341 13.8243C199.241 17.7276 230 51.3307 230 91.839ZM221.551 154.443V115.878C221.551 107.244 214.528 100.22 205.893 100.22H197.253V170.102H205.893C214.528 170.102 221.551 163.078 221.551 154.443ZM188.804 170.102V100.22H187.126C186.202 100.22 185.448 100.975 185.448 101.899V168.417C185.448 169.347 186.202 170.102 187.126 170.102H188.804ZM151.377 17.1531C151.377 15.2324 149.811 13.6723 147.896 13.6723H82.1095C80.1888 13.6723 78.6286 15.2324 78.6286 17.1531C78.6286 19.0738 80.1888 20.6339 82.1095 20.6339H147.896C149.811 20.6339 151.377 19.0738 151.377 17.1531ZM133.545 208.993C133.545 204.949 130.255 201.66 126.211 201.66H110.801C106.763 201.66 103.473 204.949 103.473 208.993C103.473 213.038 106.763 216.327 110.801 216.327H126.211C130.255 216.327 133.545 213.038 133.545 208.993ZM44.5581 168.417V101.899C44.5581 100.975 43.8034 100.22 42.874 100.22H41.1955V170.102H42.874C43.8034 170.102 44.5581 169.347 44.5581 168.417ZM32.7469 170.102V100.22H24.1068C15.4723 100.22 8.44864 107.244 8.44864 115.878V154.443C8.44864 163.078 15.4723 170.102 24.1068 170.102H32.7469Z" fill="black"/>
<path d="M221.551 115.878V154.443C221.551 163.078 214.528 170.101 205.893 170.101H197.253V100.22H205.893C214.528 100.22 221.551 107.243 221.551 115.878Z" fill="#3DD0F2"/>
<path d="M147.896 13.6719C149.811 13.6719 151.377 15.2321 151.377 17.1527C151.377 19.0734 149.811 20.6335 147.896 20.6335H82.1097C80.1891 20.6335 78.6289 19.0734 78.6289 17.1527C78.6289 15.2321 80.1891 13.6719 82.1097 13.6719H147.896Z" fill="white"/>
<path d="M126.211 201.66C130.255 201.66 133.545 204.949 133.545 208.994C133.545 213.038 130.255 216.327 126.211 216.327H110.801C106.762 216.327 103.473 213.038 103.473 208.994C103.473 204.949 106.762 201.66 110.801 201.66H126.211Z" fill="#B987D4"/>
<path d="M32.747 100.22V170.101H24.1069C15.4724 170.101 8.44873 163.078 8.44873 154.443V115.878C8.44873 107.243 15.4724 100.22 24.1069 100.22H32.747Z" fill="#3DD0F2"/>
</svg>
