<svg width="230" height="230" viewBox="0 0 230 230" fill="none" xmlns="http://www.w3.org/2000/svg">
<g clip-path="url(#clip0)">
<path d="M206.187 91.1865C208.275 91.1865 209.97 92.8817 209.97 94.9704C209.97 97.0591 208.275 98.7543 206.187 98.7543H184.997C182.903 98.7543 181.213 97.0591 181.213 94.9704C181.213 92.8817 182.903 91.1865 184.997 91.1865H206.187Z" fill="black"/>
<path d="M197.247 47.4852C198.291 49.2964 197.671 51.6071 195.864 52.6565L177.52 63.2464C176.925 63.5895 176.274 63.7509 175.628 63.7509C174.321 63.7509 173.05 63.0748 172.349 61.859C171.304 60.0477 171.925 57.737 173.736 56.6927L192.081 46.1028C193.887 45.0534 196.202 45.674 197.247 47.4852Z" fill="black"/>
<path d="M195.864 137.289C197.671 138.334 198.291 140.644 197.247 142.456C196.546 143.672 195.274 144.348 193.967 144.348C193.327 144.348 192.676 144.186 192.081 143.843L173.736 133.253C171.925 132.204 171.304 129.893 172.349 128.082C173.393 126.271 175.709 125.65 177.52 126.7L195.864 137.289Z" fill="black"/>
<path d="M174.024 94.3097C174.024 107.296 169.886 119.621 162.056 129.944C148.848 147.365 141.941 167.722 141.941 188.811V211.636C141.941 221.761 133.702 230 123.577 230H106.499C96.373 230 88.1342 221.761 88.1342 211.636V188.811C88.1342 167.949 80.9852 147.077 68.009 130.035C60.0174 119.541 55.8551 106.998 55.9762 93.7648C56.1124 78.3266 62.2322 63.7561 73.2005 52.7273C84.1687 41.7036 98.714 35.5081 114.147 35.2911C130.07 35.059 145.099 41.0981 156.436 52.2783C167.778 63.4584 174.024 78.3871 174.024 94.3097ZM156.027 125.368C162.848 116.372 166.456 105.631 166.456 94.3097C166.456 80.4304 161.012 67.4138 151.123 57.6665C141.24 47.9192 128.153 42.6722 114.253 42.8589C86.54 43.2474 63.7912 66.1172 63.544 93.8304C63.438 105.369 67.0655 116.302 74.0329 125.454C87.7104 143.415 95.3741 165.356 95.6919 187.388H134.303C134.611 165.144 142.108 143.727 156.027 125.368ZM134.373 211.636V210.44L95.702 206.01V209.073L134.202 213.482C134.308 212.882 134.373 212.266 134.373 211.636ZM134.373 202.822V194.956H95.702V198.392L134.373 202.822ZM129.621 220.576L97.044 216.842C98.8855 220.172 102.432 222.432 106.499 222.432H123.577C125.817 222.432 127.895 221.746 129.621 220.576Z" fill="black"/>
<path d="M162.485 12.7239C164.291 13.7683 164.912 16.079 163.867 17.8902L153.278 36.2345C152.576 37.4504 151.305 38.1264 149.998 38.1264C149.357 38.1264 148.707 37.965 148.111 37.6219C146.3 36.5776 145.679 34.2618 146.724 32.4506L157.314 14.1063C158.358 12.2951 160.674 11.6745 162.485 12.7239Z" fill="black"/>
<path d="M160.401 94.3094C160.401 95.7271 160.336 97.1548 160.21 98.5524C160.028 100.52 158.378 101.993 156.446 101.993C156.33 101.993 156.214 101.988 156.093 101.978C154.014 101.786 152.48 99.9448 152.672 97.8612C152.778 96.6907 152.834 95.495 152.834 94.3094C152.834 73.4475 135.862 56.4755 115 56.4755C112.911 56.4755 111.216 54.7803 111.216 52.6916C111.216 50.6029 112.911 48.9077 115 48.9077C140.034 48.9077 160.401 69.2751 160.401 94.3094Z" fill="black"/>
<path d="M154.756 107.266C156.678 108.093 157.561 110.318 156.734 112.24C155.296 115.585 153.434 118.769 151.204 121.71C150.463 122.694 149.333 123.209 148.187 123.209C147.39 123.209 146.588 122.956 145.902 122.442C144.237 121.175 143.914 118.804 145.175 117.139C147.037 114.682 148.586 112.028 149.787 109.243C150.614 107.326 152.839 106.438 154.756 107.266Z" fill="black"/>
<path d="M134.373 210.44V211.636C134.373 212.266 134.308 212.882 134.202 213.482L95.7021 209.073V206.01L134.373 210.44Z" fill="#3DD0F2"/>
<path d="M134.373 194.956V202.822L95.7021 198.392V194.956H134.373Z" fill="#3DD0F2"/>
<path d="M97.0439 216.842L129.621 220.576C127.895 221.746 125.817 222.432 123.577 222.432H106.499C102.432 222.432 98.8854 220.172 97.0439 216.842Z" fill="#3DD0F2"/>
<path d="M118.784 3.78389V24.9737C118.784 27.0624 117.088 28.7576 115 28.7576C112.906 28.7576 111.216 27.0624 111.216 24.9737V3.78389C111.216 1.69518 112.906 0 115 0C117.088 0 118.784 1.69518 118.784 3.78389Z" fill="black"/>
<path d="M103.446 152.511C104.097 154.499 103.017 156.633 101.03 157.289C100.641 157.415 100.243 157.481 99.849 157.481C98.2598 157.481 96.7765 156.467 96.2569 154.877C92.3267 142.925 86.4692 131.791 78.8459 121.786C77.2365 119.672 75.8087 117.417 74.6029 115.086C73.6443 113.229 74.3708 110.944 76.2275 109.985C78.0841 109.027 80.3696 109.753 81.3281 111.61C82.3321 113.552 83.5228 115.434 84.8699 117.2C93.0027 127.875 99.2487 139.757 103.446 152.511Z" fill="black"/>
<path d="M83.2707 32.4506C84.315 34.2618 83.6945 36.5776 81.8883 37.6219C81.293 37.965 80.6421 38.1264 79.9964 38.1264C78.6897 38.1264 77.4183 37.4504 76.717 36.2345L66.1271 17.8902C65.0828 16.079 65.7034 13.7683 67.5146 12.7239C69.3207 11.6745 71.6365 12.2951 72.6808 14.1063L83.2707 32.4506Z" fill="black"/>
<path d="M77.5796 100.001C77.8874 102.069 76.4646 103.996 74.3961 104.304C74.2094 104.329 74.0177 104.345 73.8361 104.345C71.9896 104.345 70.3751 102.997 70.0976 101.121C69.7444 98.7494 69.5729 96.3126 69.5981 93.8859C69.6133 91.7972 71.3387 90.1222 73.4123 90.1373C75.5061 90.1575 77.1811 91.8678 77.1659 93.9565C77.1457 95.9897 77.287 98.0229 77.5796 100.001Z" fill="black"/>
<path d="M56.2639 56.6927C58.07 57.737 58.6906 60.0477 57.6462 61.859C56.945 63.0748 55.6736 63.7509 54.3669 63.7509C53.7261 63.7509 53.0753 63.5895 52.48 63.2464L34.1357 52.6565C32.3244 51.6071 31.7039 49.2964 32.7482 47.4852C33.7926 45.674 36.1083 45.0534 37.9196 46.1028L56.2639 56.6927Z" fill="black"/>
<path d="M57.6462 128.082C58.6906 129.893 58.07 132.204 56.2639 133.253L37.9196 143.843C37.3242 144.186 36.6734 144.348 36.0276 144.348C34.7209 144.348 33.4495 143.672 32.7482 142.456C31.7039 140.644 32.3244 138.334 34.1357 137.289L52.48 126.7C54.2861 125.65 56.6019 126.271 57.6462 128.082Z" fill="black"/>
<path d="M45.003 91.1865C47.0917 91.1865 48.7869 92.8817 48.7869 94.9704C48.7869 97.0591 47.0917 98.7543 45.003 98.7543H23.8132C21.7194 98.7543 20.0293 97.0591 20.0293 94.9704C20.0293 92.8817 21.7194 91.1865 23.8132 91.1865H45.003Z" fill="black"/>
</g>
<defs>
<clipPath id="clip0">
<rect width="230" height="230" fill="white"/>
</clipPath>
</defs>
</svg>
