<svg width="230" height="230" viewBox="0 0 230 230" fill="none" xmlns="http://www.w3.org/2000/svg">
<path d="M136.888 0C162.373 0 183.108 20.7351 183.108 46.2205C183.108 71.7059 162.373 92.441 136.888 92.441H127.472V174.379H142.851C144.925 174.379 146.609 176.063 146.609 178.137V193.42H160.539C162.614 193.42 164.297 195.104 164.297 197.179V220.229C164.297 222.303 162.614 223.987 160.539 223.987H127.472V226.242C127.472 228.316 125.789 230 123.714 230H106.286C104.207 230 102.528 228.316 102.528 226.242V92.441H93.1126C67.6272 92.441 46.8921 71.7059 46.8921 46.2205C46.8921 20.7351 67.6272 0 93.1126 0H136.888ZM175.592 46.2205C175.592 24.8791 158.229 7.51634 136.888 7.51634H93.1126C71.7712 7.51634 54.4084 24.8791 54.4084 46.2205C54.4084 67.5619 71.7712 84.9246 93.1126 84.9246H136.888C158.229 84.9246 175.592 67.5619 175.592 46.2205ZM156.781 216.471V200.937H142.851C140.776 200.937 139.093 199.253 139.093 197.179V181.895H127.472V216.471H156.781ZM119.956 222.484V92.441H110.044V222.484H119.956Z" fill="black"/>
<path d="M136.888 7.5166C158.229 7.5166 175.592 24.8793 175.592 46.2207C175.592 67.5621 158.229 84.9249 136.888 84.9249H93.1128C71.7714 84.9249 54.4087 67.5621 54.4087 46.2207C54.4087 24.8793 71.7714 7.5166 93.1128 7.5166H136.888ZM161.221 46.2207C161.221 32.8066 150.302 21.8878 136.888 21.8878H93.1128C79.6937 21.8878 68.7799 32.8066 68.7799 46.2207C68.7799 59.6399 79.6937 70.5536 93.1128 70.5536H136.888C150.302 70.5536 161.221 59.6399 161.221 46.2207Z" fill="#B987D4"/>
<path d="M156.781 200.937V216.471H127.472V181.896H139.092V197.179C139.092 199.253 140.776 200.937 142.851 200.937H156.781Z" fill="#B987D4"/>
<path d="M136.888 21.8877C150.302 21.8877 161.221 32.8064 161.221 46.2206C161.221 59.6398 150.302 70.5535 136.888 70.5535H93.1127C79.6935 70.5535 68.7798 59.6398 68.7798 46.2206C68.7798 32.8064 79.6935 21.8877 93.1127 21.8877H136.888ZM153.704 46.2206C153.704 36.9504 146.158 29.404 136.888 29.404H93.1127C83.8375 29.404 76.2961 36.9504 76.2961 46.2206C76.2961 55.4958 83.8375 63.0372 93.1127 63.0372H136.888C146.158 63.0372 153.704 55.4958 153.704 46.2206Z" fill="black"/>
<path d="M119.956 92.4404H110.044V222.483H119.956V92.4404Z" fill="#B987D4"/>
</svg>
