<svg width="35" height="35" viewBox="0 0 35 35" fill="none" xmlns="http://www.w3.org/2000/svg">
<path d="M22.8986 0C16.3759 0 11.0691 5.30674 11.0691 11.8295C11.0691 13.2796 11.3268 14.6888 11.8355 16.027L0.524492 27.3388C0.362822 27.5006 0.271973 27.7198 0.271973 27.9484V34.1379C0.271973 34.614 0.65793 35 1.13405 35H6.23476C6.46314 35 6.68217 34.9094 6.84384 34.748L8.56273 33.0317C8.72475 32.87 8.81573 32.6505 8.81573 32.4216V30.311H10.9237C11.3999 30.311 11.7858 29.925 11.7858 29.4489V28.604H12.6308C13.1069 28.604 13.4929 28.218 13.4929 27.7419V25.8869H15.3479C15.5765 25.8869 15.7957 25.796 15.9574 25.6344L18.7001 22.8917C20.0385 23.4009 21.4479 23.6589 22.8985 23.6589C29.4213 23.6589 34.728 18.3522 34.728 11.8294C34.7281 5.30674 29.4214 0 22.8986 0ZM22.8986 21.9347C21.4876 21.9347 20.1229 21.6498 18.8423 21.0876C18.5111 20.9422 18.1382 21.0222 17.8941 21.2602C17.8914 21.2627 17.8888 21.2648 17.8862 21.2674L14.9909 24.1627H12.6309C12.1548 24.1627 11.7689 24.5487 11.7689 25.0248V26.8798H10.9239C10.4478 26.8798 10.0618 27.2658 10.0618 27.7419V28.5868H7.95372C7.47767 28.5868 7.09164 28.9728 7.09164 29.4489V32.0641L5.87806 33.2758H1.99627V32.0575L12.5333 21.5206C12.8363 21.2176 12.8363 20.7264 12.5333 20.4234C12.2302 20.1204 11.7391 20.1203 11.4359 20.4234L1.99627 29.8631V28.3056L13.4599 16.8412C13.4625 16.8386 13.4644 16.8362 13.4668 16.8336C13.7049 16.5897 13.7851 16.2168 13.6398 15.8854C13.0781 14.6048 12.7935 13.2402 12.7935 11.8296C12.7935 6.25748 17.3267 1.72423 22.8989 1.72423C28.471 1.72423 33.0041 6.25741 33.0041 11.8296C33.0039 17.4016 28.4706 21.9347 22.8986 21.9347Z" fill="#662D91"/>
<path d="M26.4986 5.00049C24.7181 5.00049 23.2695 6.44902 23.2695 8.22958C23.2695 10.0101 24.7181 11.4587 26.4986 11.4587C28.2792 11.4587 29.7277 10.0101 29.7277 8.22958C29.7277 6.44902 28.2792 5.00049 26.4986 5.00049ZM26.4986 9.73451C25.6688 9.73451 24.9937 9.05939 24.9937 8.22958C24.9937 7.39977 25.6688 6.72465 26.4986 6.72465C27.3284 6.72465 28.0036 7.39977 28.0036 8.22958C28.0036 9.05939 27.3284 9.73451 26.4986 9.73451Z" fill="#662D91"/>
</svg>
