<svg width="230" height="230" viewBox="0 0 230 230" fill="none" xmlns="http://www.w3.org/2000/svg">
<path d="M230 164.681V178.446C230 187.134 222.93 194.204 214.242 194.204H15.758C7.07006 194.204 0 187.134 0 178.446V164.681C0 162.581 1.70412 160.877 3.80383 160.877H9.49437V53.964C9.49437 43.9472 17.6447 35.7969 27.6615 35.7969H202.339C212.355 35.7969 220.506 43.9472 220.506 53.964V160.877H226.196C228.296 160.877 230 162.581 230 164.681ZM222.392 178.446V168.485H7.60766V178.446C7.60766 182.939 11.2644 186.596 15.758 186.596H214.242C218.736 186.596 222.392 182.939 222.392 178.446ZM212.898 160.877V53.964C212.898 48.1416 208.161 43.4045 202.339 43.4045H27.6615C21.8391 43.4045 17.102 48.1416 17.102 53.964V160.877H212.898Z" fill="black"/>
<path d="M222.392 168.484V178.445C222.392 182.939 218.735 186.596 214.242 186.596H15.7578C11.2642 186.596 7.60742 182.939 7.60742 178.445V168.484H222.392Z" fill="#3DD0F2"/>
<path d="M212.898 53.9637V160.877H17.1021V53.9637C17.1021 48.1413 21.8391 43.4043 27.6615 43.4043H202.339C208.161 43.4043 212.898 48.1413 212.898 53.9637ZM204.727 150.652V53.629C204.727 51.5242 203.023 49.8252 200.924 49.8252H29.0816C26.9819 49.8252 25.2778 51.5242 25.2778 53.629V150.652C25.2778 152.752 26.9819 154.456 29.0816 154.456H200.924C203.023 154.456 204.727 152.752 204.727 150.652Z" fill="#3DD0F2"/>
<path d="M204.727 53.629V150.652C204.727 152.752 203.023 154.456 200.924 154.456H29.0817C26.9819 154.456 25.2778 152.752 25.2778 150.652V53.629C25.2778 51.5242 26.9819 49.8252 29.0817 49.8252H200.924C203.023 49.8252 204.727 51.5242 204.727 53.629ZM197.12 146.848V57.4329H32.8855V146.848H197.12Z" fill="black"/>
<path d="M140.225 70.3512C154.137 84.2631 154.137 106.893 140.225 120.8L117.691 143.339C116.95 144.08 115.977 144.45 115.003 144.45C114.029 144.45 113.055 144.08 112.31 143.339L89.7758 120.8C75.869 106.893 75.869 84.2631 89.7758 70.3512C96.5162 63.6159 105.473 59.9033 115.003 59.9033C124.528 59.9033 133.489 63.6159 140.225 70.3512ZM134.849 115.424C145.789 104.479 145.789 86.6722 134.849 75.7323C129.544 70.4323 122.499 67.511 115.003 67.511C107.507 67.511 100.457 70.4323 95.157 75.7323C84.2121 86.6722 84.2121 104.479 95.157 115.424L115.003 135.27L134.849 115.424Z" fill="black"/>
<path d="M134.848 75.7321C145.788 86.6719 145.788 104.479 134.848 115.424L115.002 135.27L95.1564 115.424C84.2115 104.479 84.2115 86.6719 95.1564 75.7321C100.456 70.4321 107.506 67.5107 115.002 67.5107C122.498 67.5107 129.543 70.4321 134.848 75.7321ZM133.154 95.4664C133.154 85.4547 125.009 77.3094 115.002 77.3094C104.991 77.3094 96.8453 85.4547 96.8453 95.4664C96.8453 105.478 104.991 113.618 115.002 113.618C125.009 113.618 133.154 105.478 133.154 95.4664Z" fill="#B987D4"/>
<path d="M115.002 77.3096C125.009 77.3096 133.154 85.4548 133.154 95.4665C133.154 105.478 125.009 113.618 115.002 113.618C104.99 113.618 96.8452 105.478 96.8452 95.4665C96.8452 85.4548 104.99 77.3096 115.002 77.3096ZM125.546 95.4665C125.546 89.6492 120.814 84.9172 115.002 84.9172C109.185 84.9172 104.453 89.6492 104.453 95.4665C104.453 101.284 109.185 106.011 115.002 106.011C120.814 106.011 125.546 101.284 125.546 95.4665Z" fill="black"/>
</svg>
