<svg width="230" height="230" viewBox="0 0 230 230" fill="none" xmlns="http://www.w3.org/2000/svg">
<g clip-path="url(#clip0)">
<path d="M213.372 16.6315C235.543 38.7966 235.543 74.8668 213.372 97.0376L165.619 144.796C162.081 148.329 158.116 151.359 153.827 153.836C151.356 158.124 148.326 162.084 144.799 165.616L97.0405 213.37C85.9521 224.458 71.389 229.999 56.8316 229.999C42.2685 229.999 27.7111 224.458 16.6286 213.375C-5.54222 191.204 -5.54222 155.134 16.6286 132.963L64.3874 85.2047C67.9199 81.6721 71.8796 78.6417 76.1684 76.1713C78.6388 71.8826 81.6692 67.9171 85.2075 64.3845L132.966 16.6257C143.685 5.90686 157.966 0.00195312 173.164 0.00195312C173.169 0.00195312 173.169 0.00195312 173.169 0.00195312C188.373 0.00195312 202.653 5.90744 213.372 16.6315ZM207.253 90.9139C226.042 72.1198 226.042 41.5447 207.253 22.7506C198.162 13.6652 186.058 8.66076 173.169 8.66076H173.163C160.274 8.66076 148.175 13.6594 139.084 22.7506L91.7988 70.036C100.965 67.935 110.604 68.1024 119.776 70.6306L153.37 37.0367C158.652 31.7551 165.682 28.846 173.163 28.846C173.169 28.846 173.169 28.846 173.169 28.846C180.655 28.846 187.686 31.7551 192.967 37.0367C198.249 42.3182 201.158 49.3486 201.158 56.8351C201.158 64.3158 198.249 71.3463 192.967 76.6278L145.208 124.387C140.752 128.843 134.847 131.688 128.585 132.398C127.505 132.52 126.426 132.583 125.358 132.583C117.964 132.583 110.91 129.685 105.612 124.392C100.982 119.757 98.1885 113.772 97.5651 107.388C95.0889 108.346 92.8435 109.806 90.9156 111.734L80.52 122.13C82.927 128.346 86.5576 133.905 91.3312 138.678C96.7282 144.075 103.124 148.012 110.339 150.367C122.997 154.517 136.937 153.242 148.579 146.863C152.568 144.681 156.239 141.922 159.495 138.673L207.253 90.9139ZM192.5 56.8351C192.5 51.6633 190.491 46.8089 186.843 43.1609C183.195 39.5129 178.341 37.5042 173.169 37.5042H173.163C167.991 37.5042 163.137 39.5129 159.495 43.1551L128.729 73.9207C134.68 76.6971 140.071 80.4721 144.799 85.2053C149.532 89.9384 153.313 95.3238 156.083 101.269L186.843 70.5094C190.491 66.8608 192.5 62.007 192.5 56.8351ZM139.085 118.262L149.486 107.867C147.079 101.656 143.454 96.1031 138.681 91.3295C133.284 85.9325 126.882 81.9959 119.662 79.6351C106.997 75.4907 93.0634 76.7664 81.421 83.1388C77.4267 85.3207 73.7614 88.074 70.5116 91.3295L22.7529 139.083C3.95874 157.877 3.95874 188.457 22.7529 207.252C41.5412 226.046 72.1221 226.046 90.9162 207.252L138.202 159.966C134 160.93 129.705 161.421 125.393 161.421C120.302 161.421 115.2 160.734 110.23 159.366L76.6301 192.966C73.9865 195.609 70.9099 197.653 67.5563 199.044C64.2027 200.429 60.572 201.156 56.8316 201.156C49.3452 201.156 42.3147 198.247 37.0332 192.971C26.118 182.05 26.118 164.289 37.0332 153.369L84.7919 105.61C89.248 101.154 95.153 98.3138 101.416 97.6038C109.953 96.6341 118.334 99.549 124.395 105.61C129.03 110.245 131.818 116.231 132.441 122.609C134.911 121.656 137.163 120.19 139.085 118.262ZM123.857 123.855C123.505 119.307 121.56 115.024 118.27 111.733C114.98 108.443 110.697 106.504 106.148 106.146C106.506 110.694 108.446 114.977 111.736 118.268C115.026 121.558 119.309 123.503 123.857 123.855ZM70.5116 186.841L101.271 156.081C95.3261 153.311 89.9407 149.53 85.2075 144.797C80.4744 140.07 76.6994 134.678 73.923 128.727L43.1574 159.493C35.619 167.031 35.619 179.303 43.1574 186.847C44.9756 188.671 47.1056 190.079 49.4202 191.038C51.7406 191.996 54.2457 192.498 56.8316 192.498C62.0035 192.497 66.8636 190.489 70.5116 186.841Z" fill="black"/>
<path d="M207.253 22.749C226.041 41.5431 226.041 72.1182 207.253 90.9123L159.494 138.671C156.239 141.921 152.568 144.68 148.579 146.862C136.937 153.24 122.997 154.516 110.338 150.365C103.123 148.01 96.7277 144.074 91.3308 138.677C86.5572 133.903 82.9265 128.345 80.5195 122.128L90.9152 111.732C92.8431 109.805 95.0884 108.344 97.5647 107.386C98.1881 113.77 100.982 119.756 105.611 124.391C110.91 129.684 117.963 132.581 125.358 132.581C126.425 132.581 127.505 132.518 128.584 132.397C134.847 131.687 140.752 128.841 145.208 124.385L192.967 76.6263C198.248 71.3447 201.157 64.3143 201.157 56.8335C201.157 49.3471 198.248 42.3166 192.967 37.0351C187.685 31.7536 180.655 28.8444 173.168 28.8444C173.168 28.8444 173.168 28.8444 173.163 28.8444C165.682 28.8444 158.651 31.7536 153.37 37.0351L119.776 70.629C110.604 68.1008 100.964 67.9334 91.7983 70.0345L139.084 22.749C148.175 13.6579 160.273 8.65918 173.163 8.65918H173.168C186.058 8.65918 198.162 13.6642 207.253 22.749Z" fill="#B987D4"/>
<path d="M149.486 107.865L139.085 118.261C137.163 120.189 134.911 121.655 132.441 122.607C131.818 116.229 129.03 110.243 124.395 105.608C118.334 99.5473 109.953 96.6324 101.416 97.6021C95.1529 98.3121 89.248 101.152 84.7919 105.608L37.0331 153.367C26.118 164.288 26.118 182.049 37.0331 192.97C42.3146 198.245 49.3451 201.155 56.8316 201.155C60.572 201.155 64.2026 200.427 67.5563 199.042C70.9099 197.651 73.9864 195.607 76.6301 192.964L110.23 159.364C115.2 160.732 120.302 161.419 125.393 161.419C129.705 161.419 133.999 160.928 138.202 159.964L90.9162 207.25C72.122 226.044 41.5412 226.044 22.7528 207.25C3.9587 188.456 3.9587 157.875 22.7528 139.081L70.5116 91.3278C73.7613 88.0723 77.4266 85.319 81.421 83.1371C93.0634 76.7646 106.997 75.489 119.661 79.6334C126.882 81.9942 133.284 85.9308 138.681 91.3278C143.454 96.1014 147.079 101.655 149.486 107.865Z" fill="#3DD0F2"/>
</g>
<defs>
<clipPath id="clip0">
<rect width="230" height="230" fill="white"/>
</clipPath>
</defs>
</svg>
