<svg width="242" height="97" viewBox="0 0 242 97" fill="none" xmlns="http://www.w3.org/2000/svg">
<path d="M108.616 28.216V31H92.36V8.6H108.168V11.384H95.56V18.264H106.792V20.984H95.56V28.216H108.616ZM134.566 13.88C136.699 13.88 138.384 14.4987 139.622 15.736C140.88 16.9733 141.51 18.808 141.51 21.24V31H138.438V21.592C138.438 19.9493 138.054 18.712 137.286 17.88C136.539 17.048 135.462 16.632 134.054 16.632C132.496 16.632 131.259 17.1227 130.342 18.104C129.424 19.064 128.966 20.4507 128.966 22.264V31H125.894V21.592C125.894 19.9493 125.51 18.712 124.742 17.88C123.995 17.048 122.918 16.632 121.51 16.632C119.952 16.632 118.715 17.1227 117.798 18.104C116.88 19.064 116.422 20.4507 116.422 22.264V31H113.35V14.04H116.294V16.568C116.912 15.6933 117.723 15.032 118.726 14.584C119.728 14.1147 120.87 13.88 122.15 13.88C123.472 13.88 124.646 14.1467 125.67 14.68C126.694 15.2133 127.483 15.992 128.038 17.016C128.678 16.0347 129.563 15.2667 130.694 14.712C131.846 14.1573 133.136 13.88 134.566 13.88ZM153.338 13.88C155.685 13.88 157.477 14.456 158.714 15.608C159.973 16.76 160.602 18.4773 160.602 20.76V31H157.69V28.76C157.178 29.5493 156.442 30.1573 155.482 30.584C154.543 30.9893 153.423 31.192 152.122 31.192C150.223 31.192 148.698 30.7333 147.546 29.816C146.415 28.8987 145.85 27.6933 145.85 26.2C145.85 24.7067 146.394 23.512 147.482 22.616C148.57 21.6987 150.298 21.24 152.666 21.24H157.53V20.632C157.53 19.3093 157.146 18.296 156.378 17.592C155.61 16.888 154.479 16.536 152.986 16.536C151.983 16.536 151.002 16.7067 150.042 17.048C149.082 17.368 148.271 17.8053 147.61 18.36L146.33 16.056C147.205 15.352 148.25 14.8187 149.466 14.456C150.682 14.072 151.973 13.88 153.338 13.88ZM152.634 28.824C153.807 28.824 154.821 28.568 155.674 28.056C156.527 27.5227 157.146 26.776 157.53 25.816V23.448H152.794C150.191 23.448 148.89 24.3227 148.89 26.072C148.89 26.9253 149.221 27.5973 149.882 28.088C150.543 28.5787 151.461 28.824 152.634 28.824ZM166.287 14.04H169.359V31H166.287V14.04ZM167.823 10.776C167.226 10.776 166.724 10.584 166.319 10.2C165.935 9.816 165.743 9.34667 165.743 8.792C165.743 8.23733 165.935 7.768 166.319 7.384C166.724 6.97867 167.226 6.776 167.823 6.776C168.42 6.776 168.911 6.968 169.295 7.352C169.7 7.71467 169.903 8.17333 169.903 8.728C169.903 9.304 169.7 9.79467 169.295 10.2C168.911 10.584 168.42 10.776 167.823 10.776ZM175.225 7.256H178.297V31H175.225V7.256ZM102.376 66.256C100.136 66.256 98.1093 65.7653 96.296 64.784C94.504 63.7813 93.096 62.416 92.072 60.688C91.048 58.9387 90.536 56.976 90.536 54.8C90.536 52.624 91.048 50.672 92.072 48.944C93.096 47.1947 94.5147 45.8293 96.328 44.848C98.1413 43.8453 100.168 43.344 102.408 43.344C104.157 43.344 105.757 43.6427 107.208 44.24C108.659 44.816 109.896 45.68 110.92 46.832L108.84 48.848C107.155 47.0773 105.053 46.192 102.536 46.192C100.872 46.192 99.368 46.5653 98.024 47.312C96.68 48.0587 95.624 49.0933 94.856 50.416C94.1093 51.7173 93.736 53.1787 93.736 54.8C93.736 56.4213 94.1093 57.8933 94.856 59.216C95.624 60.5173 96.68 61.5413 98.024 62.288C99.368 63.0347 100.872 63.408 102.536 63.408C105.032 63.408 107.133 62.512 108.84 60.72L110.92 62.736C109.896 63.888 108.648 64.7627 107.176 65.36C105.725 65.9573 104.125 66.256 102.376 66.256ZM121.582 66.192C119.897 66.192 118.382 65.8187 117.038 65.072C115.694 64.3253 114.638 63.3013 113.87 62C113.124 60.6773 112.75 59.184 112.75 57.52C112.75 55.856 113.124 54.3733 113.87 53.072C114.638 51.7493 115.694 50.7253 117.038 50C118.382 49.2533 119.897 48.88 121.582 48.88C123.268 48.88 124.772 49.2533 126.094 50C127.438 50.7253 128.484 51.7493 129.23 53.072C129.998 54.3733 130.382 55.856 130.382 57.52C130.382 59.184 129.998 60.6773 129.23 62C128.484 63.3013 127.438 64.3253 126.094 65.072C124.772 65.8187 123.268 66.192 121.582 66.192ZM121.582 63.504C122.67 63.504 123.641 63.2587 124.494 62.768C125.369 62.256 126.052 61.552 126.542 60.656C127.033 59.7387 127.278 58.6933 127.278 57.52C127.278 56.3467 127.033 55.312 126.542 54.416C126.052 53.4987 125.369 52.7947 124.494 52.304C123.641 51.8133 122.67 51.568 121.582 51.568C120.494 51.568 119.513 51.8133 118.638 52.304C117.785 52.7947 117.102 53.4987 116.59 54.416C116.1 55.312 115.854 56.3467 115.854 57.52C115.854 58.6933 116.1 59.7387 116.59 60.656C117.102 61.552 117.785 62.256 118.638 62.768C119.513 63.2587 120.494 63.504 121.582 63.504ZM143.687 48.88C145.841 48.88 147.548 49.5093 148.807 50.768C150.087 52.0053 150.727 53.8293 150.727 56.24V66H147.655V56.592C147.655 54.9493 147.26 53.712 146.471 52.88C145.681 52.048 144.551 51.632 143.079 51.632C141.415 51.632 140.103 52.1227 139.143 53.104C138.183 54.064 137.703 55.4507 137.703 57.264V66H134.631V49.04H137.575V51.6C138.193 50.7253 139.025 50.0533 140.071 49.584C141.137 49.1147 142.343 48.88 143.687 48.88ZM161.276 66.192C159.889 66.192 158.556 66.0107 157.276 65.648C155.996 65.264 154.993 64.784 154.268 64.208L155.548 61.776C156.295 62.3093 157.201 62.736 158.268 63.056C159.335 63.376 160.412 63.536 161.5 63.536C164.188 63.536 165.532 62.768 165.532 61.232C165.532 60.72 165.351 60.3147 164.988 60.016C164.625 59.7173 164.167 59.504 163.612 59.376C163.079 59.2267 162.311 59.0667 161.308 58.896C159.943 58.6827 158.823 58.4373 157.948 58.16C157.095 57.8827 156.359 57.4133 155.74 56.752C155.121 56.0907 154.812 55.1627 154.812 53.968C154.812 52.432 155.452 51.2053 156.732 50.288C158.012 49.3493 159.729 48.88 161.884 48.88C163.015 48.88 164.145 49.0187 165.276 49.296C166.407 49.5733 167.335 49.9467 168.06 50.416L166.748 52.848C165.361 51.952 163.729 51.504 161.852 51.504C160.551 51.504 159.559 51.7173 158.876 52.144C158.193 52.5707 157.852 53.136 157.852 53.84C157.852 54.3947 158.044 54.832 158.428 55.152C158.812 55.472 159.281 55.7067 159.836 55.856C160.412 56.0053 161.212 56.176 162.236 56.368C163.601 56.6027 164.7 56.8587 165.532 57.136C166.385 57.392 167.111 57.84 167.708 58.48C168.305 59.12 168.604 60.016 168.604 61.168C168.604 62.704 167.943 63.9307 166.62 64.848C165.319 65.744 163.537 66.192 161.276 66.192ZM188.251 49.04V66H185.339V63.44C184.721 64.3147 183.899 64.9973 182.875 65.488C181.873 65.9573 180.774 66.192 179.579 66.192C177.318 66.192 175.537 65.5733 174.235 64.336C172.934 63.0773 172.283 61.232 172.283 58.8V49.04H175.355V58.448C175.355 60.0907 175.75 61.3387 176.539 62.192C177.329 63.024 178.459 63.44 179.931 63.44C181.553 63.44 182.833 62.9493 183.771 61.968C184.71 60.9867 185.179 59.6 185.179 57.808V49.04H188.251ZM194.1 42.256H197.172V66H194.1V42.256Z" fill="white"/>
<g clip-path="url(#clip0)">
<path d="M37.4821 8.80374C37.4821 7.25528 36.2297 6 34.6849 6C33.14 6 31.8877 7.25528 31.8877 8.80374C31.8877 10.3522 33.14 11.6075 34.6849 11.6075C36.2297 11.6075 37.4821 10.3522 37.4821 8.80374Z" fill="white"/>
<path d="M11.1891 17.7759C11.1891 16.2274 9.93678 14.9722 8.39193 14.9722C6.84708 14.9722 5.59473 16.2274 5.59473 17.7759C5.59473 19.3244 6.84708 20.5796 8.39193 20.5796C9.93678 20.5796 11.1891 19.3244 11.1891 17.7759Z" fill="white"/>
<path d="M20.4802 21.6649C21.3663 20.3964 21.0588 18.6482 19.7933 17.76C18.5278 16.8719 16.7836 17.1801 15.8975 18.4485C15.0115 19.717 15.319 21.4652 16.5845 22.3534C17.8499 23.2415 19.5941 22.9333 20.4802 21.6649Z" fill="white"/>
<path d="M48.112 8.80374C48.112 7.25528 46.8596 6 45.3148 6C43.7699 6 42.5176 7.25528 42.5176 8.80374C42.5176 10.3522 43.7699 11.6075 45.3148 11.6075C46.8596 11.6075 48.112 10.3522 48.112 8.80374Z" fill="white"/>
<path d="M32.224 8.80371H6.71355C3.62385 8.80371 1.11914 11.3143 1.11914 14.4112V59.271C1.11914 62.368 3.62384 64.8785 6.71355 64.8785H73.287C76.3768 64.8785 78.8814 62.368 78.8814 59.271V36.8411V14.4112C78.8814 11.3143 76.3768 8.80371 73.287 8.80371H47.3672" stroke="white" stroke-width="3"/>
<path d="M8.3916 15.5327V51.4206C8.3916 54.5175 10.8963 57.028 13.986 57.028H64.8951C67.9849 57.028 70.4895 54.5175 70.4895 51.4206V25.5236C70.4895 21.1462 65.7091 18.4567 61.981 20.737L43.2159 32.2146C41.4063 33.3214 39.1281 33.308 37.3316 32.1799L18.6727 20.4629" stroke="white" stroke-width="3"/>
</g>
<path d="M1.953 94H4.032V79.174H1.953V94ZM7.88074 94H9.91774V88.897C9.91774 86.713 11.3877 84.991 13.4667 84.991C15.1677 84.991 15.4617 86.167 15.4617 87.658V94H17.4987V87.196C17.4987 84.487 16.3647 83.122 13.8657 83.122C11.5347 83.122 10.2327 84.697 9.83374 85.621H9.79174C9.79174 85.621 9.85474 85.264 9.85474 84.823V83.374H7.88074V94ZM20.9541 94H22.8651V93.139C22.8651 92.656 22.8021 92.341 22.8021 92.341H22.8441C23.5371 93.538 24.8391 94.252 26.2251 94.252C29.0391 94.252 31.0551 92.068 31.0551 88.687C31.0551 85.39 29.2701 83.122 26.3931 83.122C24.9231 83.122 23.5791 83.857 22.9491 84.991H22.9071C22.9071 84.991 22.9911 84.613 22.9911 84.088V79.174H20.9541V94ZM22.9281 88.729C22.9281 86.041 24.3981 84.907 25.9941 84.907C27.7581 84.907 28.9971 86.398 28.9971 88.708C28.9971 91.123 27.6111 92.488 25.9311 92.488C23.9151 92.488 22.9281 90.619 22.9281 88.729ZM33.2934 88.666C33.2934 91.9 35.8554 94.252 39.0264 94.252C42.1764 94.252 44.7384 91.9 44.7384 88.666C44.7384 85.453 42.1764 83.122 39.0054 83.122C35.8554 83.122 33.2934 85.453 33.2934 88.666ZM35.3724 88.666C35.3724 86.461 37.0104 84.886 39.0264 84.886C41.0214 84.886 42.6804 86.461 42.6804 88.666C42.6804 90.892 41.0214 92.488 39.0264 92.488C37.0104 92.488 35.3724 90.892 35.3724 88.666ZM46.0468 94H48.3568L50.5828 90.451C50.7508 90.199 50.8978 89.884 50.8978 89.884H50.9398C50.9398 89.884 51.1078 90.199 51.2758 90.451L53.5018 94H55.8118L52.1788 88.54L55.6018 83.374H53.2708L51.2968 86.608C51.1498 86.881 50.9398 87.238 50.9398 87.238H50.8978C50.8978 87.238 50.7088 86.881 50.5618 86.608L48.5878 83.374H46.2568L49.6798 88.54L46.0468 94ZM64.2123 94H66.2913V88.519H69.6513C72.3603 88.519 74.2923 86.629 74.2923 83.815C74.2923 81.001 72.3603 79.174 69.6513 79.174H64.2123V94ZM66.2913 86.713V80.98H69.3363C71.0793 80.98 72.1923 82.051 72.1923 83.815C72.1923 85.6 71.0793 86.713 69.3153 86.713H66.2913ZM76.9896 91.081C76.9896 93.769 78.6696 94.105 79.8456 94.105C80.1396 94.105 80.3706 94.063 80.5176 94.042V92.236C80.3916 92.257 80.2446 92.257 80.1606 92.257C79.5306 92.257 79.0056 92.005 79.0056 90.745V79.174H76.9896V91.081ZM82.1262 91.102C82.1262 93.097 83.8272 94.252 85.6752 94.252C87.2502 94.252 88.5522 93.307 89.1612 92.089H89.2032C89.2032 92.089 89.1402 92.446 89.1402 92.929V94H91.0512V87.28C91.0512 84.592 89.5182 83.122 86.8512 83.122C85.3602 83.122 83.7432 83.668 82.8822 84.382L83.7012 85.873C84.5622 85.264 85.6332 84.844 86.6832 84.844C88.0062 84.844 89.0142 85.432 89.0142 87.175V87.385H88.4682C86.2632 87.385 82.1262 87.763 82.1262 91.102ZM84.1632 90.934C84.1632 88.981 86.9772 88.855 88.4892 88.855H89.0142V89.254C89.0142 90.829 87.9432 92.635 86.1582 92.635C84.8352 92.635 84.1632 91.774 84.1632 90.934ZM93.8095 88.687C93.8095 91.879 96.1405 94.252 99.5005 94.252C101.159 94.252 102.776 93.58 103.742 92.551L102.923 91.06C102.104 91.921 100.823 92.488 99.6475 92.488C97.4425 92.488 95.8885 90.829 95.8885 88.666C95.8885 86.503 97.4425 84.886 99.5845 84.886C100.697 84.886 101.81 85.39 102.524 86.104L103.49 84.676C102.482 83.605 100.907 83.122 99.5005 83.122C96.1615 83.122 93.8095 85.537 93.8095 88.687ZM105.447 88.687C105.447 91.837 107.757 94.252 111.096 94.252C112.566 94.252 114.183 93.685 115.212 92.74L114.351 91.249C113.511 92.005 112.356 92.488 111.222 92.488C109.311 92.488 107.673 91.249 107.568 88.96H115.296C115.338 88.666 115.38 88.372 115.38 88.099C115.38 85.369 113.784 83.122 110.781 83.122C107.757 83.122 105.447 85.306 105.447 88.687ZM107.631 87.49C107.925 85.726 109.164 84.697 110.739 84.697C112.125 84.697 113.259 85.663 113.322 87.49H107.631ZM118.25 94H120.287V89.044C120.287 87.07 121.463 84.97 123.479 84.97C125.096 84.97 125.306 86.251 125.306 87.637V94H127.343V89.044C127.343 87.007 128.519 84.97 130.493 84.97C132.068 84.97 132.362 86.146 132.362 87.637V94H134.399V87.196C134.399 84.487 133.307 83.122 130.892 83.122C129.17 83.122 127.7 84.298 127.112 85.537H127.07C126.713 83.941 125.684 83.122 123.899 83.122C122.219 83.122 120.707 84.382 120.203 85.621H120.161C120.161 85.621 120.224 85.264 120.224 84.823V83.374H118.25V94ZM137.172 88.687C137.172 91.837 139.482 94.252 142.821 94.252C144.291 94.252 145.908 93.685 146.937 92.74L146.076 91.249C145.236 92.005 144.081 92.488 142.947 92.488C141.036 92.488 139.398 91.249 139.293 88.96H147.021C147.063 88.666 147.105 88.372 147.105 88.099C147.105 85.369 145.509 83.122 142.506 83.122C139.482 83.122 137.172 85.306 137.172 88.687ZM139.356 87.49C139.65 85.726 140.889 84.697 142.464 84.697C143.85 84.697 144.984 85.663 145.047 87.49H139.356ZM149.974 94H152.011V88.897C152.011 86.713 153.481 84.991 155.56 84.991C157.261 84.991 157.555 86.167 157.555 87.658V94H159.592V87.196C159.592 84.487 158.458 83.122 155.959 83.122C153.628 83.122 152.326 84.697 151.927 85.621H151.885C151.885 85.621 151.948 85.264 151.948 84.823V83.374H149.974V94ZM163.489 90.115C163.489 93.664 166.198 94.105 167.563 94.105C167.878 94.105 168.109 94.063 168.277 94.042V92.236C168.067 92.278 167.941 92.278 167.794 92.278C167.017 92.278 165.526 92.005 165.526 89.884V85.138H168.088V83.479H165.526V80.455H163.531V83.479H162.103V85.138H163.489V90.115ZM176.417 81.232H178.517V79.174H176.417V81.232ZM176.459 94H178.496V83.374H176.459V94ZM181.144 92.698C182.194 93.769 183.769 94.252 185.197 94.252C187.465 94.252 189.019 92.929 189.019 91.123C189.019 87.616 183.538 88.225 183.538 86.146C183.538 85.243 184.315 84.823 185.344 84.823C186.289 84.823 187.402 85.18 188.032 85.768L188.851 84.298C187.927 83.458 186.625 83.122 185.407 83.122C183.328 83.122 181.585 84.172 181.585 86.188C181.585 89.674 187.045 89.128 187.045 91.165C187.045 92.047 186.31 92.551 185.239 92.551C184.126 92.551 182.908 92.089 182.11 91.312L181.144 92.698ZM197.53 94H199.567V88.96C199.567 86.671 201.058 84.991 203.116 84.991C204.817 84.991 205.111 86.167 205.111 87.658V94H207.148V87.196C207.148 84.487 206.014 83.122 203.515 83.122C201.394 83.122 200.008 84.55 199.525 85.558H199.483C199.483 85.558 199.567 85.18 199.567 84.676V79.174H197.53V94ZM209.91 88.687C209.91 91.837 212.22 94.252 215.559 94.252C217.029 94.252 218.646 93.685 219.675 92.74L218.814 91.249C217.974 92.005 216.819 92.488 215.685 92.488C213.774 92.488 212.136 91.249 212.031 88.96H219.759C219.801 88.666 219.843 88.372 219.843 88.099C219.843 85.369 218.247 83.122 215.244 83.122C212.22 83.122 209.91 85.306 209.91 88.687ZM212.094 87.49C212.388 85.726 213.627 84.697 215.202 84.697C216.588 84.697 217.722 85.663 217.785 87.49H212.094ZM222.712 94H224.749V89.59C224.749 87.532 225.715 85.264 228.004 85.264C228.214 85.264 228.508 85.285 228.592 85.306V83.29C228.424 83.269 228.235 83.248 228.046 83.248C226.408 83.248 225.169 84.529 224.665 86.062H224.623C224.623 86.062 224.686 85.726 224.686 85.285V83.374H222.712V94ZM230.068 88.687C230.068 91.837 232.378 94.252 235.717 94.252C237.187 94.252 238.804 93.685 239.833 92.74L238.972 91.249C238.132 92.005 236.977 92.488 235.843 92.488C233.932 92.488 232.294 91.249 232.189 88.96H239.917C239.959 88.666 240.001 88.372 240.001 88.099C240.001 85.369 238.405 83.122 235.402 83.122C232.378 83.122 230.068 85.306 230.068 88.687ZM232.252 87.49C232.546 85.726 233.785 84.697 235.36 84.697C236.746 84.697 237.88 85.663 237.943 87.49H232.252Z" fill="white"/>
<defs>
<clipPath id="clip0">
<rect width="80" height="60" fill="white" transform="translate(0 6)"/>
</clipPath>
</defs>
</svg>
