<svg width="242" height="97" viewBox="0 0 242 97" fill="none" xmlns="http://www.w3.org/2000/svg">
<path d="M1.953 94H4.032V79.174H1.953V94ZM7.88074 94H9.91774V88.897C9.91774 86.713 11.3877 84.991 13.4667 84.991C15.1677 84.991 15.4617 86.167 15.4617 87.658V94H17.4987V87.196C17.4987 84.487 16.3647 83.122 13.8657 83.122C11.5347 83.122 10.2327 84.697 9.83374 85.621H9.79174C9.79174 85.621 9.85474 85.264 9.85474 84.823V83.374H7.88074V94ZM20.9541 94H22.8651V93.139C22.8651 92.656 22.8021 92.341 22.8021 92.341H22.8441C23.5371 93.538 24.8391 94.252 26.2251 94.252C29.0391 94.252 31.0551 92.068 31.0551 88.687C31.0551 85.39 29.2701 83.122 26.3931 83.122C24.9231 83.122 23.5791 83.857 22.9491 84.991H22.9071C22.9071 84.991 22.9911 84.613 22.9911 84.088V79.174H20.9541V94ZM22.9281 88.729C22.9281 86.041 24.3981 84.907 25.9941 84.907C27.7581 84.907 28.9971 86.398 28.9971 88.708C28.9971 91.123 27.6111 92.488 25.9311 92.488C23.9151 92.488 22.9281 90.619 22.9281 88.729ZM33.2934 88.666C33.2934 91.9 35.8554 94.252 39.0264 94.252C42.1764 94.252 44.7384 91.9 44.7384 88.666C44.7384 85.453 42.1764 83.122 39.0054 83.122C35.8554 83.122 33.2934 85.453 33.2934 88.666ZM35.3724 88.666C35.3724 86.461 37.0104 84.886 39.0264 84.886C41.0214 84.886 42.6804 86.461 42.6804 88.666C42.6804 90.892 41.0214 92.488 39.0264 92.488C37.0104 92.488 35.3724 90.892 35.3724 88.666ZM46.0468 94H48.3568L50.5828 90.451C50.7508 90.199 50.8978 89.884 50.8978 89.884H50.9398C50.9398 89.884 51.1078 90.199 51.2758 90.451L53.5018 94H55.8118L52.1788 88.54L55.6018 83.374H53.2708L51.2968 86.608C51.1498 86.881 50.9398 87.238 50.9398 87.238H50.8978C50.8978 87.238 50.7088 86.881 50.5618 86.608L48.5878 83.374H46.2568L49.6798 88.54L46.0468 94ZM64.2123 94H66.2913V88.519H69.6513C72.3603 88.519 74.2923 86.629 74.2923 83.815C74.2923 81.001 72.3603 79.174 69.6513 79.174H64.2123V94ZM66.2913 86.713V80.98H69.3363C71.0793 80.98 72.1923 82.051 72.1923 83.815C72.1923 85.6 71.0793 86.713 69.3153 86.713H66.2913ZM76.9896 91.081C76.9896 93.769 78.6696 94.105 79.8456 94.105C80.1396 94.105 80.3706 94.063 80.5176 94.042V92.236C80.3916 92.257 80.2446 92.257 80.1606 92.257C79.5306 92.257 79.0056 92.005 79.0056 90.745V79.174H76.9896V91.081ZM82.1262 91.102C82.1262 93.097 83.8272 94.252 85.6752 94.252C87.2502 94.252 88.5522 93.307 89.1612 92.089H89.2032C89.2032 92.089 89.1402 92.446 89.1402 92.929V94H91.0512V87.28C91.0512 84.592 89.5182 83.122 86.8512 83.122C85.3602 83.122 83.7432 83.668 82.8822 84.382L83.7012 85.873C84.5622 85.264 85.6332 84.844 86.6832 84.844C88.0062 84.844 89.0142 85.432 89.0142 87.175V87.385H88.4682C86.2632 87.385 82.1262 87.763 82.1262 91.102ZM84.1632 90.934C84.1632 88.981 86.9772 88.855 88.4892 88.855H89.0142V89.254C89.0142 90.829 87.9432 92.635 86.1582 92.635C84.8352 92.635 84.1632 91.774 84.1632 90.934ZM93.8095 88.687C93.8095 91.879 96.1405 94.252 99.5005 94.252C101.159 94.252 102.776 93.58 103.742 92.551L102.923 91.06C102.104 91.921 100.823 92.488 99.6475 92.488C97.4425 92.488 95.8885 90.829 95.8885 88.666C95.8885 86.503 97.4425 84.886 99.5845 84.886C100.697 84.886 101.81 85.39 102.524 86.104L103.49 84.676C102.482 83.605 100.907 83.122 99.5005 83.122C96.1615 83.122 93.8095 85.537 93.8095 88.687ZM105.447 88.687C105.447 91.837 107.757 94.252 111.096 94.252C112.566 94.252 114.183 93.685 115.212 92.74L114.351 91.249C113.511 92.005 112.356 92.488 111.222 92.488C109.311 92.488 107.673 91.249 107.568 88.96H115.296C115.338 88.666 115.38 88.372 115.38 88.099C115.38 85.369 113.784 83.122 110.781 83.122C107.757 83.122 105.447 85.306 105.447 88.687ZM107.631 87.49C107.925 85.726 109.164 84.697 110.739 84.697C112.125 84.697 113.259 85.663 113.322 87.49H107.631ZM118.25 94H120.287V89.044C120.287 87.07 121.463 84.97 123.479 84.97C125.096 84.97 125.306 86.251 125.306 87.637V94H127.343V89.044C127.343 87.007 128.519 84.97 130.493 84.97C132.068 84.97 132.362 86.146 132.362 87.637V94H134.399V87.196C134.399 84.487 133.307 83.122 130.892 83.122C129.17 83.122 127.7 84.298 127.112 85.537H127.07C126.713 83.941 125.684 83.122 123.899 83.122C122.219 83.122 120.707 84.382 120.203 85.621H120.161C120.161 85.621 120.224 85.264 120.224 84.823V83.374H118.25V94ZM137.172 88.687C137.172 91.837 139.482 94.252 142.821 94.252C144.291 94.252 145.908 93.685 146.937 92.74L146.076 91.249C145.236 92.005 144.081 92.488 142.947 92.488C141.036 92.488 139.398 91.249 139.293 88.96H147.021C147.063 88.666 147.105 88.372 147.105 88.099C147.105 85.369 145.509 83.122 142.506 83.122C139.482 83.122 137.172 85.306 137.172 88.687ZM139.356 87.49C139.65 85.726 140.889 84.697 142.464 84.697C143.85 84.697 144.984 85.663 145.047 87.49H139.356ZM149.974 94H152.011V88.897C152.011 86.713 153.481 84.991 155.56 84.991C157.261 84.991 157.555 86.167 157.555 87.658V94H159.592V87.196C159.592 84.487 158.458 83.122 155.959 83.122C153.628 83.122 152.326 84.697 151.927 85.621H151.885C151.885 85.621 151.948 85.264 151.948 84.823V83.374H149.974V94ZM163.489 90.115C163.489 93.664 166.198 94.105 167.563 94.105C167.878 94.105 168.109 94.063 168.277 94.042V92.236C168.067 92.278 167.941 92.278 167.794 92.278C167.017 92.278 165.526 92.005 165.526 89.884V85.138H168.088V83.479H165.526V80.455H163.531V83.479H162.103V85.138H163.489V90.115ZM176.417 81.232H178.517V79.174H176.417V81.232ZM176.459 94H178.496V83.374H176.459V94ZM181.144 92.698C182.194 93.769 183.769 94.252 185.197 94.252C187.465 94.252 189.019 92.929 189.019 91.123C189.019 87.616 183.538 88.225 183.538 86.146C183.538 85.243 184.315 84.823 185.344 84.823C186.289 84.823 187.402 85.18 188.032 85.768L188.851 84.298C187.927 83.458 186.625 83.122 185.407 83.122C183.328 83.122 181.585 84.172 181.585 86.188C181.585 89.674 187.045 89.128 187.045 91.165C187.045 92.047 186.31 92.551 185.239 92.551C184.126 92.551 182.908 92.089 182.11 91.312L181.144 92.698ZM197.53 94H199.567V88.96C199.567 86.671 201.058 84.991 203.116 84.991C204.817 84.991 205.111 86.167 205.111 87.658V94H207.148V87.196C207.148 84.487 206.014 83.122 203.515 83.122C201.394 83.122 200.008 84.55 199.525 85.558H199.483C199.483 85.558 199.567 85.18 199.567 84.676V79.174H197.53V94ZM209.91 88.687C209.91 91.837 212.22 94.252 215.559 94.252C217.029 94.252 218.646 93.685 219.675 92.74L218.814 91.249C217.974 92.005 216.819 92.488 215.685 92.488C213.774 92.488 212.136 91.249 212.031 88.96H219.759C219.801 88.666 219.843 88.372 219.843 88.099C219.843 85.369 218.247 83.122 215.244 83.122C212.22 83.122 209.91 85.306 209.91 88.687ZM212.094 87.49C212.388 85.726 213.627 84.697 215.202 84.697C216.588 84.697 217.722 85.663 217.785 87.49H212.094ZM222.712 94H224.749V89.59C224.749 87.532 225.715 85.264 228.004 85.264C228.214 85.264 228.508 85.285 228.592 85.306V83.29C228.424 83.269 228.235 83.248 228.046 83.248C226.408 83.248 225.169 84.529 224.665 86.062H224.623C224.623 86.062 224.686 85.726 224.686 85.285V83.374H222.712V94ZM230.068 88.687C230.068 91.837 232.378 94.252 235.717 94.252C237.187 94.252 238.804 93.685 239.833 92.74L238.972 91.249C238.132 92.005 236.977 92.488 235.843 92.488C233.932 92.488 232.294 91.249 232.189 88.96H239.917C239.959 88.666 240.001 88.372 240.001 88.099C240.001 85.369 238.405 83.122 235.402 83.122C232.378 83.122 230.068 85.306 230.068 88.687ZM232.252 87.49C232.546 85.726 233.785 84.697 235.36 84.697C236.746 84.697 237.88 85.663 237.943 87.49H232.252Z" fill="#3E3E3E"/>
<path d="M107.616 28.216V31H91.36V8.6H107.168V11.384H94.56V18.264H105.792V20.984H94.56V28.216H107.616ZM133.566 13.88C135.699 13.88 137.384 14.4987 138.622 15.736C139.88 16.9733 140.51 18.808 140.51 21.24V31H137.438V21.592C137.438 19.9493 137.054 18.712 136.286 17.88C135.539 17.048 134.462 16.632 133.054 16.632C131.496 16.632 130.259 17.1227 129.342 18.104C128.424 19.064 127.966 20.4507 127.966 22.264V31H124.894V21.592C124.894 19.9493 124.51 18.712 123.742 17.88C122.995 17.048 121.918 16.632 120.51 16.632C118.952 16.632 117.715 17.1227 116.798 18.104C115.88 19.064 115.422 20.4507 115.422 22.264V31H112.35V14.04H115.294V16.568C115.912 15.6933 116.723 15.032 117.726 14.584C118.728 14.1147 119.87 13.88 121.15 13.88C122.472 13.88 123.646 14.1467 124.67 14.68C125.694 15.2133 126.483 15.992 127.038 17.016C127.678 16.0347 128.563 15.2667 129.694 14.712C130.846 14.1573 132.136 13.88 133.566 13.88ZM152.338 13.88C154.685 13.88 156.477 14.456 157.714 15.608C158.973 16.76 159.602 18.4773 159.602 20.76V31H156.69V28.76C156.178 29.5493 155.442 30.1573 154.482 30.584C153.543 30.9893 152.423 31.192 151.122 31.192C149.223 31.192 147.698 30.7333 146.546 29.816C145.415 28.8987 144.85 27.6933 144.85 26.2C144.85 24.7067 145.394 23.512 146.482 22.616C147.57 21.6987 149.298 21.24 151.666 21.24H156.53V20.632C156.53 19.3093 156.146 18.296 155.378 17.592C154.61 16.888 153.479 16.536 151.986 16.536C150.983 16.536 150.002 16.7067 149.042 17.048C148.082 17.368 147.271 17.8053 146.61 18.36L145.33 16.056C146.205 15.352 147.25 14.8187 148.466 14.456C149.682 14.072 150.973 13.88 152.338 13.88ZM151.634 28.824C152.807 28.824 153.821 28.568 154.674 28.056C155.527 27.5227 156.146 26.776 156.53 25.816V23.448H151.794C149.191 23.448 147.89 24.3227 147.89 26.072C147.89 26.9253 148.221 27.5973 148.882 28.088C149.543 28.5787 150.461 28.824 151.634 28.824ZM165.287 14.04H168.359V31H165.287V14.04ZM166.823 10.776C166.226 10.776 165.724 10.584 165.319 10.2C164.935 9.816 164.743 9.34667 164.743 8.792C164.743 8.23733 164.935 7.768 165.319 7.384C165.724 6.97867 166.226 6.776 166.823 6.776C167.42 6.776 167.911 6.968 168.295 7.352C168.7 7.71467 168.903 8.17333 168.903 8.728C168.903 9.304 168.7 9.79467 168.295 10.2C167.911 10.584 167.42 10.776 166.823 10.776ZM174.225 7.256H177.297V31H174.225V7.256ZM101.376 66.256C99.136 66.256 97.1093 65.7653 95.296 64.784C93.504 63.7813 92.096 62.416 91.072 60.688C90.048 58.9387 89.536 56.976 89.536 54.8C89.536 52.624 90.048 50.672 91.072 48.944C92.096 47.1947 93.5147 45.8293 95.328 44.848C97.1413 43.8453 99.168 43.344 101.408 43.344C103.157 43.344 104.757 43.6427 106.208 44.24C107.659 44.816 108.896 45.68 109.92 46.832L107.84 48.848C106.155 47.0773 104.053 46.192 101.536 46.192C99.872 46.192 98.368 46.5653 97.024 47.312C95.68 48.0587 94.624 49.0933 93.856 50.416C93.1093 51.7173 92.736 53.1787 92.736 54.8C92.736 56.4213 93.1093 57.8933 93.856 59.216C94.624 60.5173 95.68 61.5413 97.024 62.288C98.368 63.0347 99.872 63.408 101.536 63.408C104.032 63.408 106.133 62.512 107.84 60.72L109.92 62.736C108.896 63.888 107.648 64.7627 106.176 65.36C104.725 65.9573 103.125 66.256 101.376 66.256ZM120.582 66.192C118.897 66.192 117.382 65.8187 116.038 65.072C114.694 64.3253 113.638 63.3013 112.87 62C112.124 60.6773 111.75 59.184 111.75 57.52C111.75 55.856 112.124 54.3733 112.87 53.072C113.638 51.7493 114.694 50.7253 116.038 50C117.382 49.2533 118.897 48.88 120.582 48.88C122.268 48.88 123.772 49.2533 125.094 50C126.438 50.7253 127.484 51.7493 128.23 53.072C128.998 54.3733 129.382 55.856 129.382 57.52C129.382 59.184 128.998 60.6773 128.23 62C127.484 63.3013 126.438 64.3253 125.094 65.072C123.772 65.8187 122.268 66.192 120.582 66.192ZM120.582 63.504C121.67 63.504 122.641 63.2587 123.494 62.768C124.369 62.256 125.052 61.552 125.542 60.656C126.033 59.7387 126.278 58.6933 126.278 57.52C126.278 56.3467 126.033 55.312 125.542 54.416C125.052 53.4987 124.369 52.7947 123.494 52.304C122.641 51.8133 121.67 51.568 120.582 51.568C119.494 51.568 118.513 51.8133 117.638 52.304C116.785 52.7947 116.102 53.4987 115.59 54.416C115.1 55.312 114.854 56.3467 114.854 57.52C114.854 58.6933 115.1 59.7387 115.59 60.656C116.102 61.552 116.785 62.256 117.638 62.768C118.513 63.2587 119.494 63.504 120.582 63.504ZM142.687 48.88C144.841 48.88 146.548 49.5093 147.807 50.768C149.087 52.0053 149.727 53.8293 149.727 56.24V66H146.655V56.592C146.655 54.9493 146.26 53.712 145.471 52.88C144.681 52.048 143.551 51.632 142.079 51.632C140.415 51.632 139.103 52.1227 138.143 53.104C137.183 54.064 136.703 55.4507 136.703 57.264V66H133.631V49.04H136.575V51.6C137.193 50.7253 138.025 50.0533 139.071 49.584C140.137 49.1147 141.343 48.88 142.687 48.88ZM160.276 66.192C158.889 66.192 157.556 66.0107 156.276 65.648C154.996 65.264 153.993 64.784 153.268 64.208L154.548 61.776C155.295 62.3093 156.201 62.736 157.268 63.056C158.335 63.376 159.412 63.536 160.5 63.536C163.188 63.536 164.532 62.768 164.532 61.232C164.532 60.72 164.351 60.3147 163.988 60.016C163.625 59.7173 163.167 59.504 162.612 59.376C162.079 59.2267 161.311 59.0667 160.308 58.896C158.943 58.6827 157.823 58.4373 156.948 58.16C156.095 57.8827 155.359 57.4133 154.74 56.752C154.121 56.0907 153.812 55.1627 153.812 53.968C153.812 52.432 154.452 51.2053 155.732 50.288C157.012 49.3493 158.729 48.88 160.884 48.88C162.015 48.88 163.145 49.0187 164.276 49.296C165.407 49.5733 166.335 49.9467 167.06 50.416L165.748 52.848C164.361 51.952 162.729 51.504 160.852 51.504C159.551 51.504 158.559 51.7173 157.876 52.144C157.193 52.5707 156.852 53.136 156.852 53.84C156.852 54.3947 157.044 54.832 157.428 55.152C157.812 55.472 158.281 55.7067 158.836 55.856C159.412 56.0053 160.212 56.176 161.236 56.368C162.601 56.6027 163.7 56.8587 164.532 57.136C165.385 57.392 166.111 57.84 166.708 58.48C167.305 59.12 167.604 60.016 167.604 61.168C167.604 62.704 166.943 63.9307 165.62 64.848C164.319 65.744 162.537 66.192 160.276 66.192ZM187.251 49.04V66H184.339V63.44C183.721 64.3147 182.899 64.9973 181.875 65.488C180.873 65.9573 179.774 66.192 178.579 66.192C176.318 66.192 174.537 65.5733 173.235 64.336C171.934 63.0773 171.283 61.232 171.283 58.8V49.04H174.355V58.448C174.355 60.0907 174.75 61.3387 175.539 62.192C176.329 63.024 177.459 63.44 178.931 63.44C180.553 63.44 181.833 62.9493 182.771 61.968C183.71 60.9867 184.179 59.6 184.179 57.808V49.04H187.251ZM193.1 42.256H196.172V66H193.1V42.256Z" fill="#581093"/>
<g clip-path="url(#clip0)">
<path d="M37.4821 8.80374C37.4821 7.25528 36.2297 6 34.6849 6C33.14 6 31.8877 7.25528 31.8877 8.80374C31.8877 10.3522 33.14 11.6075 34.6849 11.6075C36.2297 11.6075 37.4821 10.3522 37.4821 8.80374Z" fill="#247EB1"/>
<path d="M11.1891 17.7757C11.1891 16.2272 9.93678 14.9719 8.39193 14.9719C6.84708 14.9719 5.59473 16.2272 5.59473 17.7757C5.59473 19.3241 6.84708 20.5794 8.39193 20.5794C9.93678 20.5794 11.1891 19.3241 11.1891 17.7757Z" fill="#06C6C6"/>
<path d="M20.4802 21.6646C21.3663 20.3962 21.0588 18.6479 19.7933 17.7598C18.5278 16.8716 16.7836 17.1799 15.8975 18.4483C15.0115 19.7167 15.319 21.465 16.5845 22.3531C17.8499 23.2413 19.5941 22.933 20.4802 21.6646Z" fill="#14A6BD"/>
<path d="M48.112 8.80374C48.112 7.25528 46.8596 6 45.3148 6C43.7699 6 42.5176 7.25528 42.5176 8.80374C42.5176 10.3522 43.7699 11.6075 45.3148 11.6075C46.8596 11.6075 48.112 10.3522 48.112 8.80374Z" fill="#3753A4"/>
<path d="M32.224 8.80371H6.71355C3.62385 8.80371 1.11914 11.3143 1.11914 14.4112V59.271C1.11914 62.368 3.62384 64.8785 6.71355 64.8785H73.287C76.3768 64.8785 78.8814 62.368 78.8814 59.271V36.8411V14.4112C78.8814 11.3143 76.3768 8.80371 73.287 8.80371H47.3672" stroke="url(#paint0_linear)" stroke-width="3"/>
<path d="M8.3916 15.5327V51.4206C8.3916 54.5175 10.8963 57.028 13.986 57.028H64.8951C67.9849 57.028 70.4895 54.5175 70.4895 51.4206V25.5236C70.4895 21.1462 65.7091 18.4567 61.981 20.737L43.2159 32.2146C41.4063 33.3214 39.1281 33.308 37.3316 32.1799L18.6727 20.4629" stroke="url(#paint1_linear)" stroke-width="3"/>
</g>
<defs>
<linearGradient id="paint0_linear" x1="1.00024" y1="37" x2="79.0002" y2="37" gradientUnits="userSpaceOnUse">
<stop stop-color="#06C6C6"/>
<stop offset="1" stop-color="#57068E"/>
</linearGradient>
<linearGradient id="paint1_linear" x1="8" y1="33" x2="70" y2="36" gradientUnits="userSpaceOnUse">
<stop stop-color="#06C6C6"/>
<stop offset="1" stop-color="#580E92"/>
</linearGradient>
<clipPath id="clip0">
<rect width="80" height="60" fill="white" transform="translate(0 6)"/>
</clipPath>
</defs>
</svg>
