<svg width="230" height="230" viewBox="0 0 230 230" fill="none" xmlns="http://www.w3.org/2000/svg">
<path d="M229.634 78.0378V119.102C229.634 125.21 224.663 130.181 218.555 130.181H183.689V142.884C189.377 144.277 193.861 148.762 195.254 154.454H226.242C228.316 154.454 230 156.133 230 158.212C230 160.287 228.316 161.97 226.242 161.97H195.254C193.566 168.86 187.337 173.996 179.926 173.996C172.52 173.996 166.292 168.86 164.598 161.97H65.3972C63.7085 168.86 57.48 173.996 50.0688 173.996C42.6627 173.996 36.4292 168.86 34.7405 161.97H3.75817C1.67865 161.97 0 160.287 0 158.212C0 156.133 1.67865 154.454 3.75817 154.454H34.7405C36.1336 148.762 40.6183 144.277 46.3107 142.884V130.181H11.4449C5.33159 130.181 0.360784 125.21 0.360784 119.102V67.084C0.360784 60.9757 5.33159 56.0049 11.4449 56.0049H37.9525C41.9412 56.0049 45.6392 58.1596 47.5985 61.6321L49.5878 65.1448C50.2142 66.2622 51.4068 66.9537 52.6895 66.9537H88.6928C94.8061 66.9537 99.7769 71.9245 99.7769 78.0378V119.102C99.7769 125.21 94.8061 130.181 88.6928 130.181H53.827V142.879C59.5144 144.277 64.0041 148.762 65.3972 154.454H164.598C165.996 148.762 170.481 144.277 176.173 142.879V130.181H141.302C135.189 130.181 130.223 125.21 130.223 119.102V67.084C130.223 60.9757 135.189 56.0049 141.302 56.0049H167.81C171.798 56.0049 175.497 58.1596 177.456 61.6321L179.445 65.1448C180.076 66.2622 181.264 66.9537 182.547 66.9537H218.555C224.663 66.9537 229.634 71.9245 229.634 78.0378ZM222.118 119.102V78.0378C222.118 76.0685 220.519 74.47 218.555 74.47H182.547C178.558 74.47 174.86 72.3153 172.901 68.8428L170.917 65.3302C170.285 64.2127 169.093 63.5212 167.81 63.5212H141.302C139.338 63.5212 137.739 65.1197 137.739 67.084V119.102C137.739 121.066 139.338 122.665 141.302 122.665H218.555C220.519 122.665 222.118 121.066 222.118 119.102ZM188.194 158.212C188.194 153.652 184.486 149.944 179.926 149.944C175.366 149.944 171.658 153.652 171.658 158.212C171.658 162.767 175.366 166.48 179.926 166.48C184.486 166.48 188.194 162.767 188.194 158.212ZM92.2606 119.102V78.0378C92.2606 76.0685 90.6621 74.47 88.6928 74.47H52.6895C48.7009 74.47 45.0028 72.3153 43.0436 68.8428L41.0542 65.3302C40.4229 64.2127 39.2353 63.5212 37.9525 63.5212H11.4449C9.48061 63.5212 7.87712 65.1197 7.87712 67.084V119.102C7.87712 121.066 9.48061 122.665 11.4449 122.665H88.6928C90.6621 122.665 92.2606 121.066 92.2606 119.102ZM58.3368 158.212C58.3368 153.652 54.6288 149.944 50.0688 149.944C45.5089 149.944 41.8009 153.652 41.8009 158.212C41.8009 162.767 45.5089 166.48 50.0688 166.48C54.6288 166.48 58.3368 162.767 58.3368 158.212Z" fill="black"/>
<path d="M222.118 78.038V119.102C222.118 121.067 220.519 122.665 218.555 122.665H141.302C139.338 122.665 137.739 121.067 137.739 119.102V67.0842C137.739 65.12 139.338 63.5215 141.302 63.5215H167.81C169.092 63.5215 170.285 64.213 170.916 65.3304L172.901 68.8431C174.86 72.3156 178.558 74.4703 182.547 74.4703H218.555C220.519 74.4703 222.118 76.0688 222.118 78.038Z" fill="#3DD0F2"/>
<path d="M179.926 149.944C184.486 149.944 188.194 153.652 188.194 158.212C188.194 162.767 184.486 166.48 179.926 166.48C175.366 166.48 171.658 162.767 171.658 158.212C171.658 153.652 175.366 149.944 179.926 149.944Z" fill="#B987D4"/>
<path d="M92.2604 78.038V119.102C92.2604 121.067 90.6619 122.665 88.6926 122.665H11.4447C9.48044 122.665 7.87695 121.067 7.87695 119.102V67.0842C7.87695 65.12 9.48044 63.5215 11.4447 63.5215H37.9523C39.2351 63.5215 40.4227 64.213 41.0541 65.3304L43.0434 68.8431C45.0027 72.3156 48.7007 74.4703 52.6894 74.4703H88.6926C90.6619 74.4703 92.2604 76.0688 92.2604 78.038Z" fill="#3DD0F2"/>
<path d="M50.0688 149.944C54.6287 149.944 58.3367 153.652 58.3367 158.212C58.3367 162.767 54.6287 166.48 50.0688 166.48C45.5088 166.48 41.8008 162.767 41.8008 158.212C41.8008 153.652 45.5088 149.944 50.0688 149.944Z" fill="#B987D4"/>
</svg>
