<svg width="35" height="35" viewBox="0 0 35 35" fill="none" xmlns="http://www.w3.org/2000/svg">
<path d="M33.6244 26.2977C30.4782 23.5769 27.5668 19.7383 27.5668 10.1543C27.5668 4.60388 23.0511 0.0883789 17.5006 0.0883789C11.9493 0.0883789 7.43306 4.60388 7.43306 10.1543C7.43306 19.747 4.52268 23.5818 1.37381 26.3003C0.50079 27.0606 0 28.1557 0 29.3047C0 29.9371 0.512699 30.4498 1.1451 30.4498H12.0121C12.5422 32.9939 14.8012 34.9114 17.5 34.9114C20.1988 34.9114 22.458 32.9941 22.9879 30.4498H33.8549C34.4873 30.4498 35 29.9371 35 29.3047C35 28.1463 34.498 27.0496 33.6244 26.2977ZM17.5 32.6212C16.074 32.6212 14.8554 31.716 14.3882 30.4498H20.6118C20.1446 31.716 18.926 32.6212 17.5 32.6212ZM2.74121 28.1596C2.78289 28.1144 2.82732 28.0714 2.8742 28.0306C7.67491 23.886 9.7231 18.5397 9.7231 10.1543C9.7231 5.8667 13.2121 2.37858 17.5005 2.37858C21.7882 2.37858 25.2764 5.8667 25.2764 10.1543C25.2764 18.5321 27.3249 23.8782 32.1281 28.0317C32.175 28.0721 32.2194 28.1147 32.2612 28.1596H2.74121Z" fill="#662D91"/>
</svg>
