<svg width="38" height="38" viewBox="0 0 38 38" fill="none" xmlns="http://www.w3.org/2000/svg">
<path d="M30.0319 23.5389C29.254 22.7289 28.3156 22.2958 27.3211 22.2958C26.3346 22.2958 25.3883 22.7209 24.5782 23.5309L22.0438 26.0573C21.8353 25.945 21.6268 25.8407 21.4263 25.7364C21.1376 25.5921 20.8649 25.4557 20.6323 25.3114C18.2583 23.8036 16.1009 21.8386 14.0317 19.2963C13.0292 18.0291 12.3555 16.9624 11.8663 15.8797C12.5239 15.2782 13.1334 14.6526 13.7269 14.0511C13.9515 13.8265 14.1761 13.5939 14.4006 13.3694C16.0849 11.6851 16.0849 9.50363 14.4006 7.8194L12.2111 5.6299C11.9625 5.38127 11.7059 5.12463 11.4653 4.86798C10.984 4.37073 10.4788 3.85744 9.95747 3.37623C9.17951 2.60629 8.24917 2.19727 7.27071 2.19727C6.29225 2.19727 5.34587 2.60629 4.54386 3.37623C4.53584 3.38425 4.53584 3.38425 4.52782 3.39227L1.80096 6.14319C0.774384 7.16977 0.188912 8.42091 0.0605897 9.87256C-0.131894 12.2145 0.55784 14.3959 1.08717 15.8235C2.38644 19.3283 4.32731 22.5765 7.22259 26.0573C10.7354 30.2518 14.962 33.5641 19.7902 35.898C21.6348 36.7722 24.097 37.8068 26.8479 37.9832C27.0163 37.9913 27.1928 37.9993 27.3532 37.9993C29.2058 37.9993 30.7618 37.3336 31.9808 36.0103C31.9888 35.9942 32.0049 35.9862 32.0129 35.9702C32.43 35.4649 32.9112 35.0078 33.4164 34.5185C33.7613 34.1897 34.1142 33.8448 34.4591 33.4839C35.253 32.6578 35.6701 31.6954 35.6701 30.7089C35.6701 29.7144 35.245 28.76 34.435 27.958L30.0319 23.5389ZM32.9031 31.9842C32.8951 31.9842 32.8951 31.9922 32.9031 31.9842C32.5904 32.321 32.2695 32.6258 31.9247 32.9626C31.4034 33.4599 30.874 33.9812 30.3768 34.5666C29.5668 35.4328 28.6124 35.8419 27.3612 35.8419C27.2409 35.8419 27.1126 35.8419 26.9923 35.8338C24.6103 35.6814 22.3967 34.7511 20.7366 33.9571C16.1971 31.7596 12.2111 28.6397 8.8988 24.6858C6.16393 21.3895 4.33533 18.3419 3.12429 15.0696C2.37842 13.0726 2.10573 11.5167 2.22603 10.049C2.30623 9.11065 2.66714 8.33269 3.33281 7.66702L6.06769 4.93214C6.46068 4.56321 6.87773 4.36271 7.28675 4.36271C7.79202 4.36271 8.20105 4.66748 8.4577 4.92412C8.46572 4.93214 8.47374 4.94016 8.48176 4.94818C8.97099 5.40533 9.43616 5.87852 9.92538 6.38379C10.174 6.64044 10.4307 6.89708 10.6873 7.16175L12.8768 9.35125C13.7269 10.2014 13.7269 10.9874 12.8768 11.8375C12.6442 12.0701 12.4197 12.3027 12.1871 12.5272C11.5134 13.217 10.8718 13.8586 10.174 14.4842C10.158 14.5002 10.1419 14.5082 10.1339 14.5243C9.44418 15.214 9.5725 15.8877 9.71686 16.3448C9.72488 16.3689 9.7329 16.393 9.74092 16.417C10.3104 17.7965 11.1124 19.0958 12.3314 20.6436L12.3395 20.6517C14.553 23.3785 16.8869 25.5039 19.4614 27.132C19.7902 27.3405 20.127 27.5089 20.4478 27.6693C20.7366 27.8137 21.0092 27.95 21.2418 28.0944C21.2739 28.1104 21.306 28.1345 21.3381 28.1505C21.6108 28.2869 21.8674 28.351 22.1321 28.351C22.7977 28.351 23.2148 27.934 23.3511 27.7976L26.094 25.0547C26.3667 24.782 26.7998 24.4532 27.3051 24.4532C27.8023 24.4532 28.2113 24.766 28.46 25.0387C28.468 25.0467 28.468 25.0467 28.476 25.0547L32.8951 29.4738C33.7212 30.2919 33.7212 31.134 32.9031 31.9842Z" fill="#E1E1E1"/>
<path d="M20.536 9.03946C22.6373 9.39235 24.5461 10.3868 26.0699 11.9107C27.5937 13.4345 28.5802 15.3433 28.9411 17.4446C29.0293 17.9739 29.4865 18.3428 30.0078 18.3428C30.072 18.3428 30.1281 18.3348 30.1923 18.3268C30.7857 18.2306 31.1787 17.6692 31.0825 17.0757C30.6494 14.5333 29.4464 12.2154 27.6098 10.3788C25.7732 8.54221 23.4553 7.33919 20.9129 6.9061C20.3194 6.80986 19.7661 7.20284 19.6618 7.78831C19.5575 8.37379 19.9425 8.94322 20.536 9.03946Z" fill="#E1E1E1"/>
<path d="M37.9559 16.7626C37.2421 12.5761 35.2691 8.7665 32.2375 5.73488C29.2059 2.70326 25.3963 0.730301 21.2098 0.0165067C20.6243 -0.0877554 20.0709 0.313253 19.9666 0.898724C19.8704 1.49222 20.2634 2.04561 20.8569 2.14987C24.5943 2.78346 28.0028 4.55592 30.7137 7.25871C33.4245 9.96953 35.1889 13.3781 35.8225 17.1155C35.9107 17.6448 36.3679 18.0137 36.8892 18.0137C36.9533 18.0137 37.0095 18.0057 37.0736 17.9977C37.6591 17.9095 38.0601 17.3481 37.9559 16.7626Z" fill="#E1E1E1"/>
</svg>
