<svg width="230" height="230" viewBox="0 0 230 230" fill="none" xmlns="http://www.w3.org/2000/svg">
<path d="M226.71 84.2006V199.167C226.71 208.295 219.289 215.721 210.161 215.721H156.337L162.461 222.312H171.712C173.834 222.312 175.556 224.029 175.556 226.156C175.556 228.278 173.834 230 171.712 230H58.2933C56.1664 230 54.4495 228.278 54.4495 226.156C54.4495 224.029 56.1664 222.312 58.2933 222.312H67.5442L73.6636 215.721H19.8447C10.7168 215.721 3.29053 208.295 3.29053 199.167V84.2006C3.29053 75.0727 10.7168 67.6465 19.8447 67.6465H67.17C65.2481 62.2446 64.2743 56.5762 64.2743 50.7233C64.2743 22.7555 87.0299 0 115.003 0C142.971 0 165.721 22.7555 165.721 50.7233C165.721 56.5762 164.752 62.2446 162.83 67.6465H210.161C219.289 67.6465 226.71 75.0727 226.71 84.2006ZM219.022 194.919V88.4493H188.333C188.994 92.4572 189.332 96.5316 189.332 100.611C189.332 141.597 155.988 174.946 115.003 174.946C74.0121 174.946 40.668 141.597 40.668 100.611C40.668 96.5316 41.0063 92.4572 41.6623 88.4493H10.9782V194.919H219.022ZM11.6752 80.7616H218.33C216.982 77.5738 213.83 75.3341 210.161 75.3341H19.8447C16.1751 75.3341 13.018 77.5738 11.6752 80.7616ZM218.33 202.606H11.6752C13.018 205.794 16.1751 208.034 19.8447 208.034H210.161C213.83 208.034 216.982 205.794 218.33 202.606ZM181.645 100.611C181.645 96.5265 181.265 92.4469 180.533 88.4493H169.452C170.339 92.4264 170.795 96.4958 170.795 100.611C170.795 131.372 145.769 156.403 115.003 156.403C84.2367 156.403 59.2056 131.372 59.2056 100.611C59.2056 96.4958 59.6617 92.4264 60.5484 88.4493H49.4679C48.735 92.4469 48.3557 96.5265 48.3557 100.611C48.3557 137.358 78.2505 167.258 115.003 167.258C151.75 167.258 181.645 137.358 181.645 100.611ZM163.107 100.611C163.107 96.4855 162.579 92.4059 161.549 88.4493H118.847V97.1774C122.204 97.9 125.284 99.5657 127.759 102.051C131.162 105.454 133.038 109.985 133.038 114.808C133.038 119.631 131.162 124.161 127.754 127.569C125.279 130.05 122.204 131.716 118.847 132.438V135.58C118.847 137.702 117.125 139.424 115.003 139.424C112.881 139.424 111.159 137.702 111.159 135.58V132.438C107.807 131.716 104.727 130.05 102.241 127.569C98.8382 124.161 96.9624 119.631 96.9624 114.808C96.9624 112.686 98.6793 110.964 100.806 110.964C102.928 110.964 104.65 112.686 104.65 114.808C104.65 117.575 105.726 120.174 107.679 122.132C108.689 123.141 109.873 123.91 111.159 124.423V104.04C107.807 103.317 104.727 101.652 102.241 99.1711C99.3199 96.2497 97.5312 92.4982 97.0802 88.4493H68.4513C67.4212 92.4059 66.8933 96.4855 66.8933 100.611C66.8933 127.134 88.4752 148.716 115.003 148.716C141.53 148.716 163.107 127.134 163.107 100.611ZM154.579 67.6465C156.87 62.3112 158.033 56.6274 158.033 50.7233C158.033 26.994 138.732 7.68768 115.003 7.68768C91.2735 7.68768 71.962 26.994 71.962 50.7233C71.962 56.6274 73.1254 62.3112 75.4215 67.6465H80.5312C77.9533 62.424 76.6054 56.6838 76.6054 50.7233C76.6054 29.5514 93.8309 12.3259 115.003 12.3259C136.17 12.3259 153.395 29.5514 153.395 50.7233C153.395 56.6838 152.047 62.424 149.474 67.6465H154.579ZM151.965 222.312L145.846 215.721H84.1598L78.0353 222.312H151.965ZM140.618 67.6465C143.949 62.629 145.707 56.8222 145.707 50.7233C145.707 33.7899 131.931 20.0136 115.003 20.0136C98.0694 20.0136 84.2931 33.7899 84.2931 50.7233C84.2931 56.8222 86.051 62.6341 89.3823 67.6465H104.66C103.133 65.54 102.226 62.957 102.226 60.1638C102.226 58.3239 103.717 56.8325 105.557 56.8325C107.397 56.8325 108.889 58.3239 108.889 60.1638C108.889 62.3061 110.001 64.187 111.671 65.2786V53.6087C106.239 52.143 102.226 47.1716 102.226 41.2777C102.226 35.389 106.239 30.4176 111.671 28.9467V27.4604C111.671 25.6205 113.163 24.1291 115.003 24.1291C116.843 24.1291 118.334 25.6205 118.334 27.4604V28.9518C123.767 30.4176 127.775 35.389 127.775 41.2777C127.775 43.1176 126.283 44.609 124.443 44.609C122.603 44.609 121.112 43.1176 121.112 41.2777C121.112 39.1405 120.005 37.2545 118.334 36.1628V47.8327C123.767 49.3037 127.775 54.275 127.775 60.1638C127.775 62.957 126.873 65.54 125.345 67.6465H140.618ZM125.35 114.808C125.35 112.04 124.274 109.437 122.321 107.484C121.312 106.474 120.133 105.706 118.847 105.193V124.423C120.133 123.91 121.312 123.141 122.316 122.137C124.274 120.174 125.35 117.575 125.35 114.808ZM121.112 60.1638C121.112 58.0215 120.005 56.1406 118.334 55.0489V65.2786C120.005 64.187 121.112 62.3061 121.112 60.1638ZM111.671 46.3977V36.1628C110.001 37.2545 108.889 39.1405 108.889 41.2777C108.889 43.42 110.001 45.3061 111.671 46.3977ZM111.159 96.0242V88.4493H104.85C105.245 90.4379 106.213 92.2675 107.679 93.7333C108.689 94.743 109.873 95.5117 111.159 96.0242Z" fill="black"/>
<path d="M218.33 80.7615H11.6753C13.0181 77.5737 16.1751 75.334 19.8447 75.334H210.161C213.831 75.334 216.982 77.5737 218.33 80.7615Z" fill="#3DD0F2"/>
<path d="M11.6753 202.605H218.33C216.982 205.793 213.831 208.033 210.161 208.033H19.8447C16.1751 208.033 13.0181 205.793 11.6753 202.605Z" fill="#3DD0F2"/>
<path d="M180.532 88.4492C181.265 92.4468 181.644 96.5264 181.644 100.611C181.644 137.358 151.75 167.258 115.003 167.258C78.2503 167.258 48.3555 137.358 48.3555 100.611C48.3555 96.5264 48.7347 92.4468 49.4676 88.4492H60.5481C59.6615 92.4263 59.2053 96.4957 59.2053 100.611C59.2053 131.372 84.2364 156.403 115.003 156.403C145.769 156.403 170.795 131.372 170.795 100.611C170.795 96.4957 170.338 92.4263 169.452 88.4492H180.532Z" fill="#B987D4"/>
<path d="M161.549 88.4492C162.579 92.4058 163.107 96.4854 163.107 100.611C163.107 127.134 141.53 148.716 115.003 148.716C88.4749 148.716 66.8931 127.134 66.8931 100.611C66.8931 96.4854 67.421 92.4058 68.4511 88.4492H97.08C97.531 92.4981 99.3197 96.2497 102.241 99.171C104.727 101.652 107.807 103.317 111.159 104.04V124.422C109.872 123.91 108.688 123.141 107.679 122.132C105.726 120.174 104.65 117.575 104.65 114.808C104.65 112.686 102.928 110.964 100.806 110.964C98.6791 110.964 96.9621 112.686 96.9621 114.808C96.9621 119.63 98.8379 124.161 102.241 127.569C104.727 130.05 107.807 131.715 111.159 132.438V135.58C111.159 137.702 112.881 139.424 115.003 139.424C117.124 139.424 118.846 137.702 118.846 135.58V132.438C122.203 131.715 125.278 130.05 127.754 127.569C131.162 124.161 133.038 119.63 133.038 114.808C133.038 109.985 131.162 105.454 127.759 102.051C125.284 99.5656 122.203 97.8999 118.846 97.1773V88.4492H161.549Z" fill="white"/>
<path d="M158.033 50.7231C158.033 56.6273 156.87 62.311 154.579 67.6463H149.474C152.047 62.4238 153.395 56.6836 153.395 50.7231C153.395 29.5513 136.169 12.3257 115.003 12.3257C93.8308 12.3257 76.6053 29.5513 76.6053 50.7231C76.6053 56.6836 77.9532 62.4238 80.5311 67.6463H75.4214C73.1253 62.311 71.9619 56.6273 71.9619 50.7231C71.9619 26.9938 91.2734 7.6875 115.003 7.6875C138.732 7.6875 158.033 26.9938 158.033 50.7231Z" fill="#B987D4"/>
<path d="M145.846 215.722L151.965 222.313H78.0352L84.1597 215.722H145.846Z" fill="#3DD0F2"/>
<path d="M145.707 50.7234C145.707 56.8223 143.949 62.629 140.618 67.6465H125.345C126.872 65.5401 127.774 62.957 127.774 60.1639C127.774 54.2751 123.767 49.3037 118.334 47.8328V36.1629C120.005 37.2546 121.112 39.1406 121.112 41.2778C121.112 43.1177 122.603 44.6091 124.443 44.6091C126.283 44.6091 127.774 43.1177 127.774 41.2778C127.774 35.389 123.767 30.4177 118.334 28.9519V27.4605C118.334 25.6206 116.843 24.1291 115.003 24.1291C113.163 24.1291 111.671 25.6206 111.671 27.4605V28.9468C106.239 30.4177 102.226 35.389 102.226 41.2778C102.226 47.1717 106.239 52.143 111.671 53.6088V65.2787C110.001 64.1871 108.888 62.3062 108.888 60.1639C108.888 58.3239 107.397 56.8325 105.557 56.8325C103.717 56.8325 102.226 58.3239 102.226 60.1639C102.226 62.957 103.133 65.5401 104.66 67.6465H89.3822C86.0509 62.6342 84.293 56.8223 84.293 50.7234C84.293 33.79 98.0693 20.0137 115.003 20.0137C131.931 20.0137 145.707 33.79 145.707 50.7234Z" fill="white"/>
<path d="M122.322 107.484C124.274 109.437 125.35 112.041 125.35 114.808C125.35 117.576 124.274 120.174 122.316 122.137C121.312 123.142 120.133 123.91 118.847 124.423V105.193C120.133 105.706 121.312 106.475 122.322 107.484Z" fill="white"/>
<path d="M118.334 55.0488C120.005 56.1405 121.112 58.0214 121.112 60.1637C121.112 62.306 120.005 64.1869 118.334 65.2786V55.0488Z" fill="white"/>
<path d="M111.672 36.1631V46.398C110.001 45.3063 108.889 43.4203 108.889 41.278C108.889 39.1408 110.001 37.2547 111.672 36.1631Z" fill="white"/>
<path d="M111.159 88.4492V96.0242C109.872 95.5116 108.688 94.7429 107.679 93.7332C106.213 92.2674 105.244 90.4378 104.85 88.4492H111.159Z" fill="white"/>
</svg>
