<svg width="230" height="230" viewBox="0 0 230 230" fill="none" xmlns="http://www.w3.org/2000/svg">
<g clip-path="url(#clip0)">
<path d="M204.174 203.331C204.174 205.512 202.408 207.273 200.231 207.273C186.421 207.273 172.421 205.907 169.367 205.591C166.444 206.159 163.521 206.679 160.593 207.158L162.369 223.234C162.485 224.275 162.18 225.316 161.528 226.131C160.871 226.946 159.92 227.471 158.879 227.587C144.301 229.196 129.617 230 114.934 230C100.251 230 85.5678 229.196 70.9898 227.587C69.9489 227.471 68.9973 226.946 68.3455 226.131C67.6936 225.316 67.3886 224.275 67.5043 223.234L69.2812 207.137C66.3951 206.664 63.5141 206.154 60.6332 205.591C57.5788 205.907 43.5791 207.273 29.7685 207.273C27.5921 207.273 25.8257 205.512 25.8257 203.331C25.8257 188.516 31.4035 171.367 42.4015 152.363C49.1989 140.618 55.9228 131.954 58.1045 129.231C59.6081 119.805 61.6268 110.358 64.1608 100.895C73.5605 65.8247 89.5896 32.4261 111.806 1.63497C112.542 0.604571 113.736 0 115.003 0C116.27 0 117.458 0.604571 118.199 1.63497C140.41 32.4261 156.439 65.8247 165.839 100.895C168.373 110.358 170.392 119.805 171.895 129.231C174.077 131.949 180.801 140.618 187.598 152.363C198.596 171.367 204.174 188.516 204.174 203.331ZM196.136 199.351C194.659 179.468 182.62 158.324 173.982 145.486C175.702 163.197 175.575 180.772 173.604 198.073C178.467 198.51 187.167 199.177 196.136 199.351ZM165.645 198.278C169.335 167.167 166.843 135.109 158.222 102.94C154.147 87.7417 148.795 72.8587 142.198 58.3806C133.734 62.3497 124.413 64.4315 114.997 64.4315C105.587 64.4315 96.2661 62.3497 87.8021 58.3806C81.2044 72.864 75.8526 87.7417 71.7784 102.94C63.1567 135.109 60.6648 167.167 64.3553 198.278C97.9747 204.534 132.025 204.534 165.645 198.278ZM154.095 220.159L152.786 208.32C140.216 210.012 127.609 210.859 115.003 210.859C102.349 210.859 89.6947 210.007 77.0881 208.304L75.7738 220.159C101.781 222.766 128.088 222.766 154.095 220.159ZM138.828 51.2519C132.036 37.3415 124.082 23.8201 115.003 10.7614C105.918 23.8201 97.9642 37.3467 91.172 51.2519C98.5845 54.7216 106.749 56.5458 114.997 56.5458C123.251 56.5458 131.415 54.7216 138.828 51.2519ZM56.396 198.073C54.4298 180.777 54.2984 163.208 56.0175 145.502C47.38 158.35 35.3464 179.495 33.8639 199.351C42.8431 199.177 51.5384 198.51 56.396 198.073Z" fill="black"/>
<path d="M173.983 145.486C182.62 158.324 194.659 179.469 196.136 199.351C187.167 199.178 178.467 198.51 173.604 198.074C175.575 180.772 175.702 163.198 173.983 145.486Z" fill="#B987D4"/>
<path d="M158.222 102.94C166.843 135.109 169.335 167.167 165.645 198.279C132.025 204.535 97.9747 204.535 64.3553 198.279C60.6648 167.167 63.1567 135.109 71.7784 102.94C75.8527 87.742 81.2045 72.8643 87.8022 58.3809C96.2662 62.35 105.587 64.4318 114.997 64.4318C124.413 64.4318 133.734 62.35 142.198 58.3809C148.796 72.859 154.147 87.742 158.222 102.94ZM153.574 127.628C153.574 106.615 136.478 89.5137 115.46 89.5137C94.4472 89.5137 77.3457 106.615 77.3457 127.628C77.3457 148.646 94.4472 165.742 115.46 165.742C136.478 165.742 153.574 148.646 153.574 127.628Z" fill="white"/>
<path d="M152.786 208.319L154.095 220.159C128.088 222.766 101.781 222.766 75.7739 220.159L77.0882 208.304C89.6948 210.007 102.349 210.859 115.003 210.859C127.609 210.859 140.216 210.012 152.786 208.319Z" fill="#3DD0F2"/>
<path d="M115.46 89.5137C136.478 89.5137 153.574 106.615 153.574 127.628C153.574 148.646 136.478 165.742 115.46 165.742C94.4472 165.742 77.3457 148.646 77.3457 127.628C77.3457 106.615 94.4472 89.5137 115.46 89.5137ZM145.689 127.628C145.689 110.963 132.13 97.3994 115.46 97.3994C98.7948 97.3994 85.2314 110.963 85.2314 127.628C85.2314 144.298 98.7948 157.856 115.46 157.856C132.13 157.856 145.689 144.298 145.689 127.628Z" fill="black"/>
<path d="M115.46 97.3994C132.13 97.3994 145.689 110.963 145.689 127.628C145.689 144.298 132.13 157.857 115.46 157.857C98.7949 157.857 85.2314 144.298 85.2314 127.628C85.2314 110.963 98.7949 97.3994 115.46 97.3994ZM138.965 127.628C138.965 114.669 128.424 104.123 115.46 104.123C102.501 104.123 91.9553 114.669 91.9553 127.628C91.9553 140.592 102.501 151.138 115.46 151.138C128.424 151.138 138.965 140.592 138.965 127.628Z" fill="#3DD0F2"/>
<path d="M115.46 104.123C128.424 104.123 138.964 114.669 138.964 127.628C138.964 140.592 128.424 151.138 115.46 151.138C102.501 151.138 91.9551 140.592 91.9551 127.628C91.9551 114.669 102.501 104.123 115.46 104.123ZM131.079 127.628C131.079 122.986 129.039 118.806 125.811 115.946L110.229 142.348C111.864 142.931 113.625 143.252 115.46 143.252C124.076 143.252 131.079 136.244 131.079 127.628ZM103.7 137.895L118.767 112.366C117.699 112.135 116.595 112.009 115.46 112.009C106.849 112.009 99.8408 119.017 99.8408 127.628C99.8408 131.555 101.302 135.145 103.7 137.895Z" fill="black"/>
<path d="M115.003 10.7617C124.082 23.8205 132.036 37.3418 138.828 51.2522C131.415 54.7219 123.251 56.5462 114.997 56.5462C106.749 56.5462 98.5844 54.7219 91.1719 51.2522C97.9641 37.3471 105.918 23.8205 115.003 10.7617Z" fill="#B987D4"/>
<path d="M56.0174 145.502C54.2983 163.208 54.4297 180.777 56.3959 198.073C51.5383 198.51 42.843 199.177 33.8638 199.351C35.3463 179.495 47.3799 158.35 56.0174 145.502Z" fill="#B987D4"/>
</g>
<defs>
<clipPath id="clip0">
<rect width="230" height="230" fill="white"/>
</clipPath>
</defs>
</svg>
