<svg width="230" height="230" viewBox="0 0 230 230" fill="none" xmlns="http://www.w3.org/2000/svg">
<path d="M230 48.3464V166.952C230 176.273 222.417 183.856 213.096 183.856H157.49L163.854 190.707H173.395C175.562 190.707 177.32 192.465 177.32 194.632C177.32 196.799 175.562 198.557 173.395 198.557H56.6051C54.4332 198.557 52.68 196.799 52.68 194.632C52.68 192.465 54.4332 190.707 56.6051 190.707H66.1457L72.5096 183.856H16.9041C7.58328 183.856 0 176.273 0 166.952V48.3464C0 39.0257 7.58328 31.4424 16.9041 31.4424H213.096C222.417 31.4424 230 39.0257 230 48.3464ZM222.15 162.504V52.8001H7.85019V162.504H222.15ZM8.52007 44.9499H221.48C220.13 41.6372 216.885 39.2926 213.096 39.2926H16.9041C13.115 39.2926 9.86507 41.6372 8.52007 44.9499ZM221.48 170.354H8.52007C9.86507 173.662 13.115 176.006 16.9041 176.006H213.096C216.885 176.006 220.13 173.662 221.48 170.354ZM153.136 190.707L146.772 183.856H83.2224L76.8586 190.707H153.136Z" fill="black"/>
<path d="M221.48 44.9503H8.52002C9.86502 41.6376 13.115 39.293 16.904 39.293H213.096C216.885 39.293 220.13 41.6376 221.48 44.9503Z" fill="#3DD0F2"/>
<path d="M8.52002 170.354H221.48C220.13 173.662 216.885 176.007 213.096 176.007H16.904C13.115 176.007 9.86502 173.662 8.52002 170.354Z" fill="#3DD0F2"/>
<path d="M195.82 83.2847C200.562 88.0262 200.562 95.7455 195.82 100.492C193.45 102.863 190.33 104.051 187.216 104.051C185.249 104.051 183.281 103.575 181.502 102.628L150.158 127.335C150.87 128.92 151.226 130.627 151.226 132.333C151.226 135.441 150.043 138.55 147.672 140.916C145.302 143.292 142.188 144.474 139.069 144.474C135.955 144.474 132.841 143.292 130.465 140.916C126.801 137.252 125.98 131.809 127.984 127.335L96.641 102.628C94.8616 103.575 92.8939 104.051 90.9261 104.051C88.9583 104.051 86.9905 103.575 85.2111 102.628L53.868 127.335C55.8724 131.809 55.0507 137.252 51.3873 140.916C49.0113 143.292 45.8974 144.474 42.7783 144.474C39.6644 144.474 36.5504 143.292 34.1797 140.916C29.4329 136.174 29.4329 128.455 34.1797 123.713C38.0472 119.84 43.8982 119.129 48.4984 121.578L79.8364 96.8655C77.8372 92.3909 78.6536 86.9533 82.3223 83.2847C87.069 78.5379 94.7831 78.5379 99.5299 83.2847C103.199 86.9533 104.015 92.3909 102.016 96.8655L133.354 121.578C136.918 119.683 141.225 119.683 144.789 121.578L176.122 96.8707C175.425 95.3216 175.049 93.6365 175.049 91.8885C175.049 88.6385 176.315 85.5822 178.613 83.2847C183.354 78.5379 191.074 78.5379 195.82 83.2847ZM190.268 94.9396C191.953 93.2596 191.953 90.5173 190.268 88.8374C189.425 87.9948 188.321 87.5709 187.216 87.5709C186.112 87.5709 185.003 87.9948 184.165 88.8374C183.349 89.6486 182.899 90.7371 182.899 91.8885C182.899 93.0398 183.349 94.1232 184.165 94.9396C185.845 96.6248 188.588 96.6248 190.268 94.9396ZM142.125 135.368C143.805 133.683 143.805 130.946 142.125 129.261C141.282 128.418 140.178 127.999 139.069 127.999C137.964 127.999 136.86 128.418 136.018 129.261C134.332 130.946 134.332 133.683 136.018 135.368C137.703 137.048 140.44 137.048 142.125 135.368ZM93.9772 94.9396C95.6624 93.2596 95.6624 90.5173 93.9772 88.8374C93.1346 87.9948 92.0303 87.5709 90.9261 87.5709C89.8218 87.5709 88.7123 87.9948 87.875 88.8374C86.1898 90.5173 86.1898 93.2596 87.875 94.9396C89.5549 96.6248 92.2972 96.6248 93.9772 94.9396ZM45.8346 135.368C47.5145 133.683 47.5145 130.946 45.8346 129.261C44.992 128.418 43.8878 127.999 42.7783 127.999C41.674 127.999 40.5697 128.418 39.7272 129.261C38.0472 130.946 38.0472 133.683 39.7272 135.368C41.4123 137.053 44.1494 137.048 45.8346 135.368Z" fill="black"/>
<path d="M190.268 88.8378C191.953 90.5177 191.953 93.2601 190.268 94.94C188.588 96.6252 185.845 96.6252 184.165 94.94C183.349 94.1236 182.899 93.0403 182.899 91.8889C182.899 90.7375 183.349 89.649 184.165 88.8378C185.003 87.9952 186.112 87.5713 187.217 87.5713C188.321 87.5713 189.425 87.9952 190.268 88.8378Z" fill="#B987D4"/>
<path d="M146.772 183.855L153.136 190.706H76.8584L83.2223 183.855H146.772Z" fill="#3DD0F2"/>
<path d="M142.125 129.261C143.805 130.946 143.805 133.684 142.125 135.369C140.44 137.049 137.703 137.049 136.018 135.369C134.333 133.684 134.333 130.946 136.018 129.261C136.86 128.419 137.965 128 139.069 128C140.178 128 141.283 128.419 142.125 129.261Z" fill="#B987D4"/>
<path d="M93.9769 88.8378C95.6621 90.5177 95.6621 93.2601 93.9769 94.94C92.297 96.6252 89.5547 96.6252 87.8747 94.94C86.1895 93.2601 86.1895 90.5177 87.8747 88.8378C88.7121 87.9952 89.8216 87.5713 90.9258 87.5713C92.0301 87.5713 93.1343 87.9952 93.9769 88.8378Z" fill="#B987D4"/>
<path d="M45.8347 129.261C47.5146 130.946 47.5146 133.684 45.8347 135.369C44.1495 137.049 41.4124 137.054 39.7272 135.369C38.0473 133.684 38.0473 130.946 39.7272 129.261C40.5698 128.419 41.6741 128 42.7783 128C43.8878 128 44.9921 128.419 45.8347 129.261Z" fill="#B987D4"/>
</svg>
