<svg width="230" height="230" viewBox="0 0 230 230" fill="none" xmlns="http://www.w3.org/2000/svg">
<path d="M228.077 213.144C229.571 215.755 229.959 218.789 229.168 221.694C228.377 224.593 226.506 227.018 223.896 228.511C222.169 229.499 220.257 230 218.324 230C217.331 230 216.328 229.871 215.346 229.602C212.447 228.811 210.023 226.94 208.529 224.33L179.17 173.014C175.03 174.182 170.801 174.756 166.604 174.756C162.531 174.756 158.489 174.218 154.582 173.179C138.01 185.682 118.296 192.361 97.4351 192.516C97.187 192.521 96.9389 192.526 96.6908 192.526C96.4375 192.526 96.1894 192.521 95.9413 192.516C70.3917 192.324 46.398 182.23 28.3898 164.092C10.361 145.939 0.431641 121.847 0.431641 96.2617C0.431641 70.6708 10.361 46.5841 28.3898 28.4311C46.4032 10.2937 70.3917 0.199 95.9464 0.00775324C96.4375 -0.00258441 96.9389 -0.00258441 97.4299 0.00775324C147.95 0.385078 189.43 39.6682 192.738 89.8213C195.565 91.7441 198.201 93.9926 200.584 96.5511C202.962 99.1149 205.091 101.984 206.901 105.147C213.072 115.929 214.674 128.474 211.413 140.46C209.159 148.741 204.771 156.07 198.723 161.844L228.077 213.144ZM221.689 219.657C221.931 218.753 221.813 217.807 221.347 216.995L192.604 166.754C191.637 167.405 190.65 168.036 189.631 168.62C188.603 169.209 187.564 169.747 186.52 170.248L215.259 220.479C215.724 221.291 216.478 221.875 217.383 222.123C218.287 222.366 219.233 222.247 220.045 221.782C220.856 221.316 221.44 220.562 221.689 219.657ZM203.934 138.424C204.854 135.038 205.309 131.606 205.309 128.19C205.309 121.522 203.572 114.937 200.171 108.998C193.022 96.4995 179.919 89.4905 166.46 89.4905C159.937 89.4905 153.331 91.1342 147.278 94.6025C128.722 105.214 122.266 128.944 132.883 147.5C140.031 159.993 153.134 167.002 166.594 167.002C173.117 167.002 179.723 165.359 185.781 161.89C194.764 156.753 201.215 148.415 203.934 138.424ZM184.535 85.3813C182.597 69.5182 176.487 54.9938 167.343 42.909C161.554 46.6099 154.99 49.8249 147.748 52.5024C150.7 62.2766 152.612 72.7022 153.45 83.6032C163.849 80.5536 174.838 81.3186 184.535 85.3813ZM145.283 45.1471C151.579 42.8057 157.295 40.0403 162.361 36.8822C152.297 25.764 139.447 17.2303 124.933 12.3561C125.569 12.9557 126.2 13.5708 126.82 14.2169C134.299 21.9546 140.636 32.5972 145.283 45.1471ZM145.883 86.565C145.2 75.4365 143.355 64.8352 140.393 54.9524C128.086 58.6481 114.466 60.7415 100.567 61.0671V92.3851H136.899C138.91 90.7207 141.086 89.2114 143.427 87.8727C144.234 87.4075 145.055 86.9733 145.883 86.565ZM145.836 169.887C142.807 168.388 139.928 166.558 137.261 164.408C133.581 170.626 129.446 175.913 124.907 180.198C132.268 177.733 139.287 174.28 145.836 169.887ZM129.466 100.138H100.567V131.451C107.245 131.606 113.836 132.175 120.271 133.126C119.051 121.398 122.349 109.551 129.466 100.138ZM131.508 158.867C129.513 156.587 127.714 154.08 126.153 151.351C124.282 148.084 122.861 144.683 121.853 141.225C114.942 140.062 107.809 139.385 100.567 139.204V184.483C112.104 182.809 123.15 173.686 131.508 158.867ZM137.923 47.5972C129.466 24.9215 115.557 10.211 100.567 8.03495V53.3139C113.624 52.9883 126.391 51.0344 137.923 47.5972ZM92.8141 184.488V139.21C79.7525 139.535 66.9855 141.489 55.459 144.926C63.9152 167.607 77.8245 182.318 92.8141 184.488ZM92.8141 131.451V100.138H47.2561C47.5817 113.226 49.5407 126.024 52.9935 137.571C65.3005 133.875 78.9151 131.782 92.8141 131.451ZM92.8141 92.3851V61.0671C78.9151 60.7415 65.3005 58.6481 52.9935 54.9524C49.5407 66.4996 47.5817 79.2924 47.2561 92.3851H92.8141ZM92.8141 53.3139V8.03495C77.8194 10.2059 63.91 24.9163 55.459 47.5972C66.9855 51.0344 79.7525 52.9883 92.8141 53.3139ZM66.5565 14.2169C67.1871 13.5656 67.8177 12.9402 68.4586 12.3302C55.5624 16.6566 43.7516 23.9653 33.8895 33.8946C32.9126 34.8767 31.9667 35.8794 31.0415 36.8977C36.1017 40.0455 41.8133 42.8108 48.0986 45.1471C52.7454 32.5972 59.0772 21.9546 66.5565 14.2169ZM68.4741 180.198C67.828 179.588 67.1922 178.963 66.5616 178.307C59.0823 170.569 52.7454 159.926 48.0986 147.376C41.8081 149.718 36.1017 152.478 31.0415 155.626C31.9667 156.644 32.9126 157.647 33.8895 158.629C43.7516 168.563 55.5675 175.872 68.4741 180.198ZM39.5028 92.3851C39.8285 78.4603 41.927 64.8197 45.6331 52.5024C38.4019 49.8301 31.8426 46.6203 26.0535 42.9194C15.2352 57.1853 9.04291 74.3045 8.27275 92.3851H39.5028ZM45.6331 140.021C41.927 127.704 39.8285 114.063 39.5028 100.138H8.27275C9.04291 118.219 15.2352 135.338 26.0535 149.604C31.8374 145.908 38.3967 142.693 45.6331 140.021Z" fill="black"/>
<path d="M221.348 216.995C221.813 217.806 221.932 218.752 221.689 219.657C221.441 220.561 220.857 221.316 220.045 221.781C219.234 222.246 218.288 222.365 217.383 222.122C216.479 221.874 215.724 221.29 215.259 220.479L186.52 170.248C187.564 169.747 188.603 169.209 189.632 168.62C190.65 168.036 191.637 167.405 192.604 166.754L221.348 216.995Z" fill="#B987D4"/>
<path d="M205.308 128.19C205.308 131.606 204.854 135.038 203.934 138.424C201.215 148.415 194.764 156.753 185.781 161.89C179.723 165.359 173.117 167.002 166.594 167.002C153.134 167.002 140.031 159.994 132.883 147.5C122.266 128.944 128.722 105.214 147.278 94.6027C153.331 91.1344 159.936 89.4907 166.46 89.4907C179.919 89.4907 193.022 96.4997 200.171 108.998C203.572 114.937 205.308 121.522 205.308 128.19ZM199.943 137.339C202.373 128.417 201.179 119.077 196.583 111.05C190.2 99.8852 178.493 93.6206 166.47 93.6206C160.645 93.6206 154.742 95.0937 149.33 98.1899C132.754 107.675 126.985 128.872 136.47 145.448C141.065 153.476 148.508 159.234 157.435 161.663C160.458 162.485 163.529 162.893 166.584 162.893C172.538 162.893 178.42 161.343 183.723 158.303C191.756 153.713 197.514 146.265 199.943 137.339Z" fill="#3DD0F2"/>
<path d="M196.583 111.05C201.178 119.077 202.372 128.417 199.943 137.339C197.514 146.265 191.756 153.713 183.723 158.303C178.42 161.343 172.538 162.893 166.583 162.893C163.529 162.893 160.458 162.485 157.435 161.663C148.508 159.234 141.065 153.476 136.47 145.448C126.985 128.872 132.753 107.675 149.33 98.1898C154.742 95.0937 160.644 93.6206 166.47 93.6206C178.492 93.6206 190.2 99.8852 196.583 111.05ZM192.464 135.302C194.345 128.376 193.42 121.129 189.853 114.901C185.248 106.842 177.071 102.082 168.444 101.451C168.155 110.518 167.116 119.46 165.374 127.973C167.741 128.624 170.078 129.327 172.367 130.092C179.283 132.408 185.651 135.219 191.383 138.46C191.802 137.437 192.169 136.388 192.464 135.302ZM179.878 151.574C182.824 149.888 185.372 147.702 187.445 145.138C182.178 142.171 176.301 139.587 169.907 137.447C167.845 136.754 165.746 136.119 163.617 135.529C162.888 138.305 162.081 141.019 161.198 143.66C160.05 147.087 158.784 150.39 157.409 153.527C158.086 153.765 158.768 153.993 159.471 154.184C166.397 156.065 173.644 155.14 179.878 151.574ZM157.838 126.138C159.404 118.395 160.36 110.269 160.665 102.015C158.101 102.589 155.579 103.545 153.181 104.92C146.027 109.008 141.473 115.914 140.098 123.445C146.182 124.008 152.106 124.908 157.838 126.138ZM153.842 141.205C154.659 138.76 155.408 136.253 156.086 133.689C150.829 132.568 145.396 131.736 139.819 131.203C140.207 134.759 141.313 138.295 143.2 141.598C145.081 144.885 147.583 147.676 150.545 149.868C151.733 147.108 152.84 144.208 153.842 141.205Z" fill="black"/>
</svg>
