<svg width="230" height="230" viewBox="0 0 230 230" fill="none" xmlns="http://www.w3.org/2000/svg">
<g clip-path="url(#clip0)">
<path d="M225.941 5.91504C228.182 5.91504 230 7.73339 230 9.97386C230 12.2143 228.182 14.0327 225.941 14.0327H4.05882C1.81294 14.0327 0 12.2143 0 9.97386C0 7.73339 1.81294 5.91504 4.05882 5.91504H225.941Z" fill="black"/>
<path d="M225.941 31.2363C228.182 31.2363 230 33.0547 230 35.2952C230 37.5356 228.182 39.354 225.941 39.354H4.05882C1.81294 39.354 0 37.5356 0 35.2952C0 33.0547 1.81294 31.2363 4.05882 31.2363H225.941Z" fill="black"/>
<path d="M225.941 56.5586C228.182 56.5586 230 58.3769 230 60.6174C230 62.8579 228.182 64.6762 225.941 64.6762H4.05882C1.81294 64.6762 0 62.8579 0 60.6174C0 58.3769 1.81294 56.5586 4.05882 56.5586H225.941Z" fill="black"/>
<path d="M225.941 81.8848C228.182 81.8848 230 83.7032 230 85.9436C230 88.1841 228.182 90.0025 225.941 90.0025H174.751C175.493 91.0848 176.202 92.2051 176.867 93.3632C179.373 97.7467 181.148 102.412 182.198 107.206H225.941C228.182 107.206 230 109.025 230 111.265C230 113.506 228.182 115.324 225.941 115.324H183.253C183.48 120.319 182.939 125.374 181.586 130.342C181.386 131.078 181.164 131.803 180.937 132.528H225.941C228.182 132.528 230 134.346 230 136.587C230 138.827 228.182 140.646 225.941 140.646H177.479C175.071 145.138 171.986 149.213 168.3 152.73L199.034 206.442C202.265 212.081 200.3 219.3 194.656 222.526C192.816 223.581 190.803 224.084 188.822 224.084C184.725 224.084 180.742 221.952 178.567 218.148L147.833 164.436C143.547 165.654 139.12 166.276 134.672 166.276C130.375 166.276 126.056 165.702 121.803 164.55C109.253 161.129 98.7809 153.033 92.3193 141.739C92.1082 141.376 91.908 141.008 91.7078 140.646H4.05882C1.81294 140.646 0 138.827 0 136.587C0 134.346 1.81294 132.528 4.05882 132.528H88.2442C86.4205 126.889 85.6845 121.061 85.9551 115.324H4.05882C1.81294 115.324 0 113.506 0 111.265C0 109.025 1.81294 107.206 4.05882 107.206H87.0266C88.3579 101.08 90.8635 95.2248 94.4353 90.0025H4.05882C1.81294 90.0025 0 88.1841 0 85.9436C0 83.7032 1.81294 81.8848 4.05882 81.8848H101.422C104.101 79.3954 107.099 77.1712 110.405 75.2771C129.336 64.4481 152.563 67.7655 167.759 81.8848H225.941ZM192.345 213.261C192.605 212.314 192.475 211.323 191.988 210.474L161.893 157.871C160.881 158.553 159.847 159.214 158.781 159.825C157.71 160.437 156.622 160.999 155.523 161.524L185.613 214.116C186.619 215.875 188.871 216.486 190.624 215.48C191.474 214.993 192.085 214.202 192.345 213.261ZM173.756 128.21C176.602 117.749 175.2 106.806 169.821 97.3949C164.436 87.9839 155.707 81.2354 145.246 78.3888C141.707 77.4255 138.103 76.9493 134.526 76.9493C127.55 76.9493 120.655 78.7676 114.437 82.3232C95.0089 93.4389 88.2496 118.284 99.3654 137.707C104.75 147.118 113.474 153.867 123.935 156.713C134.396 159.56 145.338 158.164 154.749 152.779C164.155 147.394 170.909 138.67 173.756 128.21Z" fill="black"/>
<path d="M191.988 210.474C192.475 211.324 192.605 212.314 192.345 213.261C192.085 214.203 191.474 214.993 190.624 215.48C188.871 216.487 186.619 215.875 185.613 214.117L155.523 161.525C156.622 161 157.71 160.437 158.781 159.826C159.847 159.214 160.881 158.554 161.893 157.872L191.988 210.474Z" fill="#3DD0F2"/>
<path d="M169.821 97.3958C175.201 106.807 176.602 117.749 173.756 128.21C170.909 138.671 164.155 147.395 154.75 152.78C145.339 158.165 134.396 159.561 123.935 156.714C113.474 153.868 104.75 147.119 99.3657 137.708C88.2499 118.285 95.0092 93.4398 114.437 82.3241C120.656 78.7685 127.55 76.9502 134.526 76.9502C138.103 76.9502 141.707 77.4264 145.247 78.3897C155.708 81.2363 164.437 87.9848 169.821 97.3958ZM152.601 149.024C169.951 139.093 175.991 116.9 166.066 99.5443C161.255 91.1398 153.456 85.1111 144.11 82.5676C134.769 80.0241 124.99 81.2742 116.586 86.0798C108.181 90.8909 102.147 98.6893 99.6038 108.035C97.0603 117.376 98.3104 127.155 103.121 135.56C109.81 147.249 122.063 153.803 134.656 153.803C140.755 153.803 146.935 152.266 152.601 149.024Z" fill="#B987D4"/>
<path d="M166.066 99.5441C175.991 116.9 169.951 139.093 152.601 149.024C146.935 152.266 140.755 153.802 134.656 153.802C122.063 153.802 109.81 147.249 103.121 135.559C98.3104 127.155 97.0603 117.376 99.6038 108.035C102.147 98.6891 108.181 90.8907 116.586 86.0797C124.99 81.274 134.769 80.0239 144.11 82.5674C153.456 85.111 161.255 91.1397 166.066 99.5441ZM106.482 116.229H162.689C162.494 111.91 161.309 107.581 159.02 103.576C155.285 97.0547 149.235 92.3735 141.983 90.3982C139.526 89.7326 137.026 89.4025 134.548 89.4025C129.709 89.4025 124.931 90.658 120.618 93.1258C114.091 96.8599 109.41 102.91 107.44 110.162C106.893 112.17 106.58 114.199 106.482 116.229ZM161.877 124.346H107.278C107.9 126.83 108.858 129.244 110.168 131.528C113.902 138.054 119.952 142.735 127.204 144.705C134.456 146.681 142.043 145.712 148.569 141.978C155.491 138.016 160.086 131.538 161.877 124.346Z" fill="black"/>
</g>
<defs>
<clipPath id="clip0">
<rect width="230" height="230" fill="white"/>
</clipPath>
</defs>
</svg>
