<svg width="230" height="230" viewBox="0 0 230 230" fill="none" xmlns="http://www.w3.org/2000/svg">
<g clip-path="url(#clip0)">
<path d="M224.491 197.849C228.163 201.521 229.996 206.343 229.996 211.171C229.996 215.993 228.163 220.815 224.491 224.487C220.818 228.159 215.99 229.999 211.168 229.999C206.346 229.999 201.525 228.159 197.852 224.487L142.936 169.571C142.083 168.724 141.605 167.568 141.605 166.364C141.605 165.16 142.083 164.005 142.936 163.158L145.132 160.962L139.742 155.571C124.199 167.556 105.486 173.552 86.7796 173.552C64.5457 173.552 42.3119 165.094 25.3899 148.166C-8.46005 114.316 -8.46005 59.2364 25.3899 25.3865C59.2399 -8.46346 114.319 -8.46346 148.169 25.3865C179.333 56.5563 181.802 105.725 155.575 139.744L160.959 145.129L163.155 142.933C164.928 141.16 167.802 141.16 169.574 142.933L224.491 197.849ZM218.072 218.075C221.878 214.263 221.878 208.074 218.072 204.268L166.368 152.559L152.562 166.365L204.266 218.075C208.071 221.88 214.267 221.88 218.072 218.075ZM164.523 86.7762C164.523 66.0125 156.434 46.489 141.751 31.8056C127.067 17.1221 107.544 9.03324 86.7802 9.03324C66.0105 9.03324 46.487 17.1221 31.8036 31.8056C17.1201 46.489 9.03726 66.0125 9.03726 86.7762C9.03726 107.54 17.1201 127.063 31.8036 141.747C46.487 156.43 66.0105 164.519 86.7802 164.519C107.544 164.519 127.067 156.43 141.751 141.747C156.434 127.063 164.523 107.541 164.523 86.7762ZM151.551 154.543L154.546 151.548L149.646 146.648C149.162 147.162 148.665 147.664 148.169 148.167C147.667 148.669 147.159 149.159 146.651 149.643L151.551 154.543Z" fill="black"/>
<path d="M218.072 204.269C221.878 208.075 221.878 214.264 218.072 218.075C214.267 221.881 208.072 221.881 204.266 218.075L152.562 166.366L166.369 152.56L218.072 204.269Z" fill="#3DD0F2"/>
<path d="M141.751 31.8055C156.435 46.489 164.524 66.0124 164.524 86.7762C164.524 107.54 156.435 127.063 141.751 141.747C127.068 156.43 107.544 164.519 86.7806 164.519C66.0108 164.519 46.4873 156.43 31.8039 141.747C17.1204 127.063 9.0376 107.54 9.0376 86.7762C9.0376 66.0124 17.1204 46.489 31.8039 31.8055C46.4873 17.1221 66.0108 9.0332 86.7806 9.0332C107.544 9.0332 127.067 17.1221 141.751 31.8055ZM154.952 86.7762C154.952 68.5656 147.855 51.45 134.981 38.5695C122.106 25.695 104.985 18.6044 86.78 18.6044C68.5693 18.6044 51.4478 25.695 38.5733 38.5695C25.6988 51.45 18.6082 68.5656 18.6082 86.7762C18.6082 104.987 25.6988 122.102 38.5733 134.983C51.4478 147.857 68.5693 154.948 86.78 154.948C104.985 154.948 122.106 147.857 134.981 134.983C147.855 122.102 154.952 104.987 154.952 86.7762Z" fill="#B987D4"/>
<path d="M154.547 151.548L151.552 154.543L146.651 149.642C147.16 149.158 147.668 148.668 148.17 148.166C148.666 147.664 149.162 147.162 149.646 146.647L154.547 151.548Z" fill="#F48C6C"/>
<path d="M134.981 38.5696C147.855 51.4501 154.952 68.5657 154.952 86.7763C154.952 104.987 147.855 122.102 134.981 134.983C122.106 147.857 104.985 154.948 86.7802 154.948C68.5696 154.948 51.448 147.857 38.5735 134.983C25.699 122.102 18.6084 104.987 18.6084 86.7763C18.6084 68.5657 25.699 51.4501 38.5735 38.5696C51.448 25.6951 68.5696 18.6045 86.7802 18.6045C104.985 18.6051 122.106 25.6951 134.981 38.5696ZM128.568 128.565C151.607 105.52 151.607 68.0339 128.568 44.9893C117.406 33.827 102.565 27.6802 86.7808 27.6802C70.9963 27.6802 56.1555 33.827 44.9932 44.9893C21.9486 68.0339 21.9486 105.52 44.9932 128.565C56.1555 139.727 70.9963 145.874 86.7808 145.874C102.565 145.874 117.405 139.726 128.568 128.565Z" fill="black"/>
<path d="M124.369 49.1877C126.142 50.9604 126.142 53.8281 124.369 55.6007C123.48 56.4901 122.324 56.9318 121.163 56.9318C120.001 56.9318 118.84 56.4901 117.95 55.6007C115.445 53.096 112.656 50.8999 109.656 49.0788C107.514 47.778 106.836 44.9829 108.137 42.8412C109.438 40.7056 112.233 40.0219 114.375 41.3227C117.987 43.5249 121.35 46.1687 124.369 49.1877Z" fill="black"/>
<path d="M124.37 117.953C126.142 119.726 126.142 122.593 124.37 124.366C114.296 134.439 100.895 139.945 86.8653 139.945C84.7478 139.945 82.6182 139.818 80.4826 139.564C77.996 139.273 76.2173 137.017 76.5137 134.524C76.8041 132.038 79.0608 130.259 81.5534 130.555C95.0692 132.159 108.337 127.567 117.95 117.953C119.723 116.181 122.596 116.181 124.37 117.953Z" fill="black"/>
<path d="M94.9963 34.251C97.4769 34.6382 99.1709 36.9553 98.7837 39.4359C98.3965 41.9103 96.0793 43.6043 93.5988 43.2171C79.726 41.0573 65.5206 45.6856 55.6045 55.6016C54.7212 56.4909 53.5596 56.9326 52.398 56.9326C51.2364 56.9326 50.0748 56.4909 49.1855 55.6016C47.4128 53.8289 47.4128 50.9612 49.1855 49.1885C61.1458 37.2282 78.2674 31.6495 94.9963 34.251Z" fill="black"/>
<path d="M63.4878 124.22C65.6113 125.545 66.2587 128.346 64.9337 130.47C64.0746 131.849 62.5923 132.606 61.0798 132.606C60.2631 132.606 59.4282 132.388 58.684 131.922C55.2597 129.786 52.0653 127.245 49.1855 124.366C47.4128 122.593 47.4128 119.725 49.1855 117.953C50.9581 116.18 53.8319 116.18 55.6045 117.953C57.9937 120.343 60.6442 122.448 63.4878 124.22Z" fill="black"/>
</g>
<defs>
<clipPath id="clip0">
<rect width="230" height="230" fill="white"/>
</clipPath>
</defs>
</svg>
