<svg width="230" height="230" viewBox="0 0 230 230" fill="none" xmlns="http://www.w3.org/2000/svg">
<path d="M188.984 19.3968V210.603C188.984 221.298 180.282 230 169.582 230H60.4125C49.7172 230 41.0156 221.298 41.0156 210.603V19.3968C41.0156 8.70158 49.7172 0 60.4125 0H169.582C180.282 0 188.984 8.70158 188.984 19.3968ZM181.196 210.603V194.695H48.8034V210.603C48.8034 217.005 54.0109 222.212 60.4125 222.212H169.582C175.984 222.212 181.196 217.005 181.196 210.603ZM181.196 186.907V43.0925H48.8034V186.907H181.196ZM181.196 35.3047V19.3968C181.196 12.9953 175.984 7.78781 169.582 7.78781H60.4125C54.0109 7.78781 48.8034 12.9953 48.8034 19.3968V35.3047H181.196Z" fill="black"/>
<path d="M181.196 194.695V210.603C181.196 217.005 175.983 222.212 169.582 222.212H60.4123C54.0107 222.212 48.8032 217.005 48.8032 210.603V194.695H181.196ZM126.681 208.246C126.681 201.803 121.438 196.564 115 196.564C108.556 196.564 103.318 201.803 103.318 208.246C103.318 214.689 108.556 219.928 115 219.928C121.438 219.928 126.681 214.689 126.681 208.246Z" fill="#3DD0F2"/>
<path d="M181.196 19.3971V35.305H48.8032V19.3971C48.8032 12.9955 54.0107 7.78809 60.4123 7.78809H169.582C175.983 7.78809 181.196 12.9955 181.196 19.3971ZM135.508 21.5466C135.508 19.3971 133.763 17.6526 131.614 17.6526H98.3856C96.231 17.6526 94.4917 19.3971 94.4917 21.5466C94.4917 23.696 96.231 25.4405 98.3856 25.4405H131.614C133.763 25.4405 135.508 23.696 135.508 21.5466Z" fill="#3DD0F2"/>
<path d="M172.235 59.9711V175.225C172.235 177.375 170.491 179.119 168.341 179.119H151.987C149.837 179.119 148.093 177.375 148.093 175.225V59.9711C148.093 57.8216 149.837 56.0771 151.987 56.0771H168.341C170.491 56.0771 172.235 57.8216 172.235 59.9711ZM164.447 171.332V63.865H155.881V171.332H164.447Z" fill="black"/>
<path d="M164.447 63.8652H155.88V171.332H164.447V63.8652Z" fill="#B987D4"/>
<path d="M142.122 86.7093V175.226C142.122 177.375 140.383 179.12 138.228 179.12H121.879C119.725 179.12 117.985 177.375 117.985 175.226V86.7093C117.985 84.5599 119.725 82.8154 121.879 82.8154H138.228C140.383 82.8154 142.122 84.5599 142.122 86.7093ZM134.335 171.332V90.6032H125.773V171.332H134.335Z" fill="black"/>
<path d="M131.614 17.6523C133.763 17.6523 135.508 19.3968 135.508 21.5462C135.508 23.6957 133.763 25.4402 131.614 25.4402H98.3856C96.231 25.4402 94.4917 23.6957 94.4917 21.5462C94.4917 19.3968 96.231 17.6523 98.3856 17.6523H131.614Z" fill="black"/>
<path d="M134.334 90.6035H125.773V171.332H134.334V90.6035Z" fill="#B987D4"/>
<path d="M115 196.564C121.438 196.564 126.682 201.803 126.682 208.246C126.682 214.689 121.438 219.928 115 219.928C108.557 219.928 103.318 214.689 103.318 208.246C103.318 201.803 108.557 196.564 115 196.564ZM118.894 208.246C118.894 206.102 117.144 204.352 115 204.352C112.851 204.352 111.106 206.102 111.106 208.246C111.106 210.396 112.851 212.14 115 212.14C117.144 212.14 118.894 210.396 118.894 208.246Z" fill="black"/>
<path d="M115 204.353C117.144 204.353 118.894 206.102 118.894 208.246C118.894 210.396 117.144 212.14 115 212.14C112.85 212.14 111.106 210.396 111.106 208.246C111.106 206.102 112.85 204.353 115 204.353Z" fill="#3DD0F2"/>
<path d="M112.015 113.448V175.226C112.015 177.375 110.27 179.12 108.121 179.12H91.7665C89.617 179.12 87.8726 177.375 87.8726 175.226V113.448C87.8726 111.298 89.617 109.554 91.7665 109.554H108.121C110.27 109.554 112.015 111.298 112.015 113.448ZM104.227 171.332V117.342H95.6604V171.332H104.227Z" fill="black"/>
<path d="M104.227 117.342H95.6602V171.332H104.227V117.342Z" fill="#B987D4"/>
<path d="M81.9015 140.186V175.226C81.9015 177.375 80.157 179.12 78.0076 179.12H61.6532C59.5037 179.12 57.7593 177.375 57.7593 175.226V140.186C57.7593 138.031 59.5037 136.292 61.6532 136.292H78.0076C80.157 136.292 81.9015 138.031 81.9015 140.186ZM74.1137 171.332V144.08H65.5471V171.332H74.1137Z" fill="black"/>
<path d="M74.1139 144.08H65.5474V171.332H74.1139V144.08Z" fill="#B987D4"/>
</svg>
