<svg width="230" height="230" viewBox="0 0 230 230" fill="none" xmlns="http://www.w3.org/2000/svg">
<path d="M230 157.543C230 159.648 228.292 161.356 226.186 161.356H215.031H14.9642H3.8135C1.70845 161.356 0 159.648 0 157.543C0 126.826 11.9591 97.9455 33.6809 76.2238C55.4026 54.5072 84.2784 42.543 115 42.543C145.716 42.543 174.592 54.5072 196.314 76.2238C218.036 97.9455 230 126.826 230 157.543ZM218.768 153.729H222.302C220.288 96.2829 172.93 50.17 115 50.17C57.0703 50.17 9.70664 96.2829 7.69311 153.729H11.232C13.2456 98.2303 59.0178 53.6987 115 53.6987C170.982 53.6987 216.754 98.2303 218.768 153.729ZM167.886 153.729H211.141C210.907 147.78 210.129 141.969 208.858 136.34L196.995 139.523C196.665 139.609 196.329 139.655 196.004 139.655C194.321 139.655 192.78 138.531 192.323 136.828C191.779 134.794 192.984 132.699 195.017 132.155L206.885 128.972C205.126 123.338 202.863 117.923 200.153 112.778L189.526 118.915C188.926 119.26 188.27 119.423 187.624 119.423C186.307 119.423 185.026 118.742 184.319 117.516C183.267 115.696 183.892 113.362 185.713 112.31L196.329 106.183C193.187 101.225 189.607 96.5778 185.646 92.2914L176.987 100.951C176.24 101.693 175.264 102.069 174.287 102.069C173.311 102.069 172.335 101.693 171.592 100.951C170.103 99.4608 170.103 97.0456 171.592 95.5557L180.252 86.8965C175.965 82.9305 171.313 79.356 166.36 76.2137L160.228 86.8305C159.521 88.0508 158.24 88.7372 156.923 88.7372C156.277 88.7372 155.621 88.5694 155.021 88.2236C153.196 87.1711 152.571 84.8373 153.623 83.0119L159.765 72.3849C154.625 69.6748 149.205 67.4172 143.571 65.6579L140.388 77.5255C139.93 79.2289 138.389 80.3526 136.706 80.3526C136.381 80.3526 136.045 80.3068 135.715 80.2204C133.681 79.6763 132.476 77.5814 133.02 75.5476L136.203 63.6799C130.574 62.4088 124.763 61.641 118.813 61.4071V73.6967C118.813 75.8018 117.105 77.5103 115 77.5103C112.895 77.5103 111.186 75.8018 111.186 73.6967V61.4071C105.237 61.641 99.4257 62.4088 93.7969 63.6799L96.9799 75.5476C97.524 77.5814 96.3189 79.6763 94.285 80.2204C93.9545 80.3068 93.619 80.3526 93.2935 80.3526C91.6105 80.3526 90.0699 79.2289 89.6122 77.5255L86.4292 65.6579C80.7954 67.4121 75.3752 69.6697 70.2346 72.3849L76.3768 83.0119C77.4294 84.8373 76.804 87.1711 74.9786 88.2236C74.3786 88.5694 73.7226 88.7372 73.0769 88.7372C71.76 88.7372 70.4786 88.0508 69.7719 86.8305L63.6397 76.2137C58.6822 79.3509 54.0348 82.9305 49.7433 86.8965L58.4076 95.5557C59.8974 97.0456 59.8974 99.4608 58.4076 100.951C57.6653 101.693 56.689 102.069 55.7127 102.069C54.7365 102.069 53.7602 101.693 53.0179 100.951L44.3536 92.2914C40.3875 96.5828 36.8079 101.23 33.6656 106.183L44.2824 112.315C46.1078 113.367 46.7332 115.696 45.6807 117.522C44.9739 118.747 43.6926 119.428 42.3756 119.428C41.7299 119.428 41.074 119.266 40.474 118.92L29.8419 112.783C27.1318 117.923 24.8691 123.338 23.1149 128.972L34.9825 132.155C37.0164 132.699 38.2215 134.794 37.6774 136.828C37.2198 138.531 35.6791 139.655 33.9961 139.655C33.6707 139.655 33.3351 139.609 33.0046 139.523L21.1421 136.34C19.8709 141.969 19.0879 147.78 18.854 153.729H62.1093C64.0719 126.262 87.0394 104.515 115 104.515C128.251 104.515 140.378 109.401 149.683 117.466L159.694 107.454C161.184 105.964 163.599 105.964 165.089 107.454C166.574 108.944 166.574 111.359 165.089 112.849L155.077 122.86C162.359 131.26 167.047 141.974 167.886 153.729ZM124.208 153.729H160.238C159.43 144.074 155.586 135.267 149.667 128.265L124.208 153.729ZM113.419 153.729L144.278 122.876C136.366 116.184 126.146 112.142 115 112.142C91.2495 112.142 71.704 130.472 69.7617 153.729H113.419Z" fill="black"/>
<path d="M222.302 153.729H218.768C216.755 98.2302 170.982 53.6987 115 53.6987C59.018 53.6987 13.2458 98.2302 11.2323 153.729H7.69336C9.70689 96.2828 57.0706 50.1699 115 50.1699C172.93 50.1699 220.289 96.2828 222.302 153.729Z" fill="#3DD0F2"/>
<path d="M211.141 153.73H167.886C167.047 141.974 162.359 131.26 155.077 122.861L165.089 112.849C166.574 111.359 166.574 108.944 165.089 107.454C163.599 105.964 161.184 105.964 159.694 107.454L149.683 117.466C140.378 109.401 128.251 104.515 115 104.515C87.0394 104.515 64.072 126.262 62.1093 153.73H18.854C19.0879 147.781 19.8709 141.969 21.1421 136.34L33.0046 139.523C33.3351 139.609 33.6707 139.655 33.9962 139.655C35.6792 139.655 37.2198 138.532 37.6775 136.828C38.2215 134.794 37.0164 132.699 34.9826 132.155L23.115 128.972C24.8692 123.339 27.1318 117.923 29.842 112.783L40.474 118.92C41.074 119.266 41.7299 119.428 42.3757 119.428C43.6926 119.428 44.974 118.747 45.6807 117.522C46.7333 115.696 46.1078 113.367 44.2824 112.315L33.6656 106.183C36.808 101.23 40.3876 96.583 44.3536 92.2915L53.0179 100.951C53.7603 101.693 54.7365 102.069 55.7128 102.069C56.689 102.069 57.6653 101.693 58.4077 100.951C59.8975 99.4609 59.8975 97.0457 58.4077 95.5559L49.7434 86.8967C54.0348 82.9306 58.6822 79.351 63.6398 76.2138L69.7719 86.8306C70.4787 88.0509 71.76 88.7373 73.0769 88.7373C73.7227 88.7373 74.3786 88.5695 74.9786 88.2238C76.804 87.1713 77.4294 84.8374 76.3769 83.012L70.2346 72.385C75.3752 69.6698 80.7955 67.4122 86.4293 65.658L89.6123 77.5256C90.0699 79.229 91.6106 80.3527 93.2936 80.3527C93.619 80.3527 93.9546 80.307 94.2851 80.2205C96.319 79.6765 97.524 77.5816 96.98 75.5477L93.797 63.6801C99.4257 62.4089 105.237 61.6411 111.187 61.4072V73.6969C111.187 75.8019 112.895 77.5104 115 77.5104C117.105 77.5104 118.814 75.8019 118.814 73.6969V61.4072C124.763 61.6411 130.574 62.4089 136.203 63.6801L133.02 75.5477C132.476 77.5816 133.681 79.6765 135.715 80.2205C136.045 80.307 136.381 80.3527 136.706 80.3527C138.39 80.3527 139.93 79.229 140.388 77.5256L143.571 65.658C149.205 67.4173 154.625 69.6749 159.765 72.385L153.623 83.012C152.571 84.8374 153.196 87.1713 155.021 88.2238C155.621 88.5695 156.277 88.7373 156.923 88.7373C158.24 88.7373 159.521 88.0509 160.228 86.8306L166.36 76.2138C171.313 79.3561 175.965 82.9306 180.252 86.8967L171.592 95.5559C170.103 97.0457 170.103 99.4609 171.592 100.951C172.335 101.693 173.311 102.069 174.287 102.069C175.264 102.069 176.24 101.693 176.987 100.951L185.646 92.2915C189.607 96.5779 193.187 101.225 196.329 106.183L185.713 112.31C183.892 113.362 183.267 115.696 184.319 117.517C185.026 118.742 186.307 119.423 187.624 119.423C188.27 119.423 188.926 119.261 189.526 118.915L200.153 112.778C202.863 117.923 205.126 123.339 206.885 128.972L195.018 132.155C192.984 132.699 191.779 134.794 192.323 136.828C192.78 138.532 194.321 139.655 196.004 139.655C196.329 139.655 196.665 139.609 196.995 139.523L208.858 136.34C210.129 141.969 210.907 147.781 211.141 153.73Z" fill="#B987D4"/>
<path d="M206.59 167.117C208.695 167.117 210.404 168.826 210.404 170.931C210.404 173.036 208.695 174.744 206.59 174.744H23.4048C21.2998 174.744 19.5913 173.036 19.5913 170.931C19.5913 168.826 21.2998 167.117 23.4048 167.117H206.59Z" fill="black"/>
<path d="M176.016 179.829C178.121 179.829 179.83 181.538 179.83 183.643C179.83 185.748 178.121 187.456 176.016 187.456H53.979C51.874 187.456 50.1655 185.748 50.1655 183.643C50.1655 181.538 51.874 179.829 53.979 179.829H176.016Z" fill="black"/>
</svg>
