<svg width="35" height="35" viewBox="0 0 35 35" fill="none" xmlns="http://www.w3.org/2000/svg">
<g clip-path="url(#clip0)">
<path d="M4.22228 32.8498C3.55757 32.8498 2.91288 32.743 2.30468 32.5326L0.919648 32.0534L1.98389 31.0457C3.39251 29.7118 3.748 28.1733 3.77113 27.0209C1.33654 24.3216 1.89103e-08 20.954 1.89103e-08 17.5001C-0.0004449 9.0364 7.85015 2.15039 17.4996 2.15039C27.149 2.15039 35 9.0364 35 17.5001C35 25.9633 27.149 32.8489 17.4996 32.8489C14.6267 32.8489 11.7926 32.2265 9.26677 31.0439C8.31509 31.7179 6.3926 32.8498 4.22228 32.8498ZM9.05811 28.9545L9.56887 29.213C11.9701 30.4272 14.7126 31.0697 17.4991 31.0697C26.1675 31.0697 33.2199 24.9823 33.2199 17.5005C33.2199 10.0179 26.1675 3.93051 17.4991 3.93051C8.83075 3.93051 1.77879 10.0179 1.77879 17.5001C1.77879 20.6096 3.03079 23.6498 5.30477 26.0599L5.53613 26.305L5.54681 26.6418C5.58596 27.8516 5.36884 29.492 4.29347 31.0692C6.35433 31.0363 8.2488 29.6019 8.61096 29.3123L9.05811 28.9545Z" fill="#00A2CE"/>
<path d="M9.01125 21.6985C8.35855 21.6985 7.82865 21.6473 7.41933 21.5445C7.01089 21.4426 6.72837 21.3376 6.57309 21.2308C6.53394 21.1917 6.51926 21.1023 6.5286 20.9608C6.53794 20.8206 6.56019 20.6738 6.59445 20.5234C6.62826 20.373 6.67231 20.2378 6.7257 20.1226C6.77909 20.006 6.82981 19.9517 6.8792 19.9619C7.13236 20.0496 7.40732 20.135 7.70408 20.2173C8.00084 20.2996 8.37813 20.341 8.83551 20.341C9.30312 20.341 9.69909 20.2738 10.0261 20.1368C10.3518 20.0002 10.5155 19.7568 10.5155 19.4067C10.5155 19.1037 10.4078 18.8585 10.1938 18.669C9.97984 18.4795 9.59498 18.277 9.04017 18.0639C8.73807 17.946 8.45377 17.8174 8.18592 17.6759C7.91764 17.5353 7.68228 17.3694 7.47761 17.1794C7.27295 16.9899 7.11278 16.7634 6.99577 16.5009C6.87875 16.2384 6.82002 15.9265 6.82002 15.5661C6.82002 15.2743 6.87653 14.9966 6.9882 14.7337C7.09988 14.4707 7.27295 14.2443 7.50653 14.0547C7.74012 13.8652 8.03955 13.7139 8.40482 13.6023C8.7701 13.4901 9.20568 13.4341 9.712 13.4341C10.0426 13.4341 10.318 13.4416 10.5369 13.4559C10.7558 13.4706 10.9355 13.4901 11.0775 13.5146C11.218 13.5391 11.3328 13.5658 11.4205 13.5951C11.5081 13.6245 11.5909 13.6485 11.6687 13.6681C11.7368 13.697 11.7711 13.7825 11.7711 13.9235C11.7711 14.0645 11.7511 14.2154 11.7124 14.3764C11.6736 14.5366 11.6198 14.6781 11.5522 14.7995C11.4837 14.9214 11.4156 14.9726 11.3475 14.953C11.182 14.9045 10.9555 14.8511 10.6686 14.7929C10.3812 14.7341 10.1017 14.7052 9.82901 14.7052C9.27375 14.7052 8.89201 14.7835 8.6829 14.9388C8.47334 15.0945 8.36879 15.3036 8.36879 15.5666C8.36879 15.8491 8.4858 16.0756 8.71938 16.2455C8.95296 16.4155 9.31824 16.5886 9.81433 16.7639C10.6027 17.0753 11.1847 17.433 11.5593 17.837C11.9339 18.241 12.1217 18.7495 12.1217 19.3631C12.1217 19.8209 12.034 20.2009 11.8592 20.503C11.6834 20.8046 11.4499 21.0435 11.158 21.2175C10.8661 21.3937 10.5324 21.5174 10.1578 21.5903C9.78274 21.662 9.40055 21.6985 9.01125 21.6985Z" fill="#00A2CE"/>
<path d="M19.5395 21.6254C19.3352 21.6254 19.2013 21.5916 19.1386 21.523C19.0745 21.4554 19.0438 21.3242 19.0438 21.1284V16.0176C18.6545 16.6503 18.3542 17.1393 18.1446 17.485C17.9346 17.8311 17.7829 18.0843 17.685 18.2449C17.5876 18.4046 17.5289 18.5003 17.5088 18.5292C17.4897 18.5585 17.4808 18.5786 17.4808 18.5884C17.3936 18.7343 17.3322 18.8291 17.2984 18.8731C17.2637 18.918 17.193 18.9385 17.0862 18.9385H16.8526C16.7262 18.9385 16.643 18.9167 16.6043 18.8731C16.5656 18.8291 16.5069 18.7343 16.429 18.5884L14.9394 16.0479V21.2174C14.9394 21.3442 14.9176 21.4443 14.8736 21.5173C14.83 21.5902 14.7156 21.6267 14.5306 21.6267H13.9179C13.7813 21.6267 13.6625 21.6049 13.5597 21.5609C13.4579 21.5173 13.4062 21.374 13.4062 21.1297V14.12C13.4062 13.9252 13.4427 13.7961 13.5157 13.733C13.5887 13.6698 13.6932 13.6382 13.8298 13.6382H14.5599C14.6667 13.6382 14.757 13.6524 14.83 13.6818C14.903 13.7112 14.9781 13.7841 15.0565 13.9007L16.9981 16.9964L18.9402 13.9301C18.9989 13.8228 19.0687 13.7476 19.1528 13.7036C19.236 13.6595 19.3152 13.6382 19.3935 13.6382H20.197C20.3821 13.6382 20.4885 13.6769 20.5187 13.7548C20.5481 13.8331 20.5623 13.9594 20.5623 14.1347V21.2014C20.5623 21.3473 20.5432 21.455 20.504 21.5235C20.4649 21.592 20.3528 21.6254 20.1686 21.6254H19.5395Z" fill="#00A2CE"/>
<path d="M24.4029 21.6985C23.7497 21.6985 23.2203 21.6473 22.8109 21.5445C22.4025 21.4426 22.1195 21.3376 21.9647 21.2308C21.9255 21.1917 21.9109 21.1023 21.9202 20.9608C21.9295 20.8206 21.9509 20.6738 21.9856 20.5234C22.0194 20.373 22.063 20.2378 22.1169 20.1226C22.1698 20.0055 22.2205 19.9517 22.2704 19.9619C22.5235 20.0496 22.7989 20.135 23.0952 20.2173C23.3916 20.3001 23.7688 20.341 24.2267 20.341C24.6943 20.341 25.0898 20.2738 25.4173 20.1368C25.7425 20.0002 25.9071 19.7568 25.9071 19.4067C25.9071 19.1037 25.7995 18.8585 25.585 18.669C25.3706 18.4795 24.9861 18.277 24.4309 18.0639C24.1288 17.946 23.8449 17.8174 23.5766 17.6759C23.3084 17.5353 23.073 17.3694 22.8679 17.1794C22.6637 16.9899 22.5035 16.7634 22.3865 16.5009C22.269 16.238 22.2107 15.9265 22.2107 15.5661C22.2107 15.2743 22.2672 14.9966 22.3785 14.7337C22.4906 14.4707 22.6637 14.2443 22.8972 14.0547C23.1308 13.8652 23.4298 13.7139 23.7951 13.6023C24.1608 13.4901 24.5968 13.4341 25.1023 13.4341C25.4333 13.4341 25.7087 13.4416 25.9271 13.4559C26.146 13.4706 26.3258 13.4901 26.4682 13.5146C26.6083 13.5391 26.7231 13.5658 26.8112 13.5951C26.8984 13.6241 26.9816 13.6485 27.0599 13.6681C27.1275 13.697 27.1618 13.7825 27.1618 13.9235C27.1618 14.0645 27.1418 14.2154 27.1026 14.3764C27.0644 14.5366 27.0105 14.6781 26.9433 14.7995C26.8748 14.9214 26.8063 14.9726 26.7382 14.953C26.5732 14.9045 26.3458 14.8511 26.0597 14.7929C25.7723 14.7341 25.4925 14.7052 25.2202 14.7052C24.6649 14.7052 24.2827 14.7835 24.0741 14.9388C23.8645 15.0945 23.7595 15.3036 23.7595 15.5666C23.7595 15.8491 23.877 16.0756 24.1105 16.2455C24.3437 16.4155 24.7094 16.5886 25.2055 16.7639C25.9934 17.0753 26.5758 17.433 26.9505 17.837C27.3251 18.241 27.5128 18.7495 27.5128 19.3631C27.5128 19.8209 27.4252 20.2009 27.2503 20.503C27.0746 20.8046 26.841 21.0435 26.5491 21.2175C26.2573 21.3937 25.9236 21.5174 25.549 21.5903C25.173 21.662 24.7922 21.6985 24.4029 21.6985Z" fill="#00A2CE"/>
</g>
<defs>
<clipPath id="clip0">
<rect width="35" height="35" fill="white"/>
</clipPath>
</defs>
</svg>
